{
  "accessors": [
    {
      "bufferView": 0,
      "byteOffset": 0,
      "componentType": 5126,
      "normalized": false,
      "count": 4,
      "type": "VEC3",
      "max": [
        5.353832244873047,
        6.376082897186279,
        -0.2130361795425415
      ],
      "min": [
        -5.353601455688477,
        -6.410011291503906,
        -0.3549833595752716
      ],
      "name": "part0_vertices"
    },
    {
      "bufferView": 1,
      "byteOffset": 0,
      "componentType": 5126,
      "normalized": false,
      "count": 4,
      "type": "VEC3",
      "max": [
        -0.00048828125,
        -0.010498046875,
        0.999755859375
      ],
      "min": [
        -0.00048828125,
        -0.010498046875,
        0.999755859375
      ],
      "name": "part0_normals"
    },
    {
      "bufferView": 2,
      "byteOffset": 0,
      "componentType": 5126,
      "normalized": false,
      "count": 4,
      "type": "VEC2",
      "max": [
        0.25,
        0.125
      ],
      "min": [
        0.12542724609375,
        0.0
      ],
      "name": "part0_uvs"
    },
    {
      "bufferView": 3,
      "byteOffset": 0,
      "componentType": 5123,
      "normalized": false,
      "count": 4,
      "type": "VEC4",
      "max": [
        1,
        0,
        0,
        0
      ],
      "min": [
        1,
        0,
        0,
        0
      ],
      "name": "part0_joints"
    },
    {
      "bufferView": 4,
      "byteOffset": 0,
      "componentType": 5126,
      "normalized": false,
      "count": 4,
      "type": "VEC4",
      "max": [
        1.0,
        0.0,
        0.0,
        0.0
      ],
      "min": [
        1.0,
        0.0,
        0.0,
        0.0
      ],
      "name": "part0_weights"
    },
    {
      "bufferView": 5,
      "byteOffset": 0,
      "componentType": 5123,
      "normalized": false,
      "count": 6,
      "type": "SCALAR",
      "max": [
        3
      ],
      "min": [
        0
      ],
      "name": "part0_indices"
    },
    {
      "bufferView": 0,
      "byteOffset": 48,
      "componentType": 5126,
      "normalized": false,
      "count": 68,
      "type": "VEC3",
      "max": [
        7.471037864685059,
        7.556206226348877,
        0.994322657585144
      ],
      "min": [
        -7.471037864685059,
        -7.562668800354004,
        -1.2662149667739868
      ],
      "name": "part1_vertices"
    },
    {
      "bufferView": 1,
      "byteOffset": 48,
      "componentType": 5126,
      "normalized": false,
      "count": 68,
      "type": "VEC3",
      "max": [
        0.999755859375,
        0.998779296875,
        0.92431640625
      ],
      "min": [
        -0.999755859375,
        -0.998779296875,
        -1.0
      ],
      "name": "part1_normals"
    },
    {
      "bufferView": 2,
      "byteOffset": 32,
      "componentType": 5126,
      "normalized": false,
      "count": 68,
      "type": "VEC2",
      "max": [
        0.06024169921875,
        0.15625
      ],
      "min": [
        0.008056640625,
        0.125
      ],
      "name": "part1_uvs"
    },
    {
      "bufferView": 3,
      "byteOffset": 32,
      "componentType": 5123,
      "normalized": false,
      "count": 68,
      "type": "VEC4",
      "max": [
        1,
        0,
        0,
        0
      ],
      "min": [
        1,
        0,
        0,
        0
      ],
      "name": "part1_joints"
    },
    {
      "bufferView": 4,
      "byteOffset": 64,
      "componentType": 5126,
      "normalized": false,
      "count": 68,
      "type": "VEC4",
      "max": [
        1.0,
        0.0,
        0.0,
        0.0
      ],
      "min": [
        1.0,
        0.0,
        0.0,
        0.0
      ],
      "name": "part1_weights"
    },
    {
      "bufferView": 5,
      "byteOffset": 12,
      "componentType": 5123,
      "normalized": false,
      "count": 102,
      "type": "SCALAR",
      "max": [
        67
      ],
      "min": [
        0
      ],
      "name": "part1_indices"
    },
    {
      "bufferView": 0,
      "byteOffset": 864,
      "componentType": 5126,
      "normalized": false,
      "count": 16,
      "type": "VEC3",
      "max": [
        5.997325897216797,
        6.734989643096924,
        0.1728755086660385
      ],
      "min": [
        -5.997325897216797,
        -6.728065490722656,
        0.03092832863330841
      ],
      "name": "part2_vertices"
    },
    {
      "bufferView": 1,
      "byteOffset": 864,
      "componentType": 5126,
      "normalized": false,
      "count": 16,
      "type": "VEC3",
      "max": [
        -0.000244140625,
        0.027587890625,
        0.99951171875
      ],
      "min": [
        -0.000244140625,
        0.027587890625,
        0.99951171875
      ],
      "name": "part2_normals"
    },
    {
      "bufferView": 2,
      "byteOffset": 576,
      "componentType": 5126,
      "normalized": false,
      "count": 16,
      "type": "VEC2",
      "max": [
        0.0703125,
        0.13275146484375
      ],
      "min": [
        0.0625,
        0.125
      ],
      "name": "part2_uvs"
    },
    {
      "bufferView": 3,
      "byteOffset": 576,
      "componentType": 5123,
      "normalized": false,
      "count": 16,
      "type": "VEC4",
      "max": [
        1,
        0,
        0,
        0
      ],
      "min": [
        1,
        0,
        0,
        0
      ],
      "name": "part2_joints"
    },
    {
      "bufferView": 4,
      "byteOffset": 1152,
      "componentType": 5126,
      "normalized": false,
      "count": 16,
      "type": "VEC4",
      "max": [
        1.0,
        0.0,
        0.0,
        0.0
      ],
      "min": [
        1.0,
        0.0,
        0.0,
        0.0
      ],
      "name": "part2_weights"
    },
    {
      "bufferView": 5,
      "byteOffset": 216,
      "componentType": 5123,
      "normalized": false,
      "count": 24,
      "type": "SCALAR",
      "max": [
        15
      ],
      "min": [
        0
      ],
      "name": "part2_indices"
    },
    {
      "bufferView": 6,
      "byteOffset": 0,
      "componentType": 5126,
      "normalized": false,
      "count": 2,
      "type": "MAT4",
      "max": [
        1.0,
        0.0,
        0.0,
        0.0,
        0.0,
        1.0,
        0.0,
        0.0,
        0.0,
        0.0,
        1.0,
        0.0,
        0.0,
        0.0,
        0.0,
        1.0
      ],
      "min": [
        1.0,
        0.0,
        0.0,
        0.0,
        0.0,
        1.0,
        0.0,
        0.0,
        0.0,
        0.0,
        1.0,
        0.0,
        0.0,
        0.0,
        0.0,
        1.0
      ],
      "name": "inverse_matrix"
    },
    {
      "bufferView": 7,
      "byteOffset": 0,
      "componentType": 5126,
      "normalized": false,
      "count": 1,
      "type": "SCALAR",
      "max": [
        0.0
      ],
      "min": [
        0.0
      ],
      "name": "anim_if_000_root_trans_keyframes"
    },
    {
      "bufferView": 8,
      "byteOffset": 0,
      "componentType": 5126,
      "normalized": false,
      "count": 1,
      "type": "VEC3",
      "max": [
        0.0,
        -0.0,
        -0.0
      ],
      "min": [
        0.0,
        -0.0,
        -0.0
      ],
      "name": "anim_if_000_root_trans"
    },
    {
      "bufferView": 7,
      "byteOffset": 4,
      "componentType": 5126,
      "normalized": false,
      "count": 1,
      "type": "SCALAR",
      "max": [
        0.0
      ],
      "min": [
        0.0
      ],
      "name": "anim_if_000_joint0_trans_keyframes"
    },
    {
      "bufferView": 8,
      "byteOffset": 12,
      "componentType": 5126,
      "normalized": false,
      "count": 1,
      "type": "VEC3",
      "max": [
        0.0,
        0.0,
        0.0
      ],
      "min": [
        0.0,
        0.0,
        0.0
      ],
      "name": "anim_if_000_joint0_trans"
    },
    {
      "bufferView": 9,
      "byteOffset": 0,
      "componentType": 5126,
      "normalized": false,
      "count": 2,
      "type": "SCALAR",
      "max": [
        0.01666666753590107
      ],
      "min": [
        0.0
      ],
      "name": "anim_if_000_joint0_rot_keyframes"
    },
    {
      "bufferView": 10,
      "byteOffset": 0,
      "componentType": 5126,
      "normalized": false,
      "count": 2,
      "type": "VEC4",
      "max": [
        0.0,
        0.0,
        0.0,
        1.0
      ],
      "min": [
        0.0,
        0.0,
        0.0,
        1.0
      ],
      "name": "anim_if_000_joint0_rot"
    },
    {
      "bufferView": 7,
      "byteOffset": 8,
      "componentType": 5126,
      "normalized": false,
      "count": 1,
      "type": "SCALAR",
      "max": [
        0.0
      ],
      "min": [
        0.0
      ],
      "name": "anim_if_001_root_trans_keyframes"
    },
    {
      "bufferView": 8,
      "byteOffset": 24,
      "componentType": 5126,
      "normalized": false,
      "count": 1,
      "type": "VEC3",
      "max": [
        0.0,
        -0.0,
        -0.0
      ],
      "min": [
        0.0,
        -0.0,
        -0.0
      ],
      "name": "anim_if_001_root_trans"
    },
    {
      "bufferView": 7,
      "byteOffset": 12,
      "componentType": 5126,
      "normalized": false,
      "count": 180,
      "type": "SCALAR",
      "max": [
        2.9833333492279053
      ],
      "min": [
        0.0
      ],
      "name": "anim_if_001_joint0_trans_keyframes"
    },
    {
      "bufferView": 8,
      "byteOffset": 36,
      "componentType": 5126,
      "normalized": false,
      "count": 180,
      "type": "VEC3",
      "max": [
        0.0,
        4.799840450286865,
        0.0
      ],
      "min": [
        0.0,
        0.0,
        0.0
      ],
      "name": "anim_if_001_joint0_trans"
    },
    {
      "bufferView": 9,
      "byteOffset": 8,
      "componentType": 5126,
      "normalized": false,
      "count": 32,
      "type": "SCALAR",
      "max": [
        2.9833333492279053
      ],
      "min": [
        0.0
      ],
      "name": "anim_if_001_joint0_rot_keyframes"
    },
    {
      "bufferView": 10,
      "byteOffset": 32,
      "componentType": 5126,
      "normalized": false,
      "count": 32,
      "type": "VEC4",
      "max": [
        0.11057154834270477,
        0.0896538496017456,
        0.3802562654018402,
        1.0
      ],
      "min": [
        -0.09737852215766907,
        -0.7070813775062561,
        -0.38233762979507446,
        -0.9933140873908997
      ],
      "name": "anim_if_001_joint0_rot"
    }
  ],
  "animations": [
    {
      "name": "0_if_000",
      "channels": [
        {
          "sampler": 0,
          "target": {
            "node": 3,
            "path": "translation"
          }
        },
        {
          "sampler": 1,
          "target": {
            "node": 4,
            "path": "translation"
          }
        },
        {
          "sampler": 2,
          "target": {
            "node": 4,
            "path": "rotation"
          }
        }
      ],
      "samplers": [
        {
          "input": 19,
          "interpolation": "LINEAR",
          "output": 20
        },
        {
          "input": 21,
          "interpolation": "LINEAR",
          "output": 22
        },
        {
          "input": 23,
          "interpolation": "LINEAR",
          "output": 24
        }
      ]
    },
    {
      "name": "1_if_001",
      "channels": [
        {
          "sampler": 0,
          "target": {
            "node": 3,
            "path": "translation"
          }
        },
        {
          "sampler": 1,
          "target": {
            "node": 4,
            "path": "translation"
          }
        },
        {
          "sampler": 2,
          "target": {
            "node": 4,
            "path": "rotation"
          }
        }
      ],
      "samplers": [
        {
          "input": 25,
          "interpolation": "LINEAR",
          "output": 26
        },
        {
          "input": 27,
          "interpolation": "LINEAR",
          "output": 28
        },
        {
          "input": 29,
          "interpolation": "LINEAR",
          "output": 30
        }
      ]
    }
  ],
  "asset": {
    "generator": "klonoa2-tools (https://github.com/evilarceus/klonoa2-tools)",
    "copyright": "Models by Namco, extracted by t4ils",
    "version": "2.0"
  },
  "bufferViews": [
    {
      "buffer": 0,
      "byteOffset": 0,
      "byteLength": 1056,
      "byteStride": 12,
      "target": 34962,
      "name": "vertices"
    },
    {
      "buffer": 0,
      "byteOffset": 1056,
      "byteLength": 1056,
      "byteStride": 12,
      "target": 34962,
      "name": "normals"
    },
    {
      "buffer": 0,
      "byteOffset": 2112,
      "byteLength": 704,
      "byteStride": 8,
      "target": 34962,
      "name": "uvs"
    },
    {
      "buffer": 0,
      "byteOffset": 2816,
      "byteLength": 704,
      "byteStride": 8,
      "name": "joints"
    },
    {
      "buffer": 0,
      "byteOffset": 3520,
      "byteLength": 1408,
      "byteStride": 16,
      "target": 34962,
      "name": "weights"
    },
    {
      "buffer": 0,
      "byteOffset": 4928,
      "byteLength": 264,
      "target": 34963,
      "name": "indices"
    },
    {
      "buffer": 0,
      "byteOffset": 5192,
      "byteLength": 128,
      "name": "inverse_matrix"
    },
    {
      "buffer": 0,
      "byteOffset": 5320,
      "byteLength": 732,
      "name": "anim_translations_keyframes"
    },
    {
      "buffer": 0,
      "byteOffset": 6052,
      "byteLength": 2196,
      "name": "anim_translations"
    },
    {
      "buffer": 0,
      "byteOffset": 8248,
      "byteLength": 136,
      "name": "anim_rotations_keyframes"
    },
    {
      "buffer": 0,
      "byteOffset": 8384,
      "byteLength": 544,
      "name": "anim_rotations"
    }
  ],
  "buffers": [
    {
      "uri": "data:application/gltf-buffer;base64,",
      "byteLength": 8928
    }
  ],
  "images": [
    {
      "uri": "Maze of Memories Painting 2.png",
      "name": "Maze of Memories Painting 2.png"
    }
  ],
  "materials": [
    {
      "pbrMetallicRoughness": {
        "baseColorFactor": [
          1,
          1,
          1,
          1
        ],
        "metallicFactor": 0,
        "roughnessFactor": 1,
        "baseColorTexture": {
          "index": 0,
          "texCoord": 0
        }
      },
      "emissiveFactor": [
        0,
        0,
        0
      ],
      "alphaMode": "OPAQUE",
      "doubleSided": true,
      "name": "mtl0"
    }
  ],
  "meshes": [
    {
      "primitives": [
        {
          "attributes": {
            "POSITION": 0,
            "NORMAL": 1,
            "TEXCOORD_0": 2,
            "JOINTS_0": 3,
            "WEIGHTS_0": 4
          },
          "indices": 5,
          "mode": 4,
          "material": 0
        }
      ],
      "name": "part0"
    },
    {
      "primitives": [
        {
          "attributes": {
            "POSITION": 6,
            "NORMAL": 7,
            "TEXCOORD_0": 8,
            "JOINTS_0": 9,
            "WEIGHTS_0": 10
          },
          "indices": 11,
          "mode": 4,
          "material": 0
        }
      ],
      "name": "part1"
    },
    {
      "primitives": [
        {
          "attributes": {
            "POSITION": 12,
            "NORMAL": 13,
            "TEXCOORD_0": 14,
            "JOINTS_0": 15,
            "WEIGHTS_0": 16
          },
          "indices": 17,
          "mode": 4,
          "material": 0
        }
      ],
      "name": "part2"
    }
  ],
  "nodes": [
    {
      "mesh": 0,
      "skin": 0,
      "name": "part0"
    },
    {
      "mesh": 1,
      "skin": 0,
      "name": "part1"
    },
    {
      "mesh": 2,
      "skin": 0,
      "name": "part2"
    },
    {
      "children": [
        4
      ],
      "name": "root_joint"
    },
    {
      "translation": [
        0.0,
        0.0,
        0.0
      ],
      "name": "joint0"
    }
  ],
  "samplers": [
    {
      "magFilter": 9728,
      "minFilter": 9728,
      "wrapS": 10497,
      "wrapT": 10497
    }
  ],
  "scene": 0,
  "scenes": [
    {
      "nodes": [
        0,
        1,
        2,
        3
      ]
    }
  ],
  "skins": [
    {
      "inverseBindMatrices": 18,
      "skeleton": 3,
      "joints": [
        3,
        4
      ]
    }
  ],
  "textures": [
    {
      "sampler": 0,
      "source": 0,
      "name": "Maze of Memories Painting 2.png"
    }
  ]
}