# Created by MKDS Course Modifier
mtllib Lovely Chair.mtl
g polygon0
usemtl i304120_phong4
v -0.5834961 0.9560547 -0.2263184
v -0.0004882813 0.9560547 -0.2263184
v -0.5834961 2.028564 -0.4223633
v -0.0004882813 2.028564 -0.4223633
vn 0 0.1796875 0.984375
vn 0 0.1796875 0.984375
vn 0 0.1796875 0.984375
vn 0 0.1796875 0.984375
vt 0.02734375 -0.984375
vt 0.9785156 -0.984375
vt 0.02734375 -0.015625
vt 0.9785156 -0.015625
f 1/1/1 2/2/2 3/3/3
f 2/2/2 4/4/4 3/3/3
v 0.5822754 2.028564 -0.4223633
v -0.0004882813 2.028564 -0.4223633
v 0.5822754 0.9560547 -0.2263184
v -0.0004882813 0.9560547 -0.2263184
vn 0 0.1796875 0.984375
vn 0 0.1796875 0.984375
vn 0 0.1796875 0.984375
vn 0 0.1796875 0.984375
vt 0.02734375 -0.015625
vt 0.9785156 -0.015625
vt 0.02734375 -0.984375
vt 0.9785156 -0.984375
f 5/5/5 6/6/6 7/7/7
f 6/6/6 8/8/8 7/7/7
g polygon1
usemtl i304120_phong3
v 0.6601563 0.998291 0.9997559
v -0.6611328 0.998291 0.9997559
v 0.6274414 0.8666992 0.9650879
v -0.6281738 0.8666992 0.9650879
vn 0 -0.2558594 0.9667969
vn 0 -0.2558594 0.9667969
vn 0 -0.2558594 0.9667969
vn 0 -0.2558594 0.9667969
vt 0.8486328 -0.875
vt 0.04589844 -0.875
vt 0.828125 -0.9619141
vt 0.06640625 -0.9619141
f 9/9/9 10/10/10 11/11/11
f 10/10/10 12/12/12 11/11/11
v -0.6611328 0.998291 0.9997559
v 0.6601563 0.998291 0.9997559
v -0.6611328 0.998291 -0.4172363
v 0.6601563 0.998291 -0.4172363
vn 0 0.9980469 0
vn 0 0.9980469 0
vn 0 0.9980469 0
vn 0 0.9980469 0
vt 0.1181641 -0.8105469
vt 0.8701172 -0.8105469
vt 0.1181641 -0.01953125
vt 0.8701172 -0.01953125
f 13/13/13 14/14/14 15/15/15
f 14/14/14 16/16/16 15/15/15
v -0.6281738 0.8666992 -0.3818359
v 0.6274414 0.8666992 -0.3818359
v -0.595459 0.7353516 -0.3466797
v 0.5944824 0.7353516 -0.3466797
vn 0 -0.2597656 -0.9648438
vn 0 -0.2597656 -0.9648438
vn 0 -0.2597656 -0.9648438
vn 0 -0.2597656 -0.9648438
vt 0.8955078 -0.8359375
vt 0.8955078 -0.03613281
vt 0.9833984 -0.8144531
vt 0.9833984 -0.05664063
f 17/17/17 18/18/18 19/19/19
f 18/18/18 20/20/20 19/19/19
v 0.6601563 0.998291 -0.4172363
v 0.6601563 0.998291 0.9997559
v 0.6274414 0.8666992 -0.3818359
v 0.6274414 0.8666992 0.9650879
vn 0.9707031 -0.2421875 0
vn 0.9707031 -0.2421875 0
vn 0.9707031 -0.2421875 0
vn 0.9707031 -0.2421875 0
vt 0.8779297 -0.875
vt 0.01660156 -0.875
vt 0.8564453 -0.9619141
vt 0.03808594 -0.9619141
f 21/21/21 22/22/22 23/23/23
f 22/22/22 24/24/24 23/23/23
v -0.6281738 0.8666992 -0.3818359
v -0.595459 0.7353516 -0.3466797
v -0.6281738 0.8666992 0.9650879
v -0.595459 0.7353516 0.9304199
vn -0.9707031 -0.2421875 0
vn -0.9707031 -0.2421875 0
vn -0.9707031 -0.2421875 0
vn -0.9707031 -0.2421875 0
vt 0.8955078 -0.006835938
vt 0.9833984 -0.02929688
vt 0.8955078 -0.8652344
vt 0.9833984 -0.8427734
f 25/25/25 26/26/26 27/27/27
f 26/26/26 28/28/28 27/27/27
v 0.6274414 0.8666992 0.9650879
v -0.6281738 0.8666992 0.9650879
v 0.5944824 0.7353516 0.9304199
v -0.595459 0.7353516 0.9304199
vn 0 -0.2558594 0.9667969
vn 0 -0.2558594 0.9667969
vn 0 -0.2558594 0.9667969
vn 0 -0.2558594 0.9667969
vt 0.8955078 -0.03613281
vt 0.8955078 -0.8359375
vt 0.9833984 -0.05664063
vt 0.9833984 -0.8144531
f 29/29/29 30/30/30 31/31/31
f 30/30/30 32/32/32 31/31/31
v -0.6611328 0.998291 -0.4172363
v 0.6601563 0.998291 -0.4172363
v -0.6281738 0.8666992 -0.3818359
v 0.6274414 0.8666992 -0.3818359
vn 0 -0.2597656 -0.9648438
vn 0 -0.2597656 -0.9648438
vn 0 -0.2597656 -0.9648438
vn 0 -0.2597656 -0.9648438
vt 0.04589844 -0.875
vt 0.8486328 -0.875
vt 0.06640625 -0.9619141
vt 0.828125 -0.9619141
f 33/33/33 34/34/34 35/35/35
f 34/34/34 36/36/36 35/35/35
v 0.6274414 0.8666992 -0.3818359
v 0.6274414 0.8666992 0.9650879
v 0.5944824 0.7353516 -0.3466797
v 0.5944824 0.7353516 0.9304199
vn 0.9707031 -0.2421875 0
vn 0.9707031 -0.2421875 0
vn 0.9707031 -0.2421875 0
vn 0.9707031 -0.2421875 0
vt 0.8955078 -0.006835938
vt 0.8955078 -0.8652344
vt 0.9833984 -0.02929688
vt 0.9833984 -0.8427734
f 37/37/37 38/38/38 39/39/39
f 38/38/38 40/40/40 39/39/39
v -0.6611328 0.998291 -0.4172363
v -0.6281738 0.8666992 -0.3818359
v -0.6611328 0.998291 0.9997559
v -0.6281738 0.8666992 0.9650879
vn -0.9707031 -0.2421875 0
vn -0.9707031 -0.2421875 0
vn -0.9707031 -0.2421875 0
vn -0.9707031 -0.2421875 0
vt 0.8779297 -0.875
vt 0.8564453 -0.9619141
vt 0.01660156 -0.875
vt 0.03808594 -0.9619141
f 41/41/41 42/42/42 43/43/43
f 42/42/42 44/44/44 43/43/43
g polygon2
usemtl i304120_phong1
v -0.2775879 0.9299316 -0.3762207
v -0.4567871 0.9299316 -0.3762207
v -0.5869141 1.785156 -0.5424805
v -0.8520508 1.880371 -0.560791
v -0.4672852 2.000488 -0.5842285
v -0.513916 2.353516 -0.652832
v 0 2.111816 -0.605957
vn 0 -0.1914063 -0.9824219
vn 0 -0.1914063 -0.9824219
vn 0 -0.1914063 -0.9824219
vn 0 -0.1914063 -0.9824219
vn 0 -0.1914063 -0.9824219
vn 0 -0.1914063 -0.9824219
vn 0 -0.1914063 -0.9824219
vt 0.6445313 -0.9619141
vt 0.4804688 -0.9619141
vt 0.3613281 -0.4052734
vt 0.1210938 -0.34375
vt 0.4707031 -0.265625
vt 0.4277344 -0.03515625
vt 0.8964844 -0.1923828
f 45/45/45 46/46/46 47/47/47
f 46/46/46 48/48/48 47/47/47
f 47/47/47 48/48/48 49/49/49
f 48/48/48 50/50/50 49/49/49
f 49/49/49 50/50/50 51/51/51
v 0.2775879 0.9641113 -0.2004395
v 0.4567871 0.9641113 -0.2004395
v 0.5869141 1.819336 -0.3664551
v 0.8520508 1.914551 -0.3850098
v 0.4672852 2.034668 -0.4084473
v 0.513916 2.387695 -0.4770508
v 0 2.145996 -0.4299316
vn 0 0.1914063 0.9824219
vn 0 0.1914063 0.9824219
vn 0 0.1914063 0.9824219
vn 0 0.1914063 0.9824219
vn 0 0.1914063 0.9824219
vn 0 0.1914063 0.9824219
vn 0 0.1914063 0.9824219
vt 0.6445313 -0.9619141
vt 0.4804688 -0.9619141
vt 0.3613281 -0.4052734
vt 0.1210938 -0.34375
vt 0.4707031 -0.265625
vt 0.4277344 -0.03515625
vt 0.8964844 -0.1923828
f 52/52/52 53/53/53 54/54/54
f 53/53/53 55/55/55 54/54/54
f 54/54/54 55/55/55 56/56/56
f 55/55/55 57/57/57 56/56/56
f 56/56/56 57/57/57 58/58/58
v -0.513916 2.387695 -0.4770508
v -0.4672852 2.034668 -0.4084473
v 0 2.145996 -0.4299316
v 0 1.87207 -0.376709
v 0.4672852 2.034668 -0.4084473
vn 0 0.1914063 0.9824219
vn 0 0.1914063 0.9824219
vn 0 0.1914063 0.9824219
vn 0 0.1914063 0.9824219
vn 0 0.1914063 0.9824219
vt 0.4277344 -0.03515625
vt 0.4707031 -0.265625
vt 0.8964844 -0.1923828
vt 0.8964844 -0.3710938
vt 0.4707031 -0.265625
f 59/59/59 60/60/60 61/61/61
f 60/60/60 62/62/62 61/61/61
f 61/61/61 62/62/62 63/63/63
v -0.2775879 0.9641113 -0.2004395
v -0.5869141 1.819336 -0.3664551
v -0.4567871 0.9641113 -0.2004395
v -0.8520508 1.914551 -0.3850098
vn 0 0.1914063 0.9824219
vn 0 0.1914063 0.9824219
vn 0 0.1914063 0.9824219
vn 0 0.1914063 0.9824219
vt 0.6445313 -0.9619141
vt 0.3613281 -0.4052734
vt 0.4804688 -0.9619141
vt 0.1210938 -0.34375
f 64/64/64 65/65/65 66/66/66
f 65/65/65 67/67/67 66/66/66
v 0.2775879 0.9299316 -0.3762207
v 0.5869141 1.785156 -0.5424805
v 0.4567871 0.9299316 -0.3762207
v 0.8520508 1.880371 -0.560791
vn 0 -0.1914063 -0.9824219
vn 0 -0.1914063 -0.9824219
vn 0 -0.1914063 -0.9824219
vn 0 -0.1914063 -0.9824219
vt 0.6445313 -0.9619141
vt 0.3613281 -0.4052734
vt 0.4804688 -0.9619141
vt 0.1210938 -0.34375
f 68/68/68 69/69/69 70/70/70
f 69/69/69 71/71/71 70/70/70
v -0.513916 2.387695 -0.4770508
v -0.8520508 1.914551 -0.3850098
v -0.4672852 2.034668 -0.4084473
v -0.5869141 1.819336 -0.3664551
vn 0 0.1914063 0.9824219
vn 0 0.1914063 0.9824219
vn 0 0.1914063 0.9824219
vn 0 0.1914063 0.9824219
vt 0.4277344 -0.03515625
vt 0.1210938 -0.34375
vt 0.4707031 -0.265625
vt 0.3613281 -0.4052734
f 72/72/72 73/73/73 74/74/74
f 73/73/73 75/75/75 74/74/74
v -0.4672852 2.000488 -0.5842285
v 0 2.111816 -0.605957
v 0 1.837891 -0.5527344
v 0.4672852 2.000488 -0.5842285
vn 0 -0.1914063 -0.9824219
vn 0 -0.1914063 -0.9824219
vn 0 -0.1914063 -0.9824219
vn 0 -0.1914063 -0.9824219
vt 0.4707031 -0.265625
vt 0.8964844 -0.1923828
vt 0.8964844 -0.3710938
vt 0.4707031 -0.265625
f 76/76/76 77/77/77 78/78/78
f 77/77/77 79/79/79 78/78/78
v 0.513916 2.353516 -0.652832
v 0.8520508 1.880371 -0.560791
v 0.4672852 2.000488 -0.5842285
v 0.5869141 1.785156 -0.5424805
vn 0 -0.1914063 -0.9824219
vn 0 -0.1914063 -0.9824219
vn 0 -0.1914063 -0.9824219
vn 0 -0.1914063 -0.9824219
vt 0.4277344 -0.03515625
vt 0.1210938 -0.34375
vt 0.4707031 -0.265625
vt 0.3613281 -0.4052734
f 80/80/80 81/81/81 82/82/82
f 81/81/81 83/83/83 82/82/82
v 0.513916 2.353516 -0.652832
v 0.4672852 2.000488 -0.5842285
v 0 2.111816 -0.605957
vn 0 -0.1914063 -0.9824219
vn 0 -0.1914063 -0.9824219
vn 0 -0.1914063 -0.9824219
vt 0.4277344 -0.03515625
vt 0.4707031 -0.265625
vt 0.8964844 -0.1923828
f 84/84/84 85/85/85 86/86/86
g polygon3
usemtl i304120_phong2
v -0.2775879 0.9641113 -0.2004395
v -0.2775879 0.9299316 -0.3762207
v -0.5869141 1.819336 -0.3664551
v -0.5869141 1.785156 -0.5424805
v -0.4672852 2.034668 -0.4084473
v -0.4672852 2.000488 -0.5842285
vn 0.9414063 0.328125 -0.06445313
vn 0.9414063 0.328125 -0.06445313
vn 0.9980469 0.06835938 -0.01367188
vn 0.9746094 -0.2207031 0.04296875
vn 0.8769531 -0.4707031 0.09179688
vn 0.8769531 -0.4707031 0.09179688
vt 0.7871094 -0.8408203
vt 0.9550781 -0.8408203
vt 0.7871094 -0.2597656
vt 0.9550781 -0.2597656
vt 0.7871094 -0.1142578
vt 0.9550781 -0.1142578
f 87/87/87 88/88/88 89/89/89
f 88/88/88 90/90/90 89/89/89
f 89/89/89 90/90/90 91/91/91
f 90/90/90 92/92/92 91/91/91
v -0.4567871 0.9299316 -0.3762207
v -0.4567871 0.9641113 -0.2004395
v -0.8520508 1.880371 -0.560791
v -0.8520508 1.914551 -0.3850098
v -0.513916 2.353516 -0.652832
v -0.513916 2.387695 -0.4770508
vn -0.9257813 -0.3710938 0.07226563
vn -0.9257813 -0.3710938 0.07226563
vn -0.9980469 -0.06640625 0.01367188
vn -0.9570313 0.2832031 -0.0546875
vn -0.8183594 0.5644531 -0.109375
vn -0.8183594 0.5644531 -0.109375
vt 0.5292969 -0.8369141
vt 0.7324219 -0.8369141
vt 0.5292969 -0.4599609
vt 0.7324219 -0.4599609
vt 0.5292969 -0.3261719
vt 0.7324219 -0.3261719
f 93/93/93 94/94/94 95/95/95
f 94/94/94 96/96/96 95/95/95
f 95/95/95 96/96/96 97/97/97
f 96/96/96 98/98/98 97/97/97
v -0.513916 2.353516 -0.652832
v -0.513916 2.387695 -0.4770508
v 0 2.111816 -0.605957
v 0 2.145996 -0.4299316
v 0.513916 2.387695 -0.4770508
vn 0.4316406 0.8847656 -0.171875
vn 0.4316406 0.8847656 -0.171875
vn 0 0.9824219 -0.1914063
vn 0 0.9824219 -0.1914063
vn -0.4316406 0.8847656 -0.171875
vt 0.5292969 -0.3261719
vt 0.7324219 -0.3261719
vt 0.5292969 -0.1269531
vt 0.7324219 -0.1269531
vt 0.7324219 -0.3261719
f 99/99/99 100/100/100 101/101/101
f 100/100/100 102/102/102 101/101/101
f 101/101/101 102/102/102 103/103/103
v -0.5598145 0 0.8962402
v -0.3806152 0 0.8962402
v -0.5395508 0.9196777 0.8759766
v -0.4008789 0.9196777 0.8759766
vn 0 0.02148438 0.9980469
vn 0 0.02148438 0.9980469
vn 0 0.02148438 0.9980469
vn 0 0.02148438 0.9980469
vt 0.03125 -0.9599609
vt 0.4746094 -0.9599609
vt 0.08203125 -0.04003906
vt 0.4238281 -0.04003906
f 104/104/104 105/105/105 106/106/106
f 105/105/105 107/107/107 106/106/106
v -0.3806152 0 0.717041
v -0.5598145 0 0.717041
v -0.4008789 0.9196777 0.7375488
v -0.5395508 0.9196777 0.7375488
vn 0 0.02148438 -1
vn 0 0.02148438 -1
vn 0 0.02148438 -1
vn 0 0.02148438 -1
vt 0.4746094 -0.9599609
vt 0.03125 -0.9599609
vt 0.4238281 -0.04003906
vt 0.08203125 -0.04003906
f 108/108/108 109/109/109 110/110/110
f 109/109/109 111/111/111 110/110/110
v -0.3806152 0 0.8962402
v -0.3806152 0 0.717041
v -0.4008789 0.9196777 0.8759766
v -0.4008789 0.9196777 0.7375488
vn 0.9980469 0.02148438 0
vn 0.9980469 0.02148438 0
vn 0.9980469 0.02148438 0
vn 0.9980469 0.02148438 0
vt 0.03125 -0.9599609
vt 0.4746094 -0.9599609
vt 0.08203125 -0.04003906
vt 0.4238281 -0.04003906
f 112/112/112 113/113/113 114/114/114
f 113/113/113 115/115/115 114/114/114
v -0.5598145 0 0.717041
v -0.5598145 0 0.8962402
v -0.5395508 0.9196777 0.7375488
v -0.5395508 0.9196777 0.8759766
vn -1 0.02148438 0
vn -1 0.02148438 0
vn -1 0.02148438 0
vn -1 0.02148438 0
vt 0.4746094 -0.9599609
vt 0.03125 -0.9599609
vt 0.4238281 -0.04003906
vt 0.08203125 -0.04003906
f 116/116/116 117/117/117 118/118/118
f 117/117/117 119/119/119 118/118/118
v 0.2775879 0.9641113 -0.2004395
v 0.5869141 1.819336 -0.3664551
v 0.2775879 0.9299316 -0.3762207
v 0.5869141 1.785156 -0.5424805
vn -0.9414063 0.328125 -0.06445313
vn -0.9980469 0.06835938 -0.01367188
vn -0.9414063 0.328125 -0.06445313
vn -0.9746094 -0.2207031 0.04296875
vt 0.7871094 -0.8408203
vt 0.7871094 -0.2597656
vt 0.9550781 -0.8408203
vt 0.9550781 -0.2597656
f 120/120/120 121/121/121 122/122/122
f 121/121/121 123/123/123 122/122/122
v 0.4567871 0.9299316 -0.3762207
v 0.8520508 1.880371 -0.560791
v 0.4567871 0.9641113 -0.2004395
v 0.8520508 1.914551 -0.3850098
vn 0.9257813 -0.3710938 0.07226563
vn 0.9980469 -0.06640625 0.01367188
vn 0.9257813 -0.3710938 0.07226563
vn 0.9570313 0.2832031 -0.0546875
vt 0.5292969 -0.8369141
vt 0.5292969 -0.4599609
vt 0.7324219 -0.8369141
vt 0.7324219 -0.4599609
f 124/124/124 125/125/125 126/126/126
f 125/125/125 127/127/127 126/126/126
v 0.513916 2.387695 -0.4770508
v 0.8520508 1.914551 -0.3850098
v 0.513916 2.353516 -0.652832
v 0.8520508 1.880371 -0.560791
vn 0.8183594 0.5644531 -0.109375
vn 0.9570313 0.2832031 -0.0546875
vn 0.8183594 0.5644531 -0.109375
vn 0.9980469 -0.06640625 0.01367188
vt 0.7324219 -0.3261719
vt 0.7324219 -0.4599609
vt 0.5292969 -0.3261719
vt 0.5292969 -0.4599609
f 128/128/128 129/129/129 130/130/130
f 129/129/129 131/131/131 130/130/130
v 0.4672852 2.000488 -0.5842285
v 0.5869141 1.785156 -0.5424805
v 0.4672852 2.034668 -0.4084473
v 0.5869141 1.819336 -0.3664551
vn -0.8769531 -0.4707031 0.09179688
vn -0.9746094 -0.2207031 0.04296875
vn -0.8769531 -0.4707031 0.09179688
vn -0.9980469 0.06835938 -0.01367188
vt 0.9550781 -0.1142578
vt 0.9550781 -0.2597656
vt 0.7871094 -0.1142578
vt 0.7871094 -0.2597656
f 132/132/132 133/133/133 134/134/134
f 133/133/133 135/135/135 134/134/134
v 0.3803711 0 0.8962402
v 0.5595703 0 0.8962402
v 0.4008789 0.9196777 0.8759766
v 0.5393066 0.9196777 0.8759766
vn 0 0.02148438 0.9980469
vn 0 0.02148438 0.9980469
vn 0 0.02148438 0.9980469
vn 0 0.02148438 0.9980469
vt 0.03125 -0.9599609
vt 0.4746094 -0.9599609
vt 0.08203125 -0.04003906
vt 0.4238281 -0.04003906
f 136/136/136 137/137/137 138/138/138
f 137/137/137 139/139/139 138/138/138
v 0.5595703 0 0.717041
v 0.3803711 0 0.717041
v 0.5393066 0.9196777 0.7375488
v 0.4008789 0.9196777 0.7375488
vn 0 0.02148438 -1
vn 0 0.02148438 -1
vn 0 0.02148438 -1
vn 0 0.02148438 -1
vt 0.4746094 -0.9599609
vt 0.03125 -0.9599609
vt 0.4238281 -0.04003906
vt 0.08203125 -0.04003906
f 140/140/140 141/141/141 142/142/142
f 141/141/141 143/143/143 142/142/142
v 0.5595703 0 0.8962402
v 0.5595703 0 0.717041
v 0.5393066 0.9196777 0.8759766
v 0.5393066 0.9196777 0.7375488
vn 0.9980469 0.02148438 0
vn 0.9980469 0.02148438 0
vn 0.9980469 0.02148438 0
vn 0.9980469 0.02148438 0
vt 0.03125 -0.9599609
vt 0.4746094 -0.9599609
vt 0.08203125 -0.04003906
vt 0.4238281 -0.04003906
f 144/144/144 145/145/145 146/146/146
f 145/145/145 147/147/147 146/146/146
v 0.3803711 0 0.717041
v 0.3803711 0 0.8962402
v 0.4008789 0.9196777 0.7375488
v 0.4008789 0.9196777 0.8759766
vn -1 0.02148438 0
vn -1 0.02148438 0
vn -1 0.02148438 0
vn -1 0.02148438 0
vt 0.4746094 -0.9599609
vt 0.03125 -0.9599609
vt 0.4238281 -0.04003906
vt 0.08203125 -0.04003906
f 148/148/148 149/149/149 150/150/150
f 149/149/149 151/151/151 150/150/150
v -0.5598145 0 -0.1137695
v -0.3806152 0 -0.1137695
v -0.5395508 0.9196777 -0.1340332
v -0.4008789 0.9196777 -0.1340332
vn 0 0.02148438 0.9980469
vn 0 0.02148438 0.9980469
vn 0 0.02148438 0.9980469
vn 0 0.02148438 0.9980469
vt 0.03125 -0.9599609
vt 0.4746094 -0.9599609
vt 0.08203125 -0.04003906
vt 0.4238281 -0.04003906
f 152/152/152 153/153/153 154/154/154
f 153/153/153 155/155/155 154/154/154
v -0.3806152 0 -0.2929688
v -0.5598145 0 -0.2929688
v -0.4008789 0.9196777 -0.2724609
v -0.5395508 0.9196777 -0.2724609
vn 0 0.02148438 -1
vn 0 0.02148438 -1
vn 0 0.02148438 -1
vn 0 0.02148438 -1
vt 0.4746094 -0.9599609
vt 0.03125 -0.9599609
vt 0.4238281 -0.04003906
vt 0.08203125 -0.04003906
f 156/156/156 157/157/157 158/158/158
f 157/157/157 159/159/159 158/158/158
v -0.3806152 0 -0.1137695
v -0.3806152 0 -0.2929688
v -0.4008789 0.9196777 -0.1340332
v -0.4008789 0.9196777 -0.2724609
vn 0.9980469 0.02148438 0
vn 0.9980469 0.02148438 0
vn 0.9980469 0.02148438 0
vn 0.9980469 0.02148438 0
vt 0.03125 -0.9599609
vt 0.4746094 -0.9599609
vt 0.08203125 -0.04003906
vt 0.4238281 -0.04003906
f 160/160/160 161/161/161 162/162/162
f 161/161/161 163/163/163 162/162/162
v -0.5598145 0 -0.2929688
v -0.5598145 0 -0.1137695
v -0.5395508 0.9196777 -0.2724609
v -0.5395508 0.9196777 -0.1340332
vn -1 0.02148438 0
vn -1 0.02148438 0
vn -1 0.02148438 0
vn -1 0.02148438 0
vt 0.4746094 -0.9599609
vt 0.03125 -0.9599609
vt 0.4238281 -0.04003906
vt 0.08203125 -0.04003906
f 164/164/164 165/165/165 166/166/166
f 165/165/165 167/167/167 166/166/166
v 0.3803711 0 -0.1137695
v 0.5595703 0 -0.1137695
v 0.4008789 0.9196777 -0.1340332
v 0.5393066 0.9196777 -0.1340332
vn 0 0.02148438 0.9980469
vn 0 0.02148438 0.9980469
vn 0 0.02148438 0.9980469
vn 0 0.02148438 0.9980469
vt 0.03125 -0.9599609
vt 0.4746094 -0.9599609
vt 0.08203125 -0.04003906
vt 0.4238281 -0.04003906
f 168/168/168 169/169/169 170/170/170
f 169/169/169 171/171/171 170/170/170
v 0.5595703 0 -0.2929688
v 0.3803711 0 -0.2929688
v 0.5393066 0.9196777 -0.2724609
v 0.4008789 0.9196777 -0.2724609
vn 0 0.02148438 -1
vn 0 0.02148438 -1
vn 0 0.02148438 -1
vn 0 0.02148438 -1
vt 0.4746094 -0.9599609
vt 0.03125 -0.9599609
vt 0.4238281 -0.04003906
vt 0.08203125 -0.04003906
f 172/172/172 173/173/173 174/174/174
f 173/173/173 175/175/175 174/174/174
v 0.5595703 0 -0.1137695
v 0.5595703 0 -0.2929688
v 0.5393066 0.9196777 -0.1340332
v 0.5393066 0.9196777 -0.2724609
vn 0.9980469 0.02148438 0
vn 0.9980469 0.02148438 0
vn 0.9980469 0.02148438 0
vn 0.9980469 0.02148438 0
vt 0.03125 -0.9599609
vt 0.4746094 -0.9599609
vt 0.08203125 -0.04003906
vt 0.4238281 -0.04003906
f 176/176/176 177/177/177 178/178/178
f 177/177/177 179/179/179 178/178/178
v 0.3803711 0 -0.2929688
v 0.3803711 0 -0.1137695
v 0.4008789 0.9196777 -0.2724609
v 0.4008789 0.9196777 -0.1340332
vn -1 0.02148438 0
vn -1 0.02148438 0
vn -1 0.02148438 0
vn -1 0.02148438 0
vt 0.4746094 -0.9599609
vt 0.03125 -0.9599609
vt 0.4238281 -0.04003906
vt 0.08203125 -0.04003906
f 180/180/180 181/181/181 182/182/182
f 181/181/181 183/183/183 182/182/182
v 0.513916 2.353516 -0.652832
v 0 2.111816 -0.605957
v 0.513916 2.387695 -0.4770508
vn -0.4316406 0.8847656 -0.171875
vn 0 0.9824219 -0.1914063
vn -0.4316406 0.8847656 -0.171875
vt 0.5292969 -0.3261719
vt 0.5292969 -0.1269531
vt 0.7324219 -0.3261719
f 184/184/184 185/185/185 186/186/186
