# Blender v3.0.1 OBJ File: ''
# www.blender.org
mtllib plank03.mtl
o plank03
v -18.531250 104.562500 -0.018158
v -18.531250 14.281250 -0.018173
v -18.468750 14.281250 4.933594
v -18.468750 104.562500 4.933594
v 0.002712 14.281250 4.910156
v 0.002705 104.562500 4.910156
v 18.515625 14.281250 4.933594
v 18.515625 104.562500 4.933594
v 18.531250 14.281250 -0.018173
v 18.531250 104.562500 -0.018173
v 18.515625 14.281250 -4.972656
v 18.515625 104.562500 -4.972656
v 18.515625 104.562500 -4.972656
v 18.515625 14.281250 -4.972656
v 0.002712 14.281250 -4.968750
v 0.002705 104.562500 -4.968750
v -18.468750 14.281250 -4.972656
v -18.468750 104.562500 -4.972656
v -18.468750 104.562500 -4.972656
v -18.468750 14.281250 -4.972656
v -18.531250 -83.125000 -0.018173
v -18.531250 -83.125000 4.949219
v 0.002655 -83.125000 4.917969
v 18.531250 -83.125000 4.949219
v 18.531250 -83.125000 -0.018173
v 18.531250 -83.125000 -4.976563
v 0.002655 -83.125000 -4.968750
v 18.531250 -83.125000 -4.976563
v -18.531250 -83.125000 -4.976563
v -18.531250 -83.125000 -4.976563
v -18.531250 -114.250000 -4.972656
v -5.675781 -114.187500 -4.968750
v -5.675781 -114.187500 4.906250
v -18.531250 -114.250000 4.925781
v -18.531250 -114.250000 -0.018173
v 5.683594 -114.187500 -4.968750
v 18.531250 -114.250000 -4.972656
v 18.531250 -114.250000 -0.018173
v 18.531250 -114.250000 4.925781
v 5.683594 -114.187500 4.906250
v -18.531250 -90.875000 4.976563
v -18.531250 -90.875000 4.917969
v 0.002735 -90.875000 4.941406
v 18.531250 -90.875000 4.976563
v 18.531250 -90.875000 4.917969
v 18.531250 -90.875000 -4.968750
v 18.531250 -90.875000 -4.980469
v 0.002735 -90.875000 -4.972656
v 18.531250 -90.875000 -4.980469
v -18.531250 -90.875000 -4.980469
v -18.531250 -90.875000 -4.968750
v -18.531250 -90.875000 -4.980469
v -18.531250 -101.937500 4.917969
v -18.531250 -101.937500 4.980469
v 0.002693 -101.937500 4.941406
v 18.531250 -101.937500 4.980469
v 18.531250 -101.937500 4.917969
v 18.531250 -101.937500 -4.968750
v 18.531250 -101.937500 -4.980469
v 0.002693 -101.937500 -4.972656
v 18.531250 -101.937500 -4.980469
v -18.531250 -101.937500 -4.980469
v -18.531250 -101.937500 -4.980469
v -18.531250 -101.937500 -4.968750
v -18.531250 -109.937500 4.917969
v -18.531250 -109.937500 4.957031
v 0.002747 -114.187500 4.921875
v 18.531250 -109.937500 4.957031
v 18.531250 -109.937500 4.917969
v 18.531250 -109.937500 -4.968750
v 18.531250 -109.937500 -4.976563
v 18.531250 -109.937500 -4.976563
v 0.002735 -114.187500 -4.968750
v -18.531250 -109.937500 -4.976563
v -18.531250 -109.937500 -4.968750
v -18.531250 -109.937500 -4.976563
v 0.002735 -114.187500 -4.968750
v 0.002747 -114.187500 4.921875
v 5.683594 -114.187500 4.906250
v 18.531250 -114.250000 4.925781
v 18.531250 -114.250000 -0.018173
v 5.683594 -114.187500 -4.968750
v 18.531250 -114.250000 -4.972656
v -5.675781 -114.187500 -4.968750
v -18.531250 -114.250000 -4.972656
v -18.531250 -114.250000 -0.018173
v -18.531250 -114.250000 4.925781
v -5.675781 -114.187500 4.906250
v -18.531250 158.500000 4.949219
v -18.531250 158.500000 -0.018173
v 0.002731 158.500000 4.917969
v 18.531250 158.500000 4.949219
v 18.531250 158.500000 -0.018158
v 18.531250 158.500000 -4.976563
v 0.002724 158.500000 -4.968750
v 18.531250 158.500000 -4.976563
v -18.531250 158.500000 -4.976563
v -18.531250 158.500000 -4.976563
v -5.675781 189.500000 4.906250
v -5.675781 189.500000 -4.968750
v -18.531250 189.500000 -4.972656
v -18.531250 189.500000 4.925781
v -18.531250 189.500000 -0.018173
v 18.531250 189.500000 -0.018173
v 18.531250 189.500000 -4.972656
v 5.683594 189.500000 -4.968750
v 18.531250 189.500000 4.925781
v 5.683594 189.500000 4.906250
v -18.531250 166.250000 4.976563
v -18.531250 166.250000 4.917969
v 0.002731 166.250000 4.941406
v 18.531250 166.250000 4.976563
v 18.531250 166.250000 4.917969
v 18.531250 166.250000 -4.980469
v 18.531250 166.250000 -4.968750
v 0.002731 166.250000 -4.972656
v 18.531250 166.250000 -4.980469
v -18.531250 166.250000 -4.980469
v -18.531250 166.250000 -4.980469
v -18.531250 166.250000 -4.968750
v -18.531250 177.375000 4.980469
v -18.531250 177.375000 4.917969
v 0.002689 177.375000 4.941406
v 18.531250 177.375000 4.980469
v 18.531250 177.375000 4.917969
v 18.531250 177.375000 -4.980469
v 18.531250 177.375000 -4.968750
v 0.002686 177.375000 -4.972656
v 18.531250 177.375000 -4.980469
v -18.531250 177.375000 -4.980469
v -18.531250 177.375000 -4.968750
v -18.531250 177.375000 -4.980469
v -18.531250 185.375000 4.957031
v -18.531250 185.375000 4.917969
v 0.002708 189.500000 4.921875
v 18.531250 185.375000 4.957031
v 18.531250 185.375000 4.917969
v 18.531250 185.375000 -4.976563
v 18.531250 185.375000 -4.968750
v 0.002708 189.500000 -4.968750
v 18.531250 185.375000 -4.976563
v -18.531250 185.375000 -4.976563
v -18.531250 185.375000 -4.968750
v -18.531250 185.375000 -4.976563
v 0.002708 189.500000 -4.968750
v 0.002708 189.500000 4.921875
v 18.531250 189.500000 4.925781
v 5.683594 189.500000 4.906250
v 18.531250 189.500000 -0.018173
v 5.683594 189.500000 -4.968750
v 18.531250 189.500000 -4.972656
v -18.531250 189.500000 -4.972656
v -5.675781 189.500000 -4.968750
v -18.531250 189.500000 -0.018173
v -5.675781 189.500000 4.906250
v -18.531250 189.500000 4.925781
v 18.531250 -114.250000 -4.972656
v -18.531250 -114.250000 -4.972656
v 18.531250 189.500000 -4.972656
v -18.531250 189.500000 -4.972656
vt 0.757324 0.570801
vt 0.755859 0.363770
vt 0.717773 0.363281
vt 0.719238 0.570557
vt 0.579102 0.363770
vt 0.580566 0.570801
vt 0.439941 0.363770
vt 0.441406 0.571045
vt 0.402344 0.364258
vt 0.403564 0.571045
vt 0.364990 0.364258
vt 0.366455 0.571045
vt 0.436035 0.573730
vt 0.436035 0.365723
vt 0.575684 0.365723
vt 0.576172 0.573730
vt 0.715332 0.365723
vt 0.715332 0.573730
vt 0.794922 0.570557
vt 0.793457 0.363770
vt 0.754395 0.126953
vt 0.716309 0.126465
vt 0.577148 0.126953
vt 0.438232 0.126953
vt 0.400879 0.127441
vt 0.363770 0.127441
vt 0.575684 0.127441
vt 0.435791 0.127441
vt 0.715820 0.127441
vt 0.791504 0.126465
vt 0.716309 0.893127
vt 0.621094 0.893188
vt 0.621094 0.929688
vt 0.716309 0.929749
vt 0.716309 0.911438
vt 0.537109 0.893188
vt 0.442139 0.893127
vt 0.442139 0.911499
vt 0.442139 0.929749
vt 0.537109 0.929688
vt 0.716309 0.097656
vt 0.716797 0.097656
vt 0.577148 0.098145
vt 0.437988 0.098145
vt 0.437988 0.098145
vt 0.363525 0.098145
vt 0.363525 0.098145
vt 0.575684 0.098145
vt 0.435791 0.098145
vt 0.715820 0.098145
vt 0.791016 0.097656
vt 0.791016 0.097656
vt 0.716309 0.056641
vt 0.715820 0.056152
vt 0.576660 0.056641
vt 0.437744 0.056641
vt 0.437744 0.056641
vt 0.363281 0.057129
vt 0.363281 0.057129
vt 0.575684 0.056641
vt 0.435791 0.056641
vt 0.715820 0.056641
vt 0.790527 0.056152
vt 0.790527 0.056152
vt 0.715820 0.026367
vt 0.715820 0.026367
vt 0.576660 0.010742
vt 0.437500 0.026855
vt 0.437500 0.026855
vt 0.363037 0.027344
vt 0.363037 0.027344
vt 0.435791 0.026855
vt 0.575684 0.010742
vt 0.715820 0.026855
vt 0.790527 0.026367
vt 0.790527 0.026367
vt 0.579102 0.893188
vt 0.579102 0.929749
vt 0.533691 0.010742
vt 0.437500 0.010742
vt 0.400391 0.011230
vt 0.532715 0.010742
vt 0.435791 0.010742
vt 0.618652 0.010742
vt 0.715820 0.010254
vt 0.752930 0.010254
vt 0.715820 0.010254
vt 0.619141 0.010742
vt 0.721191 0.772461
vt 0.758789 0.772339
vt 0.582031 0.772705
vt 0.442871 0.772949
vt 0.405029 0.772949
vt 0.367920 0.772949
vt 0.576172 0.776733
vt 0.436279 0.776733
vt 0.716309 0.776611
vt 0.795898 0.772339
vt 0.622070 0.893250
vt 0.622070 0.929443
vt 0.716309 0.929443
vt 0.716309 0.893127
vt 0.716309 0.911316
vt 0.444580 0.911316
vt 0.444580 0.929443
vt 0.538574 0.929443
vt 0.444580 0.893127
vt 0.538574 0.893250
vt 0.721191 0.801392
vt 0.721680 0.801392
vt 0.582031 0.801636
vt 0.442871 0.801880
vt 0.442627 0.801758
vt 0.368164 0.802002
vt 0.368164 0.802002
vt 0.576172 0.805786
vt 0.436279 0.805908
vt 0.716309 0.805786
vt 0.795898 0.801270
vt 0.795898 0.801270
vt 0.721680 0.842773
vt 0.721680 0.842773
vt 0.582520 0.843018
vt 0.443115 0.843262
vt 0.443115 0.843262
vt 0.368652 0.843384
vt 0.368652 0.843384
vt 0.576172 0.847412
vt 0.436279 0.847412
vt 0.716309 0.847412
vt 0.795898 0.842651
vt 0.795898 0.842651
vt 0.721680 0.872559
vt 0.721680 0.872559
vt 0.582520 0.888428
vt 0.443359 0.873047
vt 0.443359 0.873047
vt 0.369141 0.873291
vt 0.369141 0.873291
vt 0.576172 0.893127
vt 0.436279 0.877319
vt 0.716309 0.877319
vt 0.796387 0.872437
vt 0.796387 0.872437
vt 0.580078 0.929443
vt 0.580078 0.893188
vt 0.443604 0.888733
vt 0.540039 0.888489
vt 0.406494 0.888855
vt 0.533203 0.893127
vt 0.436279 0.893188
vt 0.716309 0.893127
vt 0.619141 0.893127
vt 0.758789 0.888245
vt 0.625488 0.888367
vt 0.721680 0.888245
vt 0.363037 0.011230
vt 0.790039 0.010254
vt 0.369141 0.888977
vt 0.796387 0.888245
vn -1.0000 -0.0003 -0.0002
vn -1.0000 0.0002 -0.0001
vn -0.7014 0.0003 0.7128
vn -0.7015 -0.0005 0.7126
vn -0.0000 0.0001 1.0000
vn -0.0000 -0.0001 1.0000
vn 0.7063 0.0001 0.7079
vn 0.7063 -0.0001 0.7079
vn 1.0000 0.0000 0.0000
vn 1.0000 -0.0001 0.0000
vn 0.7066 0.0000 -0.7076
vn 0.7066 -0.0001 -0.7076
vn 0.0000 0.0000 -1.0000
vn -0.7020 -0.0000 -0.7122
vn -0.7020 -0.0001 -0.7122
vn -0.7019 -0.0001 -0.7122
vn -0.7069 0.0013 0.7074
vn -0.0001 0.0016 1.0000
vn 0.7062 0.0019 0.7080
vn 1.0000 0.0005 -0.0001
vn 0.7064 0.0004 -0.7079
vn 0.0000 0.0003 -1.0000
vn 0.7064 0.0004 -0.7078
vn -0.7071 0.0005 -0.7071
vn -0.7071 0.0006 -0.7071
vn -0.5770 -0.5780 -0.5771
vn 0.0001 -0.7083 -0.7059
vn -0.0011 -0.7137 0.7005
vn -0.5771 -0.5795 0.5755
vn -0.6832 -0.7302 -0.0000
vn -0.0001 -0.7083 -0.7059
vn 0.5761 -0.5785 -0.5775
vn 0.7064 -0.7079 -0.0000
vn 0.5759 -0.5803 0.5759
vn 0.0011 -0.7137 0.7005
vn -0.7025 0.0032 0.7117
vn -1.0000 0.0028 0.0076
vn 0.6408 0.0016 0.7677
vn 0.9961 0.0006 0.0883
vn 0.8948 0.1440 -0.4227
vn 0.4401 0.0863 -0.8938
vn -0.6818 0.0003 -0.7316
vn -0.9994 0.0000 -0.0347
vn -1.0000 -0.0000 0.0072
vn -0.7010 -0.0008 0.7132
vn 0.0001 -0.0009 1.0000
vn 0.6413 -0.0010 0.7673
vn 0.9962 -0.0002 0.0875
vn 0.9268 -0.0002 -0.3755
vn 0.3895 -0.0002 -0.9210
vn -0.0000 -0.0002 -1.0000
vn 0.3894 -0.0002 -0.9210
vn -0.6785 -0.0002 -0.7346
vn -0.9992 -0.0000 -0.0391
vn -1.0000 -0.0001 0.0072
vn -0.7010 -0.0037 0.7132
vn 0.0001 -0.7081 0.7061
vn 0.6351 -0.0039 0.7724
vn 0.9954 -0.0011 0.0959
vn 0.9178 -0.0009 -0.3971
vn 0.3680 -0.0009 -0.9298
vn -0.0000 -0.7073 -0.7069
vn -0.6790 -0.0006 -0.7342
vn -0.9992 -0.0001 -0.0390
vn -0.6790 -0.0007 -0.7342
vn -0.0000 -0.7074 -0.7069
vn 0.0010 -0.7137 0.7005
vn 0.7064 -0.7078 0.0000
vn 0.0002 -0.7083 -0.7059
vn -0.5771 -0.5780 -0.5770
vn -0.6833 -0.7302 -0.0000
vn -0.5770 -0.5795 0.5756
vn -0.7068 -0.0013 0.7074
vn -0.0001 -0.0016 1.0000
vn 0.7064 -0.0015 0.7078
vn 1.0000 -0.0004 -0.0000
vn 0.7064 -0.0004 -0.7078
vn 0.0000 -0.0003 -1.0000
vn -0.7071 -0.0007 -0.7071
vn -0.7071 -0.0006 -0.7071
vn -0.0009 0.7139 0.7002
vn 0.0002 0.7083 -0.7059
vn -0.5769 0.5783 -0.5768
vn -0.5769 0.5798 0.5754
vn -0.6574 -0.7536 -0.0000
vn 0.7064 0.7078 0.0000
vn 0.5759 0.5788 -0.5773
vn -0.0003 0.7083 -0.7059
vn 0.5759 0.5803 0.5759
vn 0.0009 0.7139 0.7002
vn -0.7017 -0.0035 0.7125
vn -1.0000 -0.0032 0.0087
vn 0.6524 -0.0251 0.7574
vn 0.9939 -0.0383 0.1038
vn 0.4391 -0.0864 -0.8943
vn 0.8941 -0.1445 -0.4239
vn -0.6832 -0.0114 -0.7301
vn -0.9987 -0.0174 -0.0471
vn -0.7010 0.0008 0.7132
vn -1.0000 0.0000 0.0071
vn 0.0001 0.0009 1.0000
vn 0.6413 0.0010 0.7673
vn 0.9962 0.0002 0.0877
vn 0.3888 0.0002 -0.9213
vn 0.9265 0.0003 -0.3763
vn -0.0000 0.0002 -1.0000
vn -0.6785 0.0002 -0.7346
vn -0.9992 0.0000 -0.0393
vn -0.7010 0.0037 0.7132
vn -1.0000 0.0001 0.0072
vn 0.0001 0.7081 0.7061
vn 0.6354 0.0040 0.7722
vn 0.9955 -0.0000 0.0951
vn 0.3702 0.0009 -0.9289
vn 0.9186 0.0010 -0.3951
vn -0.0000 0.7074 -0.7069
vn -0.6779 0.0007 -0.7351
vn -0.9992 0.0001 -0.0401
vn -0.5769 0.5783 -0.5769
vn 0.0003 0.7083 -0.7059
vn -0.7536 0.6574 0.0000
vn -0.0010 0.7139 0.7002
vn -0.5768 0.5798 0.5754
vn -0.5770 -0.5780 -0.5770
vn -0.5768 0.5783 -0.5769
usemtl plank
s 1
f 1/1/1 2/2/2 3/3/3
f 3/3/3 4/4/4 1/1/1
f 4/4/4 3/3/3 5/5/5
f 5/5/5 6/6/6 4/4/4
f 6/6/6 5/5/5 7/7/7
f 7/7/7 8/8/8 6/6/6
f 8/8/8 7/7/7 9/9/9
f 9/9/9 10/10/10 8/8/8
f 10/10/10 9/9/9 11/11/11
f 11/11/11 12/12/12 10/10/10
f 13/13/11 14/14/11 15/15/13
f 15/15/13 16/16/13 13/13/11
f 16/16/13 15/15/13 17/17/14
f 17/17/14 18/18/15 16/16/13
f 2/2/2 1/1/1 19/19/16
f 19/19/16 20/20/14 2/2/2
f 21/21/2 2/2/2 20/20/14
f 22/22/17 3/3/3 2/2/2
f 2/2/2 21/21/2 22/22/17
f 3/3/3 22/22/17 23/23/18
f 23/23/18 5/5/5 3/3/3
f 24/24/19 7/7/7 5/5/5
f 5/5/5 23/23/18 24/24/19
f 25/25/20 9/9/9 7/7/7
f 7/7/7 24/24/19 25/25/20
f 9/9/9 25/25/20 26/26/21
f 26/26/21 11/11/11 9/9/9
f 27/27/22 15/15/13 14/14/11
f 14/14/11 28/28/23 27/27/22
f 15/15/13 27/27/22 29/29/24
f 29/29/24 17/17/14 15/15/13
f 20/20/14 30/30/25 21/21/2
f 31/31/26 32/32/27 33/33/28
f 31/31/26 33/33/28 34/34/29
f 35/35/30 31/31/26 34/34/29
f 36/36/31 37/37/32 38/38/33
f 36/36/31 38/38/33 39/39/34
f 40/40/35 36/36/31 39/39/34
f 41/41/36 22/22/17 21/21/2
f 21/21/2 42/42/37 41/41/36
f 43/43/18 23/23/18 22/22/17
f 22/22/17 41/41/36 43/43/18
f 23/23/18 43/43/18 44/44/38
f 44/44/38 24/24/19 23/23/18
f 45/45/39 25/25/20 24/24/19
f 24/24/19 44/44/38 45/45/39
f 25/25/20 45/45/39 46/46/40
f 25/25/20 46/46/40 47/47/41
f 47/47/41 26/26/21 25/25/20
f 48/48/22 27/27/22 28/28/23
f 28/28/23 49/49/41 48/48/22
f 50/50/42 29/29/24 27/27/22
f 27/27/22 48/48/22 50/50/42
f 51/51/43 21/21/2 30/30/25
f 30/30/25 52/52/42 51/51/43
f 21/21/2 51/51/43 42/42/37
f 53/53/44 42/42/37 51/51/43
f 42/42/37 53/53/44 54/54/45
f 54/54/45 41/41/36 42/42/37
f 55/55/46 43/43/18 41/41/36
f 41/41/36 54/54/45 55/55/46
f 56/56/47 44/44/38 43/43/18
f 43/43/18 55/55/46 56/56/47
f 57/57/48 45/45/39 44/44/38
f 44/44/38 56/56/47 57/57/48
f 58/58/49 46/46/40 45/45/39
f 45/45/39 57/57/48 58/58/49
f 46/46/40 58/58/49 59/59/50
f 59/59/50 47/47/41 46/46/40
f 60/60/51 48/48/22 49/49/41
f 49/49/41 61/61/52 60/60/51
f 48/48/22 60/60/51 62/62/53
f 62/62/53 50/50/42 48/48/22
f 52/52/42 63/63/53 64/64/54
f 51/51/43 64/64/54 53/53/44
f 64/64/54 51/51/43 52/52/42
f 65/65/55 53/53/44 64/64/54
f 66/66/56 54/54/45 53/53/44
f 53/53/44 65/65/55 66/66/56
f 54/54/45 66/66/56 67/67/57
f 67/67/57 55/55/46 54/54/45
f 68/68/58 56/56/47 55/55/46
f 55/55/46 67/67/57 68/68/58
f 69/69/59 57/57/48 56/56/47
f 56/56/47 68/68/58 69/69/59
f 70/70/60 58/58/49 57/57/48
f 57/57/48 69/69/59 70/70/60
f 71/71/61 59/59/50 58/58/49
f 58/58/49 70/70/60 71/71/61
f 61/61/52 72/72/61 73/73/62
f 73/73/62 60/60/51 61/61/52
f 74/74/63 62/62/53 60/60/51
f 60/60/51 73/73/62 74/74/63
f 75/75/64 64/64/54 63/63/53
f 63/63/53 76/76/65 75/75/64
f 64/64/54 75/75/64 65/65/55
f 77/77/66 36/36/31 40/40/35
f 78/78/57 33/33/28 32/32/27
f 40/40/35 78/78/57 77/77/66
f 32/32/27 77/77/66 78/78/57
f 68/68/58 67/67/57 79/79/67
f 79/79/67 80/80/34 68/68/58
f 69/69/59 68/68/58 80/80/34
f 70/70/60 69/69/59 81/81/68
f 80/80/34 81/81/68 69/69/59
f 82/82/31 73/73/62 72/72/61
f 72/72/61 83/83/32 82/82/31
f 74/74/63 73/73/62 84/84/69
f 84/84/69 85/85/70 74/74/63
f 65/65/55 75/75/64 86/86/71
f 87/87/72 66/66/56 65/65/55
f 65/65/55 86/86/71 87/87/72
f 88/88/28 67/67/57 66/66/56
f 66/66/56 87/87/72 88/88/28
f 1/1/1 4/4/4 89/89/73
f 89/89/73 90/90/1 1/1/1
f 19/19/16 1/1/1 90/90/1
f 4/4/4 6/6/6 91/91/74
f 91/91/74 89/89/73 4/4/4
f 6/6/6 8/8/8 92/92/75
f 92/92/75 91/91/74 6/6/6
f 93/93/76 92/92/75 8/8/8
f 8/8/8 10/10/10 93/93/76
f 10/10/10 12/12/12 94/94/77
f 94/94/77 93/93/76 10/10/10
f 13/13/11 16/16/13 95/95/78
f 95/95/78 96/96/77 13/13/11
f 16/16/13 18/18/15 97/97/79
f 97/97/79 95/95/78 16/16/13
f 90/90/1 98/98/80 19/19/16
f 99/99/81 100/100/82 101/101/83
f 102/102/84 99/99/81 101/101/83
f 103/103/85 102/102/84 101/101/83
f 104/104/86 105/105/87 106/106/88
f 107/107/89 104/104/86 106/106/88
f 108/108/90 107/107/89 106/106/88
f 90/90/1 89/89/73 109/109/91
f 109/109/91 110/110/92 90/90/1
f 111/111/74 109/109/91 89/89/73
f 89/89/73 91/91/74 111/111/74
f 112/112/93 92/92/75 93/93/76
f 112/112/93 111/111/74 91/91/74
f 91/91/74 92/92/75 112/112/93
f 93/93/76 113/113/94 112/112/93
f 93/93/76 94/94/77 114/114/95
f 93/93/76 115/115/96 113/113/94
f 114/114/95 115/115/96 93/93/76
f 96/96/77 95/95/78 116/116/78
f 116/116/78 117/117/95 96/96/77
f 118/118/97 116/116/78 95/95/78
f 95/95/78 97/97/79 118/118/97
f 119/119/97 98/98/80 90/90/1
f 90/90/1 110/110/92 120/120/98
f 90/90/1 120/120/98 119/119/97
f 110/110/92 109/109/91 121/121/99
f 121/121/99 122/122/100 110/110/92
f 109/109/91 111/111/74 123/123/101
f 123/123/101 121/121/99 109/109/91
f 124/124/102 123/123/101 111/111/74
f 111/111/74 112/112/93 124/124/102
f 112/112/93 113/113/94 125/125/103
f 125/125/103 124/124/102 112/112/93
f 125/125/103 113/113/94 115/115/96
f 115/115/96 114/114/95 126/126/104
f 115/115/96 127/127/105 125/125/103
f 126/126/104 127/127/105 115/115/96
f 117/117/95 116/116/78 128/128/106
f 128/128/106 129/129/104 117/117/95
f 116/116/78 118/118/97 130/130/107
f 130/130/107 128/128/106 116/116/78
f 131/131/108 120/120/98 110/110/92
f 119/119/97 120/120/98 131/131/108
f 110/110/92 122/122/100 131/131/108
f 131/131/108 132/132/107 119/119/97
f 122/122/100 121/121/99 133/133/109
f 133/133/109 134/134/110 122/122/100
f 135/135/111 133/133/109 121/121/99
f 121/121/99 123/123/101 135/135/111
f 123/123/101 124/124/102 136/136/112
f 136/136/112 135/135/111 123/123/101
f 137/137/113 136/136/112 124/124/102
f 137/137/113 125/125/103 127/127/105
f 124/124/102 125/125/103 137/137/113
f 127/127/105 126/126/104 138/138/114
f 138/138/114 139/139/115 127/127/105
f 127/127/105 139/139/115 137/137/113
f 129/129/104 128/128/106 140/140/116
f 140/140/116 141/141/114 129/129/104
f 128/128/106 130/130/107 142/142/117
f 142/142/117 140/140/116 128/128/106
f 122/122/100 134/134/110 143/143/118
f 132/132/107 131/131/108 143/143/118
f 143/143/118 131/131/108 122/122/100
f 143/143/118 144/144/117 132/132/107
f 108/108/90 106/106/88 145/145/116
f 100/100/82 99/99/81 146/146/111
f 146/146/111 145/145/116 100/100/82
f 145/145/116 146/146/111 108/108/90
f 147/147/89 136/136/112 137/137/113
f 148/148/90 135/135/111 136/136/112
f 136/136/112 147/147/89 148/148/90
f 137/137/113 139/139/115 149/149/86
f 137/137/113 149/149/86 147/147/89
f 141/141/114 140/140/116 150/150/88
f 150/150/88 151/151/87 141/141/114
f 142/142/117 152/152/119 153/153/120
f 153/153/120 140/140/116 142/142/117
f 143/143/118 134/134/110 154/154/121
f 133/133/109 135/135/111 155/155/122
f 134/134/110 133/133/109 156/156/123
f 155/155/122 156/156/123 133/133/109
f 156/156/123 154/154/121 134/134/110
f 157/157/32 71/71/61 70/70/60
f 70/70/60 81/81/68 157/157/32
f 158/158/124 86/86/71 75/75/64
f 75/75/64 76/76/65 158/158/124
f 139/139/115 138/138/114 159/159/87
f 159/159/87 149/149/86 139/139/115
f 160/160/125 144/144/117 143/143/118
f 143/143/118 154/154/121 160/160/125
