# Blender v3.0.1 OBJ File: ''
# www.blender.org
mtllib plank04.mtl
o plank04
v -18.468750 -18.296875 4.933594
v -18.468750 25.796875 4.933594
v -18.531250 25.796875 -0.018204
v -18.531250 -18.296875 -0.018204
v 0.002701 -18.296875 4.910156
v 0.002699 25.796875 4.910156
v 18.515625 -18.296875 4.933594
v 18.515625 25.796875 4.933594
v 18.531250 -18.296875 -0.018204
v 18.531250 25.796875 -0.018204
v 18.515625 -18.296875 -4.972656
v 18.515625 25.796875 -4.972656
v 0.002701 -18.296875 -4.968750
v 0.002699 25.796875 -4.968750
v 18.515625 25.796875 -4.972656
v 18.515625 -18.296875 -4.972656
v -18.468750 -18.296875 -4.972656
v -18.468750 25.796875 -4.972656
v -18.468750 25.796875 -4.972656
v -18.468750 -18.296875 -4.972656
v -18.531250 -68.687500 4.949219
v -18.531250 -68.687500 -0.018204
v 0.002655 -68.687500 4.917969
v 18.531250 -68.687500 4.949219
v 18.531250 -68.687500 -0.018204
v 18.531250 -68.687500 -4.976563
v 0.002655 -68.687500 -4.968750
v 18.531250 -68.687500 -4.976563
v -18.531250 -68.687500 -4.976563
v -18.531250 -68.687500 -4.976563
v -18.531250 -93.437500 -4.972656
v -5.675781 -93.437500 -4.968750
v -5.675781 -93.437500 4.906250
v -18.531250 -93.437500 4.925781
v -18.531250 -93.437500 -0.018204
v 5.683594 -93.437500 -4.968750
v 18.531250 -93.437500 -4.972656
v 18.531250 -93.437500 -0.018204
v 18.531250 -93.437500 4.925781
v 5.683594 -93.437500 4.906250
v -18.531250 -74.875000 4.976563
v -18.531250 -74.875000 4.917969
v 0.002747 -74.875000 4.941406
v 18.531250 -74.875000 4.976563
v 18.531250 -74.875000 4.917969
v 18.531250 -74.875000 -4.980469
v 18.531250 -74.875000 -4.968750
v 0.002747 -74.875000 -4.972656
v 18.531250 -74.875000 -4.980469
v -18.531250 -74.875000 -4.980469
v -18.531250 -74.875000 -4.968750
v -18.531250 -74.875000 -4.980469
v -18.531250 -83.687500 4.980469
v -18.531250 -83.687500 4.917969
v 0.002670 -83.687500 4.941406
v 18.531250 -83.687500 4.980469
v 18.531250 -83.687500 4.917969
v 18.531250 -83.687500 -4.980469
v 18.531250 -83.687500 -4.968750
v 0.002670 -83.687500 -4.972656
v 18.531250 -83.687500 -4.980469
v -18.531250 -83.687500 -4.980469
v -18.531250 -83.687500 -4.968750
v -18.531250 -83.687500 -4.980469
v -18.531250 -90.000000 4.957031
v -18.531250 -90.000000 4.917969
v 0.002747 -93.437500 4.921875
v 18.531250 -90.000000 4.957031
v 18.531250 -90.000000 4.917969
v 18.531250 -90.000000 -4.976563
v 18.531250 -90.000000 -4.968750
v 0.002747 -93.437500 -4.968750
v 18.531250 -90.000000 -4.976563
v -18.531250 -90.000000 -4.976563
v -18.531250 -90.000000 -4.968750
v -18.531250 -90.000000 -4.976563
v 0.002747 -93.437500 4.921875
v 0.002747 -93.437500 -4.968750
v 5.683594 -93.437500 4.906250
v 18.531250 -93.437500 4.925781
v 18.531250 -93.437500 -0.018204
v 5.683594 -93.437500 -4.968750
v 18.531250 -93.437500 -4.972656
v -5.675781 -93.437500 -4.968750
v -18.531250 -93.437500 -4.972656
v -18.531250 -93.437500 -0.018204
v -5.675781 -93.437500 4.906250
v -18.531250 -93.437500 4.925781
v -18.531250 68.750000 4.949219
v -18.531250 68.750000 -0.018204
v 0.002716 68.750000 4.917969
v 18.531250 68.750000 4.949219
v 18.531250 68.750000 -0.018204
v 18.531250 68.750000 -4.976563
v 0.002716 68.750000 -4.968750
v 18.531250 68.750000 -4.976563
v -18.531250 68.750000 -4.976563
v -18.531250 68.750000 -4.976563
v -5.675781 93.437500 4.906250
v -5.675781 93.437500 -4.968750
v -18.531250 93.437500 -4.972656
v -18.531250 93.437500 -0.018204
v -18.531250 93.437500 4.925781
v 18.531250 93.437500 -0.018204
v 18.531250 93.437500 -4.972656
v 5.683594 93.437500 -4.968750
v 18.531250 93.437500 4.925781
v 5.683594 93.437500 4.906250
v -18.531250 74.937500 4.976563
v -18.531250 74.937500 4.917969
v 0.002731 74.937500 4.941406
v 18.531250 74.937500 4.976563
v 18.531250 74.937500 4.917969
v 18.531250 74.937500 -4.980469
v 18.531250 74.937500 -4.968750
v 0.002731 74.937500 -4.972656
v 18.531250 74.937500 -4.980469
v -18.531250 74.937500 -4.980469
v -18.531250 74.937500 -4.968750
v -18.531250 74.937500 -4.980469
v -18.531250 83.750000 4.980469
v -18.531250 83.750000 4.917969
v 0.002701 83.750000 4.941406
v 18.531250 83.750000 4.980469
v 18.531250 83.750000 4.917969
v 18.531250 83.750000 -4.980469
v 18.531250 83.750000 -4.968750
v 0.002701 83.750000 -4.972656
v 18.531250 83.750000 -4.980469
v -18.531250 83.750000 -4.980469
v -18.531250 83.750000 -4.968750
v -18.531250 83.750000 -4.980469
v -18.531250 90.062500 4.957031
v -18.531250 90.062500 4.917969
v 0.002701 93.437500 4.921875
v 18.531250 90.062500 4.957031
v 18.531250 90.062500 4.917969
v 18.531250 90.062500 -4.976563
v 18.531250 90.062500 -4.968750
v 0.002701 93.437500 -4.968750
v 18.531250 90.062500 -4.976563
v -18.531250 90.062500 -4.976563
v -18.531250 90.062500 -4.968750
v -18.531250 90.062500 -4.976563
v 0.002701 93.437500 -4.968750
v 0.002701 93.437500 4.921875
v 5.683594 93.437500 4.906250
v 18.531250 93.437500 4.925781
v 18.531250 93.437500 -0.018204
v 5.683594 93.437500 -4.968750
v 18.531250 93.437500 -4.972656
v -5.675781 93.437500 -4.968750
v -18.531250 93.437500 -4.972656
v -18.531250 93.437500 -0.018204
v -5.675781 93.437500 4.906250
v -18.531250 93.437500 4.925781
v 18.531250 -93.437500 -4.972656
v -18.531250 -93.437500 -4.972656
v 18.531250 93.437500 -4.972656
v -18.531250 93.437500 -4.972656
vt 0.917480 0.363281
vt 0.918945 0.570557
vt 0.957520 0.570801
vt 0.956055 0.363770
vt 0.778809 0.363770
vt 0.780273 0.570801
vt 0.639648 0.363770
vt 0.641113 0.571045
vt 0.602051 0.364258
vt 0.603516 0.571045
vt 0.564941 0.364258
vt 0.566406 0.571045
vt 0.775879 0.365723
vt 0.775879 0.573730
vt 0.636230 0.573730
vt 0.635742 0.365723
vt 0.915527 0.365723
vt 0.915527 0.573730
vt 0.994629 0.570557
vt 0.993164 0.363770
vt 0.916504 0.126465
vt 0.954102 0.126953
vt 0.777344 0.126953
vt 0.638184 0.126953
vt 0.601074 0.127441
vt 0.563477 0.127441
vt 0.775879 0.127441
vt 0.635742 0.127441
vt 0.916016 0.127441
vt 0.991699 0.126465
vt 0.916016 0.893127
vt 0.821289 0.893188
vt 0.821289 0.929688
vt 0.916016 0.929749
vt 0.916016 0.911438
vt 0.737305 0.893188
vt 0.642090 0.893127
vt 0.642090 0.911499
vt 0.642090 0.929749
vt 0.737305 0.929688
vt 0.916504 0.097656
vt 0.916992 0.097656
vt 0.776855 0.098145
vt 0.637695 0.098145
vt 0.637695 0.098145
vt 0.563477 0.098145
vt 0.563477 0.098145
vt 0.775879 0.098145
vt 0.635742 0.098145
vt 0.915527 0.098145
vt 0.991211 0.097656
vt 0.991211 0.097656
vt 0.916016 0.056152
vt 0.916016 0.056641
vt 0.776855 0.056641
vt 0.637695 0.056641
vt 0.637695 0.056641
vt 0.562988 0.057129
vt 0.562988 0.057129
vt 0.775879 0.056641
vt 0.635742 0.056641
vt 0.915527 0.056641
vt 0.990723 0.056152
vt 0.990723 0.056152
vt 0.916016 0.026367
vt 0.916016 0.026367
vt 0.776367 0.010742
vt 0.637207 0.026855
vt 0.637207 0.026855
vt 0.562988 0.027344
vt 0.562988 0.027344
vt 0.775879 0.010742
vt 0.635742 0.026855
vt 0.915527 0.026855
vt 0.990234 0.026367
vt 0.990234 0.026367
vt 0.779297 0.929749
vt 0.779297 0.893188
vt 0.733887 0.010742
vt 0.637207 0.010742
vt 0.600098 0.011230
vt 0.732910 0.010742
vt 0.635742 0.010742
vt 0.818848 0.010742
vt 0.915527 0.010254
vt 0.952637 0.010254
vt 0.819336 0.010742
vt 0.915527 0.010254
vt 0.920898 0.772461
vt 0.958496 0.772339
vt 0.781738 0.772705
vt 0.642578 0.772949
vt 0.604980 0.772949
vt 0.567871 0.772949
vt 0.775879 0.776733
vt 0.636230 0.776733
vt 0.916016 0.776611
vt 0.996094 0.772339
vt 0.821777 0.893250
vt 0.821777 0.929443
vt 0.916016 0.929443
vt 0.916016 0.911316
vt 0.916016 0.893127
vt 0.644531 0.911316
vt 0.644531 0.929443
vt 0.738770 0.929443
vt 0.644531 0.893127
vt 0.738770 0.893250
vt 0.921387 0.801392
vt 0.921387 0.801392
vt 0.782227 0.801636
vt 0.642578 0.801880
vt 0.642578 0.801758
vt 0.567871 0.802002
vt 0.567871 0.802002
vt 0.775879 0.805786
vt 0.636230 0.805908
vt 0.916016 0.805786
vt 0.996094 0.801270
vt 0.996094 0.801270
vt 0.921387 0.842773
vt 0.921875 0.842773
vt 0.782227 0.843018
vt 0.643066 0.843262
vt 0.643066 0.843262
vt 0.568359 0.843384
vt 0.568359 0.843384
vt 0.775879 0.847412
vt 0.636230 0.847412
vt 0.916016 0.847412
vt 0.996094 0.842651
vt 0.996094 0.842651
vt 0.921875 0.872559
vt 0.921875 0.872559
vt 0.782715 0.888428
vt 0.643555 0.873047
vt 0.643555 0.873047
vt 0.568848 0.873291
vt 0.568848 0.873291
vt 0.775879 0.893127
vt 0.636230 0.877319
vt 0.916016 0.877319
vt 0.996094 0.872437
vt 0.996094 0.872437
vt 0.780273 0.929443
vt 0.780273 0.893188
vt 0.739746 0.888489
vt 0.643555 0.888733
vt 0.606445 0.888855
vt 0.733398 0.893127
vt 0.636230 0.893188
vt 0.818848 0.893127
vt 0.916016 0.893127
vt 0.958984 0.888245
vt 0.825195 0.888367
vt 0.921875 0.888245
vt 0.562988 0.011230
vt 0.990234 0.010254
vt 0.569336 0.888977
vt 0.996094 0.888245
vn -0.7014 0.0005 0.7128
vn -0.7015 -0.0006 0.7127
vn -1.0000 -0.0003 -0.0002
vn -1.0000 0.0003 -0.0002
vn -0.0000 0.0001 1.0000
vn -0.0000 -0.0001 1.0000
vn 0.7064 0.0001 0.7079
vn 0.7063 -0.0001 0.7079
vn 1.0000 0.0001 0.0001
vn 1.0000 -0.0001 0.0001
vn 0.7066 0.0000 -0.7076
vn 0.0000 0.0000 -1.0000
vn -0.7020 0.0000 -0.7122
vn -0.7020 -0.0001 -0.7122
vn -0.7069 0.0017 0.7073
vn -0.0001 0.0020 1.0000
vn 0.7064 0.0025 0.7078
vn 1.0000 0.0007 -0.0002
vn 0.7064 0.0005 -0.7078
vn 0.0000 0.0003 -1.0000
vn 0.7064 0.0005 -0.7079
vn -0.7071 0.0008 -0.7071
vn -0.7071 0.0009 -0.7071
vn -0.5771 -0.5780 -0.5770
vn 0.0000 -0.7086 -0.7056
vn -0.0012 -0.7156 0.6985
vn -0.5770 -0.5800 0.5750
vn 0.0000 0.0000 0.0000
vn -0.0001 -0.7086 -0.7056
vn 0.5759 -0.5788 -0.5773
vn 0.7064 -0.7078 0.0000
vn 0.5759 -0.5808 0.5754
vn 0.0012 -0.7156 0.6985
vn -0.7025 0.0038 0.7117
vn -1.0000 0.0037 0.0077
vn 0.6407 0.0020 0.7678
vn 0.9961 0.0007 0.0885
vn 0.4486 0.0984 -0.8883
vn 0.8854 0.1823 -0.4276
vn -0.6818 0.0003 -0.7316
vn -0.9994 0.0001 -0.0349
vn -0.7010 -0.0010 0.7132
vn -1.0000 0.0000 0.0069
vn 0.0001 -0.0011 1.0000
vn 0.6413 -0.0013 0.7673
vn 0.9962 -0.0003 0.0877
vn 0.3891 -0.0002 -0.9212
vn 0.9266 -0.0003 -0.3761
vn -0.0000 -0.0002 -1.0000
vn 0.3891 -0.0003 -0.9212
vn -0.6797 -0.0003 -0.7335
vn -0.9993 -0.0000 -0.0377
vn -0.6797 -0.0002 -0.7335
vn -0.7010 -0.0046 0.7132
vn -1.0000 -0.0001 0.0071
vn 0.0001 -0.7083 0.7059
vn 0.6351 -0.0050 0.7724
vn 0.9954 -0.0014 0.0957
vn 0.3686 -0.0011 -0.9296
vn 0.9180 0.0000 -0.3965
vn -0.0000 -0.7073 -0.7069
vn 0.3686 -0.0012 -0.9296
vn -0.6787 -0.0008 -0.7344
vn -0.9992 -0.0001 -0.0391
vn -0.0000 -0.7074 -0.7069
vn -0.0001 -0.7086 -0.7057
vn 0.0001 -0.7086 -0.7057
vn -0.6418 -0.7668 -0.0000
vn -0.5770 -0.5799 0.5751
vn -0.7069 -0.0017 0.7073
vn -0.0001 -0.0021 1.0000
vn 0.7064 -0.0019 0.7078
vn 1.0000 -0.0004 0.0000
vn 0.7064 -0.0005 -0.7078
vn 0.0000 -0.0003 -1.0000
vn -0.7073 -0.0009 -0.7069
vn -0.7074 -0.0009 -0.7069
vn -0.0011 0.7156 0.6985
vn 0.0001 0.7086 -0.7056
vn -0.5769 0.5783 -0.5768
vn -0.5769 0.5803 0.5749
vn 0.7064 0.7078 0.0000
vn 0.5759 0.5788 -0.5773
vn -0.0002 0.7086 -0.7056
vn 0.5759 0.5808 0.5754
vn 0.0011 0.7156 0.6985
vn -0.7019 -0.0041 0.7122
vn -1.0000 -0.0042 0.0088
vn -0.0001 -0.0020 1.0000
vn 0.6539 -0.0286 0.7560
vn 0.9929 -0.0507 0.1073
vn 0.4482 -0.0985 -0.8885
vn 0.8851 -0.1825 -0.4281
vn 0.4481 -0.0985 -0.8885
vn -0.6842 -0.0129 -0.7292
vn -0.9986 -0.0230 -0.0486
vn -0.7007 0.0010 0.7134
vn -1.0000 0.0000 0.0074
vn 0.0001 0.0011 1.0000
vn 0.6410 0.0013 0.7675
vn 0.9961 0.0003 0.0879
vn 0.3883 0.0003 -0.9215
vn 0.9263 0.0003 -0.3768
vn -0.0000 0.0002 -1.0000
vn -0.6779 0.0003 -0.7351
vn -0.9992 0.0000 -0.0404
vn -0.7005 0.0047 0.7137
vn -1.0000 0.0001 0.0075
vn 0.0001 0.7083 0.7059
vn 0.6354 0.0051 0.7722
vn 0.9954 0.0014 0.0953
vn 0.3712 0.0011 -0.9285
vn 0.9192 0.0013 -0.3939
vn -0.0000 0.7073 -0.7069
vn 0.3712 0.0012 -0.9285
vn -0.6770 0.0009 -0.7360
vn -0.9991 0.0001 -0.0413
vn -0.6770 0.0008 -0.7360
vn -0.0000 0.7074 -0.7069
vn -0.0001 0.7086 -0.7057
vn 0.5759 0.5788 -0.5774
vn 0.0001 0.7086 -0.7057
vn -0.5769 0.5783 -0.5769
vn -0.7071 0.7071 0.0000
vn 0.5759 -0.5788 -0.5774
vn -0.5770 -0.5780 -0.5771
vn -0.5768 0.5783 -0.5769
usemtl plank
s 1
f 1/1/1 2/2/2 3/3/3
f 3/3/3 4/4/4 1/1/1
f 2/2/2 1/1/1 5/5/5
f 5/5/5 6/6/6 2/2/2
f 6/6/6 5/5/5 7/7/7
f 7/7/7 8/8/8 6/6/6
f 8/8/8 7/7/7 9/9/9
f 9/9/9 10/10/10 8/8/8
f 10/10/10 9/9/9 11/11/11
f 11/11/11 12/12/11 10/10/10
f 13/13/12 14/14/12 15/15/11
f 15/15/11 16/16/11 13/13/12
f 14/14/12 13/13/12 17/17/13
f 17/17/13 18/18/13 14/14/12
f 4/4/4 3/3/3 19/19/14
f 19/19/14 20/20/13 4/4/4
f 21/21/15 1/1/1 4/4/4
f 4/4/4 22/22/4 21/21/15
f 22/22/4 4/4/4 20/20/13
f 23/23/16 5/5/5 1/1/1
f 1/1/1 21/21/15 23/23/16
f 5/5/5 23/23/16 24/24/17
f 24/24/17 7/7/7 5/5/5
f 7/7/7 24/24/17 25/25/18
f 25/25/18 9/9/9 7/7/7
f 26/26/19 11/11/11 9/9/9
f 9/9/9 25/25/18 26/26/19
f 27/27/20 13/13/12 16/16/11
f 16/16/11 28/28/21 27/27/20
f 29/29/22 17/17/13 13/13/12
f 13/13/12 27/27/20 29/29/22
f 20/20/13 30/30/23 22/22/4
f 31/31/24 32/32/25 33/33/26
f 31/31/24 33/33/26 34/34/27
f 31/31/24 34/34/27 35/35/28
f 36/36/29 37/37/30 38/38/31
f 36/36/29 38/38/31 39/39/32
f 36/36/29 39/39/32 40/40/33
f 41/41/34 21/21/15 22/22/4
f 22/22/4 42/42/35 41/41/34
f 43/43/16 23/23/16 21/21/15
f 21/21/15 41/41/34 43/43/16
f 23/23/16 43/43/16 44/44/36
f 44/44/36 24/24/17 23/23/16
f 24/24/17 44/44/36 45/45/37
f 45/45/37 25/25/18 24/24/17
f 46/46/38 26/26/19 25/25/18
f 25/25/18 47/47/39 46/46/38
f 25/25/18 45/45/37 47/47/39
f 48/48/20 27/27/20 28/28/21
f 28/28/21 49/49/38 48/48/20
f 27/27/20 48/48/20 50/50/40
f 50/50/40 29/29/22 27/27/20
f 51/51/41 22/22/4 30/30/23
f 22/22/4 51/51/41 42/42/35
f 30/30/23 52/52/40 51/51/41
f 53/53/42 41/41/34 42/42/35
f 42/42/35 54/54/43 53/53/42
f 54/54/43 42/42/35 51/51/41
f 55/55/44 43/43/16 41/41/34
f 41/41/34 53/53/42 55/55/44
f 56/56/45 44/44/36 43/43/16
f 43/43/16 55/55/44 56/56/45
f 57/57/46 45/45/37 44/44/36
f 44/44/36 56/56/45 57/57/46
f 58/58/47 46/46/38 47/47/39
f 59/59/48 47/47/39 45/45/37
f 45/45/37 57/57/46 59/59/48
f 47/47/39 59/59/48 58/58/47
f 60/60/49 48/48/20 49/49/38
f 49/49/38 61/61/50 60/60/49
f 62/62/51 50/50/40 48/48/20
f 48/48/20 60/60/49 62/62/51
f 63/63/52 51/51/41 52/52/40
f 51/51/41 63/63/52 54/54/43
f 52/52/40 64/64/53 63/63/52
f 65/65/54 53/53/42 54/54/43
f 54/54/43 66/66/55 65/65/54
f 66/66/55 54/54/43 63/63/52
f 67/67/56 55/55/44 53/53/42
f 53/53/42 65/65/54 67/67/56
f 68/68/57 56/56/45 55/55/44
f 55/55/44 67/67/56 68/68/57
f 56/56/45 68/68/57 69/69/58
f 69/69/58 57/57/46 56/56/45
f 70/70/59 58/58/47 59/59/48
f 59/59/48 71/71/60 70/70/59
f 71/71/60 59/59/48 57/57/46
f 57/57/46 69/69/58 71/71/60
f 72/72/61 60/60/49 61/61/50
f 61/61/50 73/73/62 72/72/61
f 60/60/49 72/72/61 74/74/63
f 74/74/63 62/62/51 60/60/49
f 63/63/52 75/75/64 66/66/55
f 75/75/64 63/63/52 64/64/53
f 64/64/53 76/76/63 75/75/64
f 77/77/56 33/33/26 32/32/25
f 40/40/33 77/77/56 78/78/65
f 78/78/65 36/36/29 40/40/33
f 32/32/25 78/78/65 77/77/56
f 68/68/57 67/67/56 79/79/33
f 79/79/33 80/80/32 68/68/57
f 69/69/58 68/68/57 80/80/32
f 71/71/60 69/69/58 81/81/31
f 80/80/32 81/81/31 69/69/58
f 82/82/66 72/72/61 73/73/62
f 73/73/62 83/83/30 82/82/66
f 74/74/63 72/72/61 84/84/67
f 84/84/67 85/85/24 74/74/63
f 66/66/55 75/75/64 86/86/68
f 87/87/26 67/67/56 65/65/54
f 65/65/54 88/88/69 87/87/26
f 66/66/55 86/86/68 88/88/69
f 88/88/69 65/65/54 66/66/55
f 3/3/3 2/2/2 89/89/70
f 19/19/14 3/3/3 90/90/3
f 89/89/70 90/90/3 3/3/3
f 91/91/71 89/89/70 2/2/2
f 2/2/2 6/6/6 91/91/71
f 92/92/72 91/91/71 6/6/6
f 6/6/6 8/8/8 92/92/72
f 93/93/73 92/92/72 8/8/8
f 8/8/8 10/10/10 93/93/73
f 94/94/74 93/93/73 10/10/10
f 10/10/10 12/12/11 94/94/74
f 15/15/11 14/14/12 95/95/75
f 95/95/75 96/96/74 15/15/11
f 14/14/12 18/18/13 97/97/76
f 97/97/76 95/95/75 14/14/12
f 90/90/3 98/98/77 19/19/14
f 99/99/78 100/100/79 101/101/80
f 101/101/80 102/102/28 103/103/81
f 99/99/78 101/101/80 103/103/81
f 104/104/82 105/105/83 106/106/84
f 104/104/82 106/106/84 107/107/85
f 106/106/84 108/108/86 107/107/85
f 90/90/3 89/89/70 109/109/87
f 109/109/87 110/110/88 90/90/3
f 111/111/89 109/109/87 89/89/70
f 89/89/70 91/91/71 111/111/89
f 112/112/90 92/92/72 93/93/73
f 112/112/90 111/111/89 91/91/71
f 91/91/71 92/92/72 112/112/90
f 93/93/73 113/113/91 112/112/90
f 93/93/73 94/94/74 114/114/92
f 114/114/92 115/115/93 93/93/73
f 93/93/73 115/115/93 113/113/91
f 96/96/74 95/95/75 116/116/75
f 116/116/75 117/117/94 96/96/74
f 118/118/95 116/116/75 95/95/75
f 95/95/75 97/97/76 118/118/95
f 90/90/3 110/110/88 119/119/96
f 90/90/3 119/119/96 120/120/95
f 120/120/95 98/98/77 90/90/3
f 110/110/88 109/109/87 121/121/97
f 121/121/97 122/122/98 110/110/88
f 123/123/99 121/121/97 109/109/87
f 109/109/87 111/111/89 123/123/99
f 124/124/100 123/123/99 111/111/89
f 111/111/89 112/112/90 124/124/100
f 112/112/90 113/113/91 125/125/101
f 125/125/101 113/113/91 115/115/93
f 125/125/101 124/124/100 112/112/90
f 115/115/93 114/114/92 126/126/102
f 115/115/93 127/127/103 125/125/101
f 126/126/102 127/127/103 115/115/93
f 117/117/94 116/116/75 128/128/104
f 128/128/104 129/129/102 117/117/94
f 116/116/75 118/118/95 130/130/105
f 130/130/105 128/128/104 116/116/75
f 120/120/95 119/119/96 131/131/106
f 131/131/106 119/119/96 110/110/88
f 110/110/88 122/122/98 131/131/106
f 131/131/106 132/132/105 120/120/95
f 122/122/98 121/121/97 133/133/107
f 133/133/107 134/134/108 122/122/98
f 135/135/109 133/133/107 121/121/97
f 121/121/97 123/123/99 135/135/109
f 123/123/99 124/124/100 136/136/110
f 136/136/110 135/135/109 123/123/99
f 137/137/111 136/136/110 124/124/100
f 137/137/111 125/125/101 127/127/103
f 124/124/100 125/125/101 137/137/111
f 127/127/103 126/126/102 138/138/112
f 138/138/112 139/139/113 127/127/103
f 127/127/103 139/139/113 137/137/111
f 129/129/102 128/128/104 140/140/114
f 140/140/114 141/141/115 129/129/102
f 142/142/116 140/140/114 128/128/104
f 128/128/104 130/130/105 142/142/116
f 143/143/117 131/131/106 122/122/98
f 132/132/105 131/131/106 143/143/117
f 122/122/98 134/134/108 143/143/117
f 143/143/117 144/144/118 132/132/105
f 108/108/86 106/106/84 145/145/119
f 146/146/109 145/145/119 100/100/79
f 145/145/119 146/146/109 108/108/86
f 100/100/79 99/99/78 146/146/109
f 147/147/86 135/135/109 136/136/110
f 148/148/85 136/136/110 137/137/111
f 136/136/110 148/148/85 147/147/86
f 137/137/111 149/149/82 148/148/85
f 137/137/111 139/139/113 149/149/82
f 141/141/115 140/140/114 150/150/120
f 150/150/120 151/151/121 141/141/115
f 152/152/122 140/140/114 142/142/116
f 142/142/116 153/153/123 152/152/122
f 143/143/117 134/134/108 154/154/124
f 133/133/107 135/135/109 155/155/78
f 156/156/81 154/154/124 134/134/108
f 155/155/78 156/156/81 133/133/107
f 134/134/108 133/133/107 156/156/81
f 71/71/60 81/81/31 157/157/125
f 157/157/125 70/70/59 71/71/60
f 75/75/64 76/76/63 158/158/126
f 158/158/126 86/86/68 75/75/64
f 159/159/121 149/149/82 139/139/113
f 139/139/113 138/138/112 159/159/121
f 143/143/117 154/154/124 160/160/127
f 160/160/127 144/144/118 143/143/117
