# Blender v3.0.1 OBJ File: ''
# www.blender.org
mtllib plank01.mtl
o plank01
v -18.531250 25.796875 -0.018204
v -18.531250 -18.296875 -0.018204
v -18.468750 -18.296875 4.933594
v -18.468750 25.796875 4.933594
v 0.002693 -18.296875 4.910156
v 0.002693 25.796875 4.910156
v 18.515625 -18.296875 4.933594
v 18.515625 25.796875 4.933594
v 18.531250 -18.296875 -0.018204
v 18.531250 25.796875 -0.018204
v 18.515625 -18.296875 -4.972656
v 18.515625 25.796875 -4.972656
v 18.515625 25.796875 -4.972656
v 18.515625 -18.296875 -4.972656
v 0.002697 -18.296875 -4.968750
v 0.002693 25.796875 -4.968750
v -18.468750 -18.296875 -4.972656
v -18.468750 25.796875 -4.972656
v -18.468750 25.796875 -4.972656
v -18.468750 -18.296875 -4.972656
v -18.531250 -68.687500 -0.018204
v -18.531250 -68.687500 4.949219
v 0.002647 -68.687500 4.917969
v 18.531250 -68.687500 4.949219
v 18.531250 -68.687500 -0.018204
v 18.531250 -68.687500 -4.976563
v 0.002647 -68.687500 -4.968750
v 18.531250 -68.687500 -4.976563
v -18.531250 -68.687500 -4.976563
v -18.531250 -68.687500 -4.976563
v -18.531250 -93.437500 -4.972656
v -5.675781 -93.437500 -4.968750
v -5.675781 -93.437500 4.906250
v -18.531250 -93.437500 4.925781
v -18.531250 -93.437500 -0.018204
v 5.683594 -93.437500 -4.968750
v 18.531250 -93.437500 -4.972656
v 18.531250 -93.437500 -0.018204
v 18.531250 -93.437500 4.925781
v 5.683594 -93.437500 4.906250
v -18.531250 -74.875000 4.976563
v -18.531250 -74.875000 4.917969
v 0.002724 -74.875000 4.941406
v 18.531250 -74.875000 4.976563
v 18.531250 -74.875000 4.917969
v 18.531250 -74.875000 -4.968750
v 18.531250 -74.875000 -4.980469
v 0.002728 -74.875000 -4.972656
v 18.531250 -74.875000 -4.980469
v -18.531250 -74.875000 -4.980469
v -18.531250 -74.875000 -4.968750
v -18.531250 -74.875000 -4.980469
v -18.531250 -83.687500 4.917969
v -18.531250 -83.687500 4.980469
v 0.002666 -83.687500 4.941406
v 18.531250 -83.687500 4.980469
v 18.531250 -83.687500 4.917969
v 18.531250 -83.687500 -4.968750
v 18.531250 -83.687500 -4.980469
v 0.002666 -83.687500 -4.972656
v 18.531250 -83.687500 -4.980469
v -18.531250 -83.687500 -4.980469
v -18.531250 -83.687500 -4.980469
v -18.531250 -83.687500 -4.968750
v -18.531250 -90.000000 4.917969
v -18.531250 -90.000000 4.957031
v 0.002750 -93.437500 4.921875
v 18.531250 -90.000000 4.957031
v 18.531250 -90.000000 4.917969
v 18.531250 -90.000000 -4.968750
v 18.531250 -90.000000 -4.976563
v 18.531250 -90.000000 -4.976563
v 0.002743 -93.437500 -4.968750
v -18.531250 -90.000000 -4.976563
v -18.531250 -90.000000 -4.968750
v -18.531250 -90.000000 -4.976563
v 0.002743 -93.437500 -4.968750
v 0.002750 -93.437500 4.921875
v 5.683594 -93.437500 4.906250
v 18.531250 -93.437500 4.925781
v 18.531250 -93.437500 -0.018204
v 5.683594 -93.437500 -4.968750
v 18.531250 -93.437500 -4.972656
v -5.675781 -93.437500 -4.968750
v -18.531250 -93.437500 -4.972656
v -18.531250 -93.437500 -0.018204
v -18.531250 -93.437500 4.925781
v -5.675781 -93.437500 4.906250
v -18.531250 68.750000 4.949219
v -18.531250 68.750000 -0.018204
v 0.002701 68.750000 4.917969
v 18.531250 68.750000 4.949219
v 18.531250 68.750000 -0.018204
v 18.531250 68.750000 -4.976563
v 0.002708 68.750000 -4.968750
v 18.531250 68.750000 -4.976563
v -18.531250 68.750000 -4.976563
v -18.531250 68.750000 -4.976563
v -5.675781 93.437500 4.906250
v -5.675781 93.437500 -4.968750
v -18.531250 93.437500 -4.972656
v -18.531250 93.437500 4.925781
v -18.531250 93.437500 -0.018204
v 18.531250 93.437500 -0.018188
v 18.531250 93.437500 -4.972656
v 5.683594 93.437500 -4.968750
v 18.531250 93.437500 4.925781
v 5.683594 93.437500 4.906250
v -18.531250 74.937500 4.976563
v -18.531250 74.937500 4.917969
v 0.002724 74.937500 4.941406
v 18.531250 74.937500 4.976563
v 18.531250 74.937500 4.917969
v 18.531250 74.937500 -4.980469
v 18.531250 74.937500 -4.968750
v 0.002724 74.937500 -4.972656
v 18.531250 74.937500 -4.980469
v -18.531250 74.937500 -4.980469
v -18.531250 74.937500 -4.980469
v -18.531250 74.937500 -4.968750
v -18.531250 83.750000 4.980469
v -18.531250 83.750000 4.917969
v 0.002686 83.750000 4.941406
v 18.531250 83.750000 4.980469
v 18.531250 83.750000 4.917969
v 18.531250 83.750000 -4.980469
v 18.531250 83.750000 -4.968750
v 0.002686 83.750000 -4.972656
v 18.531250 83.750000 -4.980469
v -18.531250 83.750000 -4.980469
v -18.531250 83.750000 -4.968750
v -18.531250 83.750000 -4.980469
v -18.531250 90.062500 4.957031
v -18.531250 90.062500 4.917969
v 0.002693 93.437500 4.921875
v 18.531250 90.062500 4.957031
v 18.531250 90.062500 4.917969
v 18.531250 90.062500 -4.976563
v 18.531250 90.062500 -4.968750
v 0.002693 93.437500 -4.968750
v 18.531250 90.062500 -4.976563
v -18.531250 90.062500 -4.976563
v -18.531250 90.062500 -4.968750
v -18.531250 90.062500 -4.976563
v 0.002693 93.437500 -4.968750
v 0.002693 93.437500 4.921875
v 18.531250 93.437500 4.925781
v 5.683594 93.437500 4.906250
v 18.531250 93.437500 -0.018188
v 5.683594 93.437500 -4.968750
v 18.531250 93.437500 -4.972656
v -18.531250 93.437500 -4.972656
v -5.675781 93.437500 -4.968750
v -18.531250 93.437500 -0.018204
v -5.675781 93.437500 4.906250
v -18.531250 93.437500 4.925781
v 18.531250 -93.437500 -4.972656
v -18.531250 -93.437500 -4.972656
v 18.531250 93.437500 -4.972656
v -18.531250 93.437500 -4.972656
vt 0.957520 0.570801
vt 0.956055 0.363770
vt 0.917480 0.363281
vt 0.918945 0.570557
vt 0.778809 0.363770
vt 0.780273 0.570801
vt 0.639648 0.363770
vt 0.641113 0.571045
vt 0.602051 0.364258
vt 0.603516 0.571045
vt 0.564941 0.364258
vt 0.566406 0.571045
vt 0.636230 0.573730
vt 0.635742 0.365723
vt 0.775879 0.365723
vt 0.775879 0.573730
vt 0.915527 0.365723
vt 0.915527 0.573730
vt 0.994629 0.570557
vt 0.993164 0.363770
vt 0.954102 0.126953
vt 0.916504 0.126465
vt 0.777344 0.126953
vt 0.638184 0.126953
vt 0.601074 0.127441
vt 0.563477 0.127441
vt 0.775879 0.127441
vt 0.635742 0.127441
vt 0.916016 0.127441
vt 0.991699 0.126465
vt 0.916016 0.893127
vt 0.821289 0.893188
vt 0.821289 0.929688
vt 0.916016 0.929749
vt 0.916016 0.911438
vt 0.737305 0.893188
vt 0.642090 0.893127
vt 0.642090 0.911499
vt 0.642090 0.929749
vt 0.737305 0.929688
vt 0.916504 0.097656
vt 0.916992 0.097656
vt 0.776855 0.098145
vt 0.637695 0.098145
vt 0.637695 0.098145
vt 0.563477 0.098145
vt 0.563477 0.098145
vt 0.775879 0.098145
vt 0.635742 0.098145
vt 0.915527 0.098145
vt 0.991211 0.097656
vt 0.991211 0.097656
vt 0.916016 0.056641
vt 0.916016 0.056152
vt 0.776855 0.056641
vt 0.637695 0.056641
vt 0.637695 0.056641
vt 0.562988 0.057129
vt 0.562988 0.057129
vt 0.775879 0.056641
vt 0.635742 0.056641
vt 0.915527 0.056641
vt 0.990723 0.056152
vt 0.990723 0.056152
vt 0.916016 0.026367
vt 0.916016 0.026367
vt 0.776367 0.010742
vt 0.637207 0.026855
vt 0.637207 0.026855
vt 0.562988 0.027344
vt 0.562988 0.027344
vt 0.635742 0.026855
vt 0.775879 0.010742
vt 0.915527 0.026855
vt 0.990234 0.026367
vt 0.990234 0.026367
vt 0.779297 0.893188
vt 0.779297 0.929749
vt 0.733887 0.010742
vt 0.637207 0.010742
vt 0.600098 0.011230
vt 0.732910 0.010742
vt 0.635742 0.010742
vt 0.818848 0.010742
vt 0.915527 0.010254
vt 0.952637 0.010254
vt 0.915527 0.010254
vt 0.819336 0.010742
vt 0.920898 0.772461
vt 0.958496 0.772339
vt 0.781738 0.772705
vt 0.642578 0.772949
vt 0.604980 0.772949
vt 0.567871 0.772949
vt 0.775879 0.776733
vt 0.636230 0.776733
vt 0.916016 0.776611
vt 0.996094 0.772339
vt 0.821777 0.893250
vt 0.821777 0.929443
vt 0.916016 0.929443
vt 0.916016 0.893127
vt 0.916016 0.911316
vt 0.644531 0.911316
vt 0.644531 0.929443
vt 0.738770 0.929443
vt 0.644531 0.893127
vt 0.738770 0.893250
vt 0.921387 0.801392
vt 0.921387 0.801392
vt 0.782227 0.801636
vt 0.642578 0.801880
vt 0.642578 0.801758
vt 0.567871 0.802002
vt 0.567871 0.802002
vt 0.775879 0.805786
vt 0.636230 0.805908
vt 0.916016 0.805786
vt 0.996094 0.801270
vt 0.996094 0.801270
vt 0.921387 0.842773
vt 0.921875 0.842773
vt 0.782227 0.843018
vt 0.643066 0.843262
vt 0.643066 0.843262
vt 0.568359 0.843384
vt 0.568359 0.843384
vt 0.775879 0.847412
vt 0.636230 0.847412
vt 0.916016 0.847412
vt 0.996094 0.842651
vt 0.996094 0.842651
vt 0.921875 0.872559
vt 0.921875 0.872559
vt 0.782715 0.888428
vt 0.643555 0.873047
vt 0.643555 0.873047
vt 0.568848 0.873291
vt 0.568848 0.873291
vt 0.775879 0.893127
vt 0.636230 0.877319
vt 0.916016 0.877319
vt 0.996094 0.872437
vt 0.996094 0.872437
vt 0.780273 0.929443
vt 0.780273 0.893188
vt 0.643555 0.888733
vt 0.739746 0.888489
vt 0.606445 0.888855
vt 0.733398 0.893127
vt 0.636230 0.893188
vt 0.916016 0.893127
vt 0.818848 0.893127
vt 0.958984 0.888245
vt 0.825195 0.888367
vt 0.921875 0.888245
vt 0.562988 0.011230
vt 0.990234 0.010254
vt 0.569336 0.888977
vt 0.996094 0.888245
vn -1.0000 -0.0003 -0.0002
vn -1.0000 0.0003 -0.0002
vn -0.7015 0.0005 0.7126
vn -0.7015 -0.0006 0.7127
vn -0.0000 0.0001 1.0000
vn -0.0000 -0.0001 1.0000
vn 0.7064 0.0001 0.7079
vn 0.7063 -0.0001 0.7079
vn 1.0000 0.0001 0.0001
vn 1.0000 -0.0001 0.0001
vn 0.7066 0.0000 -0.7076
vn 0.0000 0.0000 -1.0000
vn -0.7020 0.0000 -0.7122
vn -0.7020 -0.0001 -0.7122
vn -0.7069 0.0017 0.7073
vn -0.0001 0.0020 1.0000
vn 0.7064 0.0024 0.7078
vn 1.0000 0.0007 -0.0002
vn 0.7064 0.0005 -0.7078
vn 0.0000 0.0003 -1.0000
vn 0.7064 0.0005 -0.7079
vn -0.7071 0.0008 -0.7071
vn -0.7071 0.0009 -0.7071
vn -0.5771 -0.5780 -0.5770
vn 0.0000 -0.7086 -0.7056
vn -0.0012 -0.7156 0.6985
vn -0.5770 -0.5800 0.5750
vn 0.0000 0.0000 0.0000
vn -0.0001 -0.7086 -0.7056
vn 0.5759 -0.5788 -0.5773
vn 0.7064 -0.7078 0.0000
vn 0.5759 -0.5808 0.5754
vn 0.0012 -0.7156 0.6985
vn -0.7024 0.0038 0.7117
vn -1.0000 0.0036 0.0076
vn 0.6407 0.0020 0.7678
vn 0.9961 0.0007 0.0882
vn 0.8859 0.1819 -0.4268
vn 0.4492 0.0983 -0.8880
vn 0.4491 0.0984 -0.8880
vn -0.6820 0.0003 -0.7313
vn -0.9994 0.0001 -0.0347
vn -1.0000 -0.0000 0.0071
vn -0.7010 -0.0010 0.7132
vn 0.0001 -0.0011 1.0000
vn 0.6413 -0.0013 0.7673
vn 0.9962 -0.0003 0.0875
vn 0.9268 -0.0003 -0.3755
vn 0.3897 -0.0002 -0.9209
vn -0.0000 -0.0002 -1.0000
vn 0.3897 -0.0003 -0.9209
vn -0.6790 -0.0003 -0.7342
vn -0.6790 -0.0002 -0.7342
vn -0.9993 -0.0000 -0.0387
vn -1.0000 -0.0001 0.0072
vn -0.7010 -0.0046 0.7132
vn 0.0001 -0.7083 0.7059
vn 0.6349 -0.0050 0.7726
vn 0.9954 -0.0014 0.0960
vn 0.9176 -0.0012 -0.3975
vn 0.3675 -0.0011 -0.9300
vn 0.3676 -0.0011 -0.9300
vn -0.0000 -0.7073 -0.7069
vn -0.6785 -0.0008 -0.7346
vn -0.9992 -0.0001 -0.0396
vn -0.0000 -0.7074 -0.7069
vn -0.0001 -0.7086 -0.7057
vn 0.0001 -0.7086 -0.7057
vn -0.6633 -0.7483 0.0000
vn -0.5770 -0.5799 0.5751
vn -0.7069 -0.0017 0.7073
vn -0.0001 -0.0021 1.0000
vn 0.7064 -0.0019 0.7078
vn 1.0000 -0.0004 0.0000
vn 0.7064 -0.0005 -0.7078
vn 0.0000 -0.0003 -1.0000
vn -0.7073 -0.0009 -0.7069
vn -0.7074 -0.0009 -0.7069
vn -0.0011 0.7156 0.6985
vn 0.0001 0.7086 -0.7056
vn -0.5769 0.5783 -0.5768
vn -0.5769 0.5803 0.5749
vn 0.7064 0.7078 0.0000
vn 0.5759 0.5788 -0.5773
vn -0.0002 0.7086 -0.7056
vn 0.5759 0.5808 0.5754
vn 0.0011 0.7156 0.6985
vn -0.7020 -0.0041 0.7122
vn -1.0000 -0.0042 0.0087
vn -0.0001 -0.0020 1.0000
vn 0.6542 -0.0286 0.7558
vn 0.9930 -0.0506 0.1071
vn 0.4482 -0.0985 -0.8885
vn 0.8851 -0.1825 -0.4282
vn -0.6847 -0.0126 -0.7287
vn -0.9986 -0.0226 -0.0476
vn -0.7010 0.0010 0.7132
vn -1.0000 0.0000 0.0074
vn 0.0001 0.0011 1.0000
vn 0.6410 0.0013 0.7675
vn 0.9961 0.0003 0.0878
vn 0.3883 0.0003 -0.9215
vn 0.9263 0.0003 -0.3769
vn -0.0000 0.0002 -1.0000
vn -0.6777 0.0003 -0.7353
vn -0.9992 0.0000 -0.0404
vn -0.7009 0.0047 0.7132
vn -1.0000 0.0001 0.0073
vn 0.0001 0.7083 0.7059
vn 0.6354 0.0051 0.7722
vn 0.9955 0.0014 0.0951
vn 0.3712 0.0011 -0.9285
vn 0.9191 0.0013 -0.3941
vn -0.0000 0.7073 -0.7069
vn 0.3712 0.0012 -0.9285
vn -0.6779 0.0009 -0.7351
vn -0.9992 0.0001 -0.0401
vn -0.6779 0.0008 -0.7351
vn -0.0000 0.7074 -0.7069
vn -0.0001 0.7086 -0.7057
vn 0.5759 0.5788 -0.5774
vn -0.5769 0.5783 -0.5769
vn 0.0001 0.7086 -0.7057
vn -0.6990 0.7151 0.0000
vn 0.5759 -0.5788 -0.5774
vn -0.5770 -0.5780 -0.5771
vn -0.5768 0.5783 -0.5769
usemtl plank
s 1
f 1/1/1 2/2/2 3/3/3
f 3/3/3 4/4/4 1/1/1
f 4/4/4 3/3/3 5/5/5
f 5/5/5 6/6/6 4/4/4
f 6/6/6 5/5/5 7/7/7
f 7/7/7 8/8/8 6/6/6
f 8/8/8 7/7/7 9/9/9
f 9/9/9 10/10/10 8/8/8
f 10/10/10 9/9/9 11/11/11
f 11/11/11 12/12/11 10/10/10
f 13/13/11 14/14/11 15/15/12
f 15/15/12 16/16/12 13/13/11
f 16/16/12 15/15/12 17/17/13
f 17/17/13 18/18/13 16/16/12
f 2/2/2 1/1/1 19/19/14
f 19/19/14 20/20/13 2/2/2
f 21/21/2 2/2/2 20/20/13
f 22/22/15 3/3/3 2/2/2
f 2/2/2 21/21/2 22/22/15
f 3/3/3 22/22/15 23/23/16
f 23/23/16 5/5/5 3/3/3
f 24/24/17 7/7/7 5/5/5
f 5/5/5 23/23/16 24/24/17
f 25/25/18 9/9/9 7/7/7
f 7/7/7 24/24/17 25/25/18
f 9/9/9 25/25/18 26/26/19
f 26/26/19 11/11/11 9/9/9
f 27/27/20 15/15/12 14/14/11
f 14/14/11 28/28/21 27/27/20
f 15/15/12 27/27/20 29/29/22
f 29/29/22 17/17/13 15/15/12
f 20/20/13 30/30/23 21/21/2
f 31/31/24 32/32/25 33/33/26
f 31/31/24 33/33/26 34/34/27
f 35/35/28 31/31/24 34/34/27
f 36/36/29 37/37/30 38/38/31
f 36/36/29 38/38/31 39/39/32
f 40/40/33 36/36/29 39/39/32
f 41/41/34 22/22/15 21/21/2
f 21/21/2 42/42/35 41/41/34
f 43/43/16 23/23/16 22/22/15
f 22/22/15 41/41/34 43/43/16
f 23/23/16 43/43/16 44/44/36
f 44/44/36 24/24/17 23/23/16
f 45/45/37 25/25/18 24/24/17
f 24/24/17 44/44/36 45/45/37
f 25/25/18 45/45/37 46/46/38
f 25/25/18 46/46/38 47/47/39
f 47/47/39 26/26/19 25/25/18
f 48/48/20 27/27/20 28/28/21
f 28/28/21 49/49/40 48/48/20
f 50/50/41 29/29/22 27/27/20
f 27/27/20 48/48/20 50/50/41
f 51/51/42 21/21/2 30/30/23
f 30/30/23 52/52/41 51/51/42
f 21/21/2 51/51/42 42/42/35
f 53/53/43 42/42/35 51/51/42
f 42/42/35 53/53/43 54/54/44
f 54/54/44 41/41/34 42/42/35
f 55/55/45 43/43/16 41/41/34
f 41/41/34 54/54/44 55/55/45
f 56/56/46 44/44/36 43/43/16
f 43/43/16 55/55/45 56/56/46
f 57/57/47 45/45/37 44/44/36
f 44/44/36 56/56/46 57/57/47
f 58/58/48 46/46/38 45/45/37
f 45/45/37 57/57/47 58/58/48
f 46/46/38 58/58/48 59/59/49
f 59/59/49 47/47/39 46/46/38
f 60/60/50 48/48/20 49/49/40
f 49/49/40 61/61/51 60/60/50
f 48/48/20 60/60/50 62/62/52
f 62/62/52 50/50/41 48/48/20
f 52/52/41 63/63/53 64/64/54
f 51/51/42 64/64/54 53/53/43
f 64/64/54 51/51/42 52/52/41
f 65/65/55 53/53/43 64/64/54
f 66/66/56 54/54/44 53/53/43
f 53/53/43 65/65/55 66/66/56
f 54/54/44 66/66/56 67/67/57
f 67/67/57 55/55/45 54/54/44
f 68/68/58 56/56/46 55/55/45
f 55/55/45 67/67/57 68/68/58
f 69/69/59 57/57/47 56/56/46
f 56/56/46 68/68/58 69/69/59
f 70/70/60 58/58/48 57/57/47
f 57/57/47 69/69/59 70/70/60
f 71/71/61 59/59/49 58/58/48
f 58/58/48 70/70/60 71/71/61
f 61/61/51 72/72/62 73/73/63
f 73/73/63 60/60/50 61/61/51
f 74/74/64 62/62/52 60/60/50
f 60/60/50 73/73/63 74/74/64
f 75/75/65 64/64/54 63/63/53
f 63/63/53 76/76/64 75/75/65
f 64/64/54 75/75/65 65/65/55
f 77/77/66 36/36/29 40/40/33
f 78/78/57 33/33/26 32/32/25
f 40/40/33 78/78/57 77/77/66
f 32/32/25 77/77/66 78/78/57
f 68/68/58 67/67/57 79/79/33
f 79/79/33 80/80/32 68/68/58
f 69/69/59 68/68/58 80/80/32
f 70/70/60 69/69/59 81/81/31
f 80/80/32 81/81/31 69/69/59
f 82/82/67 73/73/63 72/72/62
f 72/72/62 83/83/30 82/82/67
f 74/74/64 73/73/63 84/84/68
f 84/84/68 85/85/24 74/74/64
f 65/65/55 75/75/65 86/86/69
f 87/87/70 66/66/56 65/65/55
f 65/65/55 86/86/69 87/87/70
f 88/88/26 67/67/57 66/66/56
f 66/66/56 87/87/70 88/88/26
f 1/1/1 4/4/4 89/89/71
f 89/89/71 90/90/1 1/1/1
f 19/19/14 1/1/1 90/90/1
f 4/4/4 6/6/6 91/91/72
f 91/91/72 89/89/71 4/4/4
f 6/6/6 8/8/8 92/92/73
f 92/92/73 91/91/72 6/6/6
f 93/93/74 92/92/73 8/8/8
f 8/8/8 10/10/10 93/93/74
f 10/10/10 12/12/11 94/94/75
f 94/94/75 93/93/74 10/10/10
f 13/13/11 16/16/12 95/95/76
f 95/95/76 96/96/75 13/13/11
f 16/16/12 18/18/13 97/97/77
f 97/97/77 95/95/76 16/16/12
f 90/90/1 98/98/78 19/19/14
f 99/99/79 100/100/80 101/101/81
f 102/102/82 99/99/79 101/101/81
f 103/103/28 102/102/82 101/101/81
f 104/104/83 105/105/84 106/106/85
f 107/107/86 104/104/83 106/106/85
f 108/108/87 107/107/86 106/106/85
f 90/90/1 89/89/71 109/109/88
f 109/109/88 110/110/89 90/90/1
f 111/111/90 109/109/88 89/89/71
f 89/89/71 91/91/72 111/111/90
f 112/112/91 92/92/73 93/93/74
f 112/112/91 111/111/90 91/91/72
f 91/91/72 92/92/73 112/112/91
f 93/93/74 113/113/92 112/112/91
f 93/93/74 94/94/75 114/114/93
f 93/93/74 115/115/94 113/113/92
f 114/114/93 115/115/94 93/93/74
f 96/96/75 95/95/76 116/116/76
f 116/116/76 117/117/93 96/96/75
f 118/118/95 116/116/76 95/95/76
f 95/95/76 97/97/77 118/118/95
f 119/119/95 98/98/78 90/90/1
f 90/90/1 110/110/89 120/120/96
f 90/90/1 120/120/96 119/119/95
f 110/110/89 109/109/88 121/121/97
f 121/121/97 122/122/98 110/110/89
f 109/109/88 111/111/90 123/123/99
f 123/123/99 121/121/97 109/109/88
f 124/124/100 123/123/99 111/111/90
f 111/111/90 112/112/91 124/124/100
f 112/112/91 113/113/92 125/125/101
f 125/125/101 124/124/100 112/112/91
f 125/125/101 113/113/92 115/115/94
f 115/115/94 114/114/93 126/126/102
f 115/115/94 127/127/103 125/125/101
f 126/126/102 127/127/103 115/115/94
f 117/117/93 116/116/76 128/128/104
f 128/128/104 129/129/102 117/117/93
f 116/116/76 118/118/95 130/130/105
f 130/130/105 128/128/104 116/116/76
f 131/131/106 120/120/96 110/110/89
f 119/119/95 120/120/96 131/131/106
f 110/110/89 122/122/98 131/131/106
f 131/131/106 132/132/105 119/119/95
f 122/122/98 121/121/97 133/133/107
f 133/133/107 134/134/108 122/122/98
f 135/135/109 133/133/107 121/121/97
f 121/121/97 123/123/99 135/135/109
f 123/123/99 124/124/100 136/136/110
f 136/136/110 135/135/109 123/123/99
f 137/137/111 136/136/110 124/124/100
f 137/137/111 125/125/101 127/127/103
f 124/124/100 125/125/101 137/137/111
f 127/127/103 126/126/102 138/138/112
f 138/138/112 139/139/113 127/127/103
f 127/127/103 139/139/113 137/137/111
f 129/129/102 128/128/104 140/140/114
f 140/140/114 141/141/115 129/129/102
f 128/128/104 130/130/105 142/142/116
f 142/142/116 140/140/114 128/128/104
f 122/122/98 134/134/108 143/143/117
f 132/132/105 131/131/106 143/143/117
f 143/143/117 131/131/106 122/122/98
f 143/143/117 144/144/118 132/132/105
f 108/108/87 106/106/85 145/145/119
f 100/100/80 99/99/79 146/146/109
f 146/146/109 145/145/119 100/100/80
f 145/145/119 146/146/109 108/108/87
f 147/147/86 136/136/110 137/137/111
f 148/148/87 135/135/109 136/136/110
f 136/136/110 147/147/86 148/148/87
f 137/137/111 139/139/113 149/149/83
f 137/137/111 149/149/83 147/147/86
f 141/141/115 140/140/114 150/150/120
f 150/150/120 151/151/121 141/141/115
f 142/142/116 152/152/122 153/153/123
f 153/153/123 140/140/114 142/142/116
f 143/143/117 134/134/108 154/154/124
f 133/133/107 135/135/109 155/155/79
f 134/134/108 133/133/107 156/156/82
f 155/155/79 156/156/82 133/133/107
f 156/156/82 154/154/124 134/134/108
f 157/157/125 71/71/61 70/70/60
f 70/70/60 81/81/31 157/157/125
f 158/158/126 86/86/69 75/75/65
f 75/75/65 76/76/64 158/158/126
f 139/139/113 138/138/112 159/159/121
f 159/159/121 149/149/83 139/139/113
f 160/160/127 144/144/118 143/143/117
f 143/143/117 154/154/124 160/160/127
