# Blender v2.77 (sub 0) OBJ File: ''
# www.blender.org
mtllib wephomura12.mtl
o 0-0-0
v 0.074302 -0.951247 0.992386
v -0.074302 -0.951247 0.992386
v 0.074302 -0.375204 0.855215
v -0.074302 -0.375204 0.855215
v 0.074302 0.244763 0.809146
v -0.074302 0.244763 0.809146
v 0.074302 0.244763 1.331840
v -0.074302 0.244763 1.331840
v 0.074302 -0.330288 1.355181
v -0.074302 -0.330288 1.355181
v 0.074302 -0.825830 1.492352
v -0.074302 -0.825830 1.492352
v 0.074302 -0.825830 1.492352
v -0.074302 -0.825830 1.492352
v 0.074302 -0.951247 0.992386
v -0.074302 -0.951247 0.992386
v -0.074302 -0.825830 1.492352
v -0.074302 -0.330288 1.355181
v -0.074302 -0.951247 0.992386
v -0.074302 -0.375204 0.855215
v -0.074302 0.244763 1.331840
v -0.074302 0.244763 0.809146
v 0.074302 -0.825830 1.492352
v 0.074302 -0.951247 0.992386
v 0.074302 -0.330288 1.355181
v 0.074302 -0.375204 0.855215
v 0.074302 0.244763 1.331840
v 0.074302 0.244763 0.809146
v 0.074302 -0.474587 -0.426724
v -0.074302 -0.474587 -0.426724
v 0.074302 -0.199279 -0.322537
v -0.074302 -0.199279 -0.322537
v 0.074302 0.185193 -0.079096
v -0.074302 0.185169 -0.079096
v 0.074302 0.370355 -0.185765
v -0.074302 0.370355 -0.185765
v 0.000000 -0.606120 0.058348
v -0.074302 -0.474587 -0.426724
v 0.074302 -0.474587 -0.426724
v -0.074302 -0.474587 -0.426724
v 0.000000 -0.606120 0.058348
v -0.074302 -0.199279 -0.322537
v 0.000000 -0.053168 0.227401
v -0.074302 0.185169 -0.079096
v 0.000000 -0.006309 0.334427
v -0.074302 0.244763 0.321779
v -0.074302 0.370355 -0.185765
v 0.074302 -0.474587 -0.426724
v 0.074302 -0.199279 -0.322537
v 0.000000 -0.606120 0.058348
v 0.000000 -0.053168 0.227401
v 0.074302 0.185193 -0.079096
v 0.000000 -0.006309 0.334427
v 0.074302 0.244763 0.321779
v 0.074302 0.370355 -0.185765
v 0.000000 -0.006309 0.334427
v 0.074302 0.244763 0.321779
v -0.074302 0.244763 0.321779
v 0.074302 0.930708 1.564535
v -0.074302 0.930708 1.564535
v 0.074302 0.930707 3.119547
v -0.074302 0.930707 3.119547
v 0.074302 0.930707 3.119547
v -0.074302 0.930707 3.119547
v 0.074302 0.465497 3.119547
v -0.074302 0.465497 3.119547
v 0.074302 0.465497 3.119547
v -0.074302 0.465497 3.119547
v 0.074302 0.465498 1.564535
v -0.074302 0.465498 1.564535
v -0.074302 0.465498 1.564535
v -0.074302 0.465497 3.119547
v -0.074302 0.930708 1.564535
v -0.074302 0.930707 3.119547
v 0.074302 0.465497 3.119547
v 0.074302 0.465498 1.564535
v 0.074302 0.930707 3.119547
v 0.074302 0.930708 1.564535
v 0.074302 0.815106 -2.313913
v -0.074302 0.815106 -2.313913
v 0.074302 0.715003 -0.668828
v -0.074302 0.715003 -0.668828
v -0.074302 -0.208333 -2.348615
v -0.074302 0.358331 -0.837696
v -0.074302 0.815106 -2.313913
v -0.074302 0.715003 -0.668828
v 0.074302 0.715003 -0.668828
v -0.074302 0.715003 -0.668828
v 0.074302 0.930707 -0.232514
v -0.074302 0.930707 -0.232514
v -0.074302 0.358331 -0.837696
v -0.074302 0.370355 -0.185765
v -0.074302 0.715003 -0.668828
v -0.074302 0.930707 -0.232514
v -0.074302 0.244763 0.321779
v -0.074302 0.465498 1.564535
v -0.074302 0.930708 1.564535
v -0.074302 0.244763 1.359180
v 0.000000 0.926956 0.426425
v 0.000000 0.926956 0.022360
v 0.000000 1.162012 0.121190
v 0.000000 1.154929 4.170985
v 0.000000 0.621516 4.162749
v 0.000000 1.173493 3.984084
v 0.000000 -0.052236 0.227401
v 0.000000 0.244763 0.317895
v 0.000000 -0.059523 0.834452
v 0.000000 0.244763 0.809146
v -0.074302 0.465498 1.564535
v 0.074302 0.244763 1.359180
v 0.074302 0.465498 1.564535
v -0.074302 0.244763 1.359180
v 0.074302 0.244763 0.321779
v -0.074302 0.244763 0.321779
v 0.074302 0.244763 0.321779
v 0.074302 0.465498 1.564535
v 0.074302 0.244763 1.359180
v 0.074302 0.370355 -0.185765
v 0.074302 0.930707 -0.232514
v 0.074302 0.930708 1.564535
v 0.074302 0.715003 -0.668828
v 0.074302 0.358331 -0.837696
v 0.074302 0.930707 -0.232514
v -0.074302 0.930707 -0.232514
v 0.074302 0.930708 1.564535
v -0.074302 0.930708 1.564535
v 0.000000 0.649884 2.638960
v -0.076808 0.714988 5.567054
v 0.076808 0.714988 5.567054
v 0.076808 0.714988 5.567054
v -0.076808 0.714988 5.567054
v 0.076808 0.561379 5.567054
v -0.076808 0.561379 5.567054
v 0.076808 0.561379 5.567054
v -0.076808 0.561379 5.567054
v 0.000000 0.649884 2.638960
v 0.000000 0.649884 2.638960
v -0.076808 0.561379 5.567054
v -0.076808 0.714988 5.567054
v 0.076808 0.561379 5.567054
v 0.076808 0.714988 5.567054
v 0.074302 0.815106 -2.313913
v 0.074302 0.715003 -0.668828
v 0.074302 0.358331 -0.837696
v 0.074302 -0.208333 -2.348615
v -0.074302 0.815106 -2.313913
v 0.074302 0.815106 -2.313913
v -0.074302 -0.208333 -2.348615
v 0.074302 -0.208333 -2.348615
v -0.074302 0.358331 -0.837696
v 0.074302 -0.208333 -2.348615
v 0.074302 0.358331 -0.837696
v -0.074302 -0.208333 -2.348615
v -0.074302 0.370355 -0.185765
v 0.074302 0.358331 -0.837696
v 0.074302 0.370355 -0.185765
v -0.074302 0.358331 -0.837696
v 0.057351 0.905702 4.274468
v 0.057351 0.905703 3.048243
v -0.057350 0.905702 4.274468
v -0.057350 0.905703 3.048243
v 0.057351 0.518565 4.274468
v 0.057351 0.518566 3.048243
v 0.057351 0.905702 4.274468
v 0.057351 0.905703 3.048243
v -0.057350 0.905702 4.274468
v -0.057350 0.905703 3.048243
v -0.057350 0.518565 4.274468
v -0.057350 0.518566 3.048243
v -0.057350 0.518565 4.274468
v -0.057350 0.518566 3.048243
v 0.057351 0.518565 4.274468
v 0.057351 0.518566 3.048243
v -0.057350 0.905702 4.274468
v -0.057350 0.518565 4.274468
v 0.057351 0.905702 4.274468
v 0.057351 0.518565 4.274468
vt 0.4851 0.1675
vt 0.5107 0.1675
vt 0.4851 0.4111
vt 0.5107 0.4150
vt 0.4851 0.6133
vt 0.5107 0.6133
vt 0.5107 0.6133
vt 0.4851 0.6133
vt 0.5107 0.4043
vt 0.4851 0.4043
vt 0.5107 0.1777
vt 0.4851 0.1777
vt 0.3972 0.1675
vt 0.3972 0.1421
vt 0.4851 0.1675
vt 0.4880 0.1421
vt 0.3972 0.1675
vt 0.3943 0.3853
vt 0.4851 0.1675
vt 0.4851 0.4111
vt 0.3943 0.6133
vt 0.4851 0.6133
vt 0.3972 0.1675
vt 0.4851 0.1675
vt 0.3943 0.3853
vt 0.4851 0.4111
vt 0.3943 0.6133
vt 0.4851 0.6133
vt 0.0085 0.3438
vt 0.0368 0.3438
vt 0.0082 0.4512
vt 0.0370 0.4512
vt 0.0082 0.6169
vt 0.0370 0.6169
vt 0.0082 0.6951
vt 0.0370 0.6951
vt 0.0226 0.1665
vt 0.0368 0.3438
vt 0.0085 0.3438
vt 0.1571 0.3564
vt 0.0648 0.3569
vt 0.1571 0.4653
vt 0.0648 0.5708
vt 0.1326 0.6265
vt 0.0482 0.5984
vt 0.0646 0.6899
vt 0.1613 0.6899
vt 0.1571 0.3564
vt 0.1571 0.4653
vt 0.0648 0.3569
vt 0.0648 0.5708
vt 0.1326 0.6265
vt 0.0482 0.5984
vt 0.0646 0.6899
vt 0.1613 0.6899
vt 0.6860 0.6040
vt 0.6719 0.6697
vt 0.6997 0.6697
vt 0.5215 0.0225
vt 0.5488 0.0225
vt 0.5215 0.5845
vt 0.5488 0.5859
vt 0.5488 0.5938
vt 0.5488 0.6394
vt 0.6343 0.5938
vt 0.6343 0.6394
vt 0.6611 0.5933
vt 0.6343 0.5864
vt 0.6611 0.0225
vt 0.6343 0.0225
vt 0.6343 0.0225
vt 0.6343 0.5864
vt 0.5488 0.0225
vt 0.5488 0.5859
vt 0.6343 0.5889
vt 0.6343 0.0225
vt 0.5488 0.5889
vt 0.5488 0.0225
vt 0.1703 0.0576
vt 0.1962 0.0576
vt 0.1703 0.6431
vt 0.1962 0.6431
vt 0.3640 0.0576
vt 0.2590 0.5864
vt 0.1962 0.0576
vt 0.1962 0.6431
vt 0.9668 0.7783
vt 0.9932 0.7783
vt 0.9668 0.9384
vt 0.9932 0.9382
vt 0.7222 0.9518
vt 0.7241 0.7124
vt 0.7876 0.8898
vt 0.8271 0.7297
vt 0.7012 0.5271
vt 0.7422 0.0693
vt 0.8271 0.0698
vt 0.7012 0.1445
vt 0.3323 0.3696
vt 0.2600 0.6191
vt 0.3459 0.6338
vt 0.3240 0.6980
vt 0.1606 0.6731
vt 0.3240 0.6431
vt 0.1587 0.0103
vt 0.1381 0.1489
vt 0.0235 0.0103
vt 0.0292 0.1489
vt 0.6943 0.0693
vt 0.6670 0.1445
vt 0.6670 0.0693
vt 0.6943 0.1445
vt 0.6670 0.5281
vt 0.6948 0.5271
vt 0.8369 0.5112
vt 0.8784 0.0552
vt 0.8369 0.1304
vt 0.8599 0.6978
vt 0.9629 0.7153
vt 0.9634 0.0557
vt 0.9229 0.8753
vt 0.8574 0.9370
vt 0.9629 0.7153
vt 0.9966 0.7156
vt 0.9634 0.0557
vt 0.9976 0.0557
vt 0.9907 0.9389
vt 0.3325 0.8973
vt 0.3325 0.9806
vt 0.1307 0.3296
vt 0.0556 0.3296
vt 0.1307 0.1719
vt 0.0556 0.1719
vt 0.3328 0.7454
vt 0.3328 0.6621
vt 0.9912 0.7039
vt 0.9912 0.8383
vt 0.3328 0.7820
vt 0.3325 0.8654
vt 0.3328 0.7820
vt 0.3325 0.8654
vt 0.1962 0.0576
vt 0.1962 0.6431
vt 0.2590 0.5864
vt 0.3640 0.0576
vt 0.1962 0.0576
vt 0.1962 0.0054
vt 0.3640 0.0576
vt 0.3638 0.0054
vt 0.3579 0.6360
vt 0.3848 0.1030
vt 0.3853 0.6360
vt 0.3574 0.1030
vt 0.3950 0.0303
vt 0.5107 0.0830
vt 0.3950 0.0830
vt 0.5107 0.0303
vt 0.2905 0.9846
vt 0.0144 0.9846
vt 0.2905 0.9335
vt 0.0144 0.9333
vt 0.2905 0.7605
vt 0.0144 0.7605
vt 0.2905 0.9335
vt 0.0144 0.9333
vt 0.2905 0.9335
vt 0.0144 0.9333
vt 0.2905 0.7605
vt 0.0144 0.7605
vt 0.2905 0.7605
vt 0.0144 0.7605
vt 0.2905 0.7134
vt 0.0144 0.7134
vt 0.2905 0.9335
vt 0.2905 0.7605
vt 0.3174 0.9335
vt 0.3174 0.7605
vn 0.0000 -0.2316 -0.9728
vn 0.0000 -0.1534 -0.9882
vn 0.0000 -0.0741 -0.9973
vn 0.0000 0.0406 0.9992
vn 0.0000 0.1547 0.9880
vn 0.0000 0.2668 0.9638
vn 0.0000 -0.9699 0.2433
vn -1.0000 0.0000 0.0000
vn 1.0000 0.0000 0.0000
vn 0.0000 0.3539 -0.9353
vn 0.0000 0.4467 -0.8947
vn 0.0000 0.0209 -0.9998
vn -0.0000 0.0210 -0.9998
vn 0.0000 -0.4991 -0.8665
vn 0.0000 -0.9651 -0.2617
vn -0.9891 -0.0520 0.1374
vn -0.9887 -0.0470 0.1426
vn -0.9873 -0.0619 0.1460
vn -0.9838 -0.1354 0.1179
vn -0.9941 -0.0859 0.0664
vn -0.9680 -0.2432 0.0613
vn -0.9739 -0.2243 0.0333
vn 0.9891 -0.0520 0.1374
vn 0.9873 -0.0619 0.1460
vn 0.9887 -0.0470 0.1426
vn 0.9838 -0.1354 0.1179
vn 0.9941 -0.0859 0.0664
vn 0.9680 -0.2432 0.0613
vn 0.9739 -0.2243 0.0333
vn 0.0000 0.0503 0.9987
vn 0.0000 1.0000 0.0000
vn 0.0000 -0.0000 1.0000
vn 0.0000 -1.0000 -0.0000
vn 0.0000 0.9982 0.0607
vn 0.0000 0.8964 -0.4432
vn 0.0000 -0.6811 0.7322
vn 0.0000 -0.9168 0.3993
vn 0.0000 0.9998 -0.0222
vn 0.0000 -0.9995 -0.0302
vn 0.0000 0.0001 -1.0000
vn -0.9997 0.0000 -0.0262
vn 0.9997 0.0000 -0.0262
vn 0.0000 0.0339 -0.9994
vn 0.0000 -0.9363 0.3512
vn 0.0000 -0.9998 0.0184
usemtl 0-0-0
s 1
f 1/1/1 2/2/1 3/3/2
f 3/3/2 2/2/1 4/4/2
f 3/3/2 4/4/2 5/5/3
f 5/5/3 4/4/2 6/6/3
f 7/7/4 8/8/4 9/9/5
f 9/9/5 8/8/4 10/10/5
f 9/9/5 10/10/5 11/11/6
f 11/11/6 10/10/5 12/12/6
f 13/13/7 14/14/7 15/15/7
f 15/15/7 14/14/7 16/16/7
f 17/17/8 18/18/8 19/19/8
f 19/19/8 18/18/8 20/20/8
f 18/18/8 21/21/8 20/20/8
f 20/20/8 21/21/8 22/22/8
f 23/23/9 24/24/9 25/25/9
f 25/25/9 24/24/9 26/26/9
f 25/25/9 26/26/9 27/27/9
f 27/27/9 26/26/9 28/28/9
f 29/29/10 30/30/10 31/31/11
f 31/31/11 30/30/10 32/32/11
f 31/31/11 32/32/11 33/33/12
f 33/33/12 32/32/11 34/34/13
f 33/33/12 34/34/13 35/35/14
f 35/35/14 34/34/13 36/36/14
f 37/37/15 38/38/15 39/39/15
f 40/40/16 41/41/17 42/42/18
f 42/42/18 41/41/17 43/43/19
f 42/42/18 43/43/19 44/44/20
f 44/44/20 43/43/19 45/45/21
f 45/45/21 46/46/22 44/44/20
f 44/44/20 46/46/22 47/47/8
f 48/48/23 49/49/24 50/50/25
f 50/50/25 49/49/24 51/51/26
f 49/49/24 52/52/27 51/51/26
f 51/51/26 52/52/27 53/53/28
f 53/53/28 52/52/27 54/54/29
f 54/54/29 52/52/27 55/55/9
f 56/56/30 57/57/30 58/58/30
f 59/59/31 60/60/31 61/61/31
f 61/61/31 60/60/31 62/62/31
f 63/63/32 64/64/32 65/65/32
f 65/65/32 64/64/32 66/66/32
f 67/67/33 68/68/33 69/69/33
f 69/69/33 68/68/33 70/70/33
f 71/71/8 72/72/8 73/73/8
f 73/73/8 72/72/8 74/74/8
f 75/75/9 76/76/9 77/77/9
f 77/77/9 76/76/9 78/78/9
f 79/79/34 80/80/34 81/81/34
f 81/81/34 80/80/34 82/82/34
f 83/83/8 84/84/8 85/85/8
f 85/85/8 84/84/8 86/86/8
f 87/87/35 88/88/35 89/89/35
f 89/89/35 88/88/35 90/90/35
f 91/91/8 92/92/8 93/93/8
f 93/93/8 92/92/8 94/94/8
f 94/94/8 92/92/8 95/95/8
f 95/95/8 96/96/8 94/94/8
f 94/94/8 96/96/8 97/97/8
f 98/98/8 96/96/8 95/95/8
f 99/99/9 100/100/9 101/101/9
f 102/102/9 103/103/9 104/104/9
f 105/105/9 106/106/9 107/107/9
f 107/107/9 106/106/9 108/108/9
f 109/109/36 110/110/37 111/111/36
f 112/112/37 110/110/37 109/109/36
f 110/110/37 112/112/37 113/113/33
f 113/113/33 112/112/37 114/114/33
f 115/115/9 116/116/9 117/117/9
f 118/118/9 119/119/9 115/115/9
f 119/119/9 116/116/9 115/115/9
f 116/116/9 119/119/9 120/120/9
f 118/118/9 121/121/9 119/119/9
f 121/121/9 118/118/9 122/122/9
f 123/123/31 124/124/31 125/125/31
f 125/125/31 124/124/31 126/126/31
f 127/127/38 128/128/38 129/129/38
f 130/130/32 131/131/32 132/132/32
f 132/132/32 131/131/32 133/133/32
f 134/134/39 135/135/39 136/136/39
f 137/137/40 138/138/41 139/139/41
f 140/140/42 137/137/40 141/141/42
f 142/142/9 143/143/9 144/144/9
f 142/142/9 144/144/9 145/145/9
f 146/146/43 147/147/43 148/148/43
f 148/148/43 147/147/43 149/149/43
f 150/150/44 151/151/44 152/152/44
f 153/153/44 151/151/44 150/150/44
f 154/154/45 155/155/45 156/156/45
f 157/157/45 155/155/45 154/154/45
f 158/158/31 159/159/31 160/160/31
f 160/160/31 159/159/31 161/161/31
f 162/162/9 163/163/9 164/164/9
f 164/164/9 163/163/9 165/165/9
f 166/166/8 167/167/8 168/168/8
f 168/168/8 167/167/8 169/169/8
f 170/170/33 171/171/33 172/172/33
f 172/172/33 171/171/33 173/173/33
f 174/174/32 175/175/32 176/176/32
f 176/176/32 175/175/32 177/177/32
