# Wavefront OBJ exported by MilkShape 3D

mtllib skMapleTreeFullMesh.mtl

v -28.628143 47.874565 271.818939
v 21.333191 -194.239349 -9.761229
v 21.333191 -194.239349 -9.761229
v 21.333191 -194.239349 -9.761229
v 21.333191 -194.239349 -9.761229
v 21.333191 -194.239349 -9.761229
v 21.333191 -194.239349 -9.761229
v 21.333191 -194.239349 -9.761229
v 21.333191 -194.239349 -9.761229
v 256.384277 77.902237 179.212769
v -32.502266 258.242645 33.608665
v -270.296173 99.013702 33.608673
v 208.891830 126.980324 -260.092529
v 8.927720 240.161499 -103.863518
v 8.825195 -139.446625 259.908844
v 8.825195 253.935196 259.908844
v 8.825195 -139.446625 -1.091185
v 8.825195 253.935196 -1.091185
v -252.174805 -139.446625 -1.091185
v 269.825195 -139.446625 -1.091185
v 8.825195 -139.446625 -262.091187
v -252.174805 253.935196 -1.091185
v 269.825195 253.935196 -1.091185
v 8.825195 253.935196 -262.091187
v -217.884079 102.548874 -80.438042
v -54.925186 86.585388 -271.818939
v -121.444519 168.743515 -259.704437
v -48.604774 245.460449 -35.527313
v -125.448746 92.579109 250.561401
v -239.224091 92.579109 46.793343
v 270.296173 153.871674 113.308144
v 81.048233 247.724609 14.173828
v 200.636642 70.387634 -197.259033
v -5.045892 70.387634 -264.295837
v 269.795319 77.774132 -41.910316
v 269.795410 77.774147 169.425140
v -64.893524 158.033890 209.679108
v -212.547607 38.259712 252.134338
v 4.047564 -194.239349 14.030399
v 4.047564 -194.239349 14.030399
v 4.047564 -194.239349 14.030399
v 4.047564 -194.239349 14.030399
v 4.047564 -194.239349 14.030399
v 4.047564 -194.239349 14.030399
v 4.047565 -194.239349 -15.377670
v 4.047565 -194.239349 -15.377670
v 4.047565 -194.239349 -15.377670
v 4.047565 -194.239349 -15.377670
v 4.047565 -194.239349 -15.377670
v 4.047565 -194.239349 -15.377670
v -3.308562 -258.242645 -30.799631
v 3.175132 -230.393311 16.715481
v 3.175132 -230.393311 16.715481
v -6.635540 -194.239349 -0.673639
v -6.635540 -194.239349 -0.673639
v -6.635540 -194.239349 -0.673639
v -6.635540 -194.239349 -0.673639
v -6.635540 -194.239349 -0.673639
v 21.333195 -194.239349 8.413952
v 21.333195 -194.239349 8.413952
v 21.333195 -194.239349 8.413952
v 21.333195 -194.239349 8.413952
v 21.333195 -194.239349 8.413952
v 36.214149 -258.242645 -18.164301
v -3.181685 -258.242645 35.823502
v -3.181685 -258.242645 35.823502
v 3.175128 -230.393311 -18.062752
v 32.623833 -257.704895 11.685493
v 8.825197 -187.343567 -0.673641
v 8.825197 -187.343567 -0.673641
v 8.825197 -187.343567 -0.673641
v -2.579079 -257.704895 12.570366
v -2.579079 -257.704895 12.570366
v 10.266816 -257.704895 -18.091522
v 10.266819 -257.704895 16.744251
v 23.617262 -230.393311 -11.420702
v -9.458805 -230.393311 -0.673628
v 23.617260 -230.393311 10.073433
v -18.129118 -257.704895 -0.673634
v 25.836082 -257.704895 -4.684992
v -2.579081 -257.704895 -13.917627
v -1.008671 -247.539459 29.591892
v -1.008676 -247.539459 -27.600914
v 32.608414 -247.539490 -16.678057
v 17.896877 -257.704895 -15.612360
v 2.320708 -258.242645 32.460808
v -5.388501 -258.242645 29.955929
v 2.320696 -258.242676 -29.070858
v 30.778912 -258.242645 -19.824230
v 35.543472 -258.242645 -13.266397
v -5.388497 -258.242645 -26.565998
# 91 vertices

vt 0.109804 0.996078
vt 0.027451 0.752941
vt 0.211765 0.752941
vt 1.000000 0.996078
vt 0.827451 0.901961
vt 0.729412 1.000000
vt 0.839216 0.752941
vt 0.619608 1.000000
vt 0.647059 0.752941
vt 0.474510 0.752941
vt 0.537255 1.000000
vt 0.474510 0.898039
vt 0.392157 1.000000
vt 0.364706 1.000000
vt 0.329412 0.752941
vt 0.294118 0.898039
vt 0.188235 0.996078
vt 0.027451 0.423529
vt 0.211765 0.423529
vt 0.647059 0.423529
vt 0.839216 0.423529
vt 0.470588 0.423529
vt 0.329412 0.423529
vt 0.545098 0.498039
vt 0.447059 0.498039
vt 0.478431 0.588235
vt 0.368627 0.556863
vt 0.368627 0.443137
vt 0.478431 0.411765
vt 0.988235 1.000000
vt 0.878431 1.000000
vt 0.498039 1.000000
vt 0.329412 1.000000
vt 0.831373 1.000000
vt 0.458824 1.000000
vt 0.431373 1.000000
vt 0.290196 1.000000
vt 0.250980 1.000000
vt 0.796078 1.000000
vt 1.000000 1.000000
vt 0.501961 1.000000
vt 0.498039 0.000000
vt 0.000000 0.000000
vt 0.000000 1.000000
vt 1.000000 0.000000
vt 0.741176 1.000000
vt 0.211765 1.000000
vt 0.474510 0.003922
vt 0.552941 0.003922
vt 0.749020 0.984314
vt 0.219608 0.984314
vt 0.494118 0.000000
vt 0.552941 0.000000
vt 0.556863 0.019608
vt 1.000000 0.019608
vt 0.870588 1.000000
vt 0.741176 0.988235
vt 0.219608 0.949020
vt 0.549020 0.003922
vt 0.494118 0.003922
vt 1.000000 0.027451
vt 0.556863 0.015686
vt 0.858824 1.000000
vt 0.800000 0.996078
vt 0.000000 0.058824
vt 0.431373 0.015686
vt 0.176471 1.000000
# 67 texture coordinates

vn -0.939862 0.214367 0.265905
vn -0.754845 0.112209 0.646234
vn -0.987506 0.153100 -0.037313
vn -0.648257 0.021062 0.761131
vn 0.120635 0.587198 0.800404
vn 0.585147 0.214558 0.782028
vn -0.035941 0.283355 0.958341
vn 0.945390 0.191158 0.264000
vn 0.788258 0.148555 0.597144
vn 0.761668 0.168833 -0.625586
vn 0.906144 0.227895 0.356324
vn 0.706480 0.540344 -0.457072
vn 0.034608 0.174218 -0.984099
vn 0.576150 0.150449 -0.803378
vn -0.181138 0.185615 -0.965783
vn -0.621396 0.469075 -0.627563
vn -0.920320 0.244615 -0.305245
vn -0.807407 0.063051 0.586616
vn -0.969117 0.075678 -0.234702
vn 0.646078 0.075678 0.759510
vn 0.308402 0.063050 0.949164
vn 0.921986 0.075678 -0.379755
vn -0.076259 0.075678 -0.994212
vn -0.000000 -0.000000 -1.000000
vn -0.269560 -0.488945 -0.829620
vn 0.125875 -0.913277 -0.387402
vn -0.329544 -0.913277 -0.239428
vn -0.587785 -0.000000 -0.809017
vn -0.125875 0.913277 -0.387402
vn -0.962859 0.225419 -0.148621
vn -0.934344 0.330990 0.132085
vn 0.827853 0.363263 0.427434
vn 0.569294 0.243706 -0.785183
vn -0.276155 0.524844 0.805156
vn 0.788444 0.337063 -0.514533
vn 0.000779 0.281894 -0.959445
vn -0.363983 0.337636 -0.868054
vn -0.922551 0.365572 -0.123515
vn 0.675862 0.379578 0.631768
vn 1.000000 0.000000 0.000000
vn 0.707107 0.000000 -0.707107
vn -0.653676 -0.178005 -0.735542
vn -0.665990 -0.176049 -0.724889
vn 0.942450 -0.198743 -0.268866
vn 0.504843 -0.056986 -0.861328
vn 0.444537 -0.048406 -0.894451
vn 0.516813 -0.362148 0.775727
vn 0.746465 -0.013055 0.665297
vn 0.836677 0.338476 0.430588
vn 0.936406 0.096672 -0.337340
vn 0.934529 0.096205 -0.342638
vn 0.338721 0.100347 -0.935520
vn -0.042694 0.077633 -0.996067
vn -0.048322 0.072165 -0.996221
vn -0.037063 0.083096 -0.995852
vn 0.262435 -0.666736 0.697560
vn 0.290629 -0.678799 0.674364
vn 0.233853 -0.653688 0.719725
vn 0.231870 -0.662232 -0.712520
vn -0.639315 -0.588171 -0.495309
vn -0.650076 -0.582693 -0.487719
vn -0.660705 -0.577097 -0.480030
vn -0.683040 -0.622901 0.381380
vn -0.665406 -0.613034 0.425938
vn -0.646180 -0.601700 0.469477
vn 0.738348 -0.674420 -0.000000
# 66 normals

g material_0
usemtl material_0
s 1
f 79/1/1 52/2/2 77/3/3
f 79/1/1 73/4/4 52/2/2
f 82/5/5 75/6/6 53/7/7
f 75/6/6 68/8/8 78/9/9
f 68/8/8 76/10/10 78/9/9
f 68/8/8 80/11/11 76/10/10
f 84/12/12 85/13/13 76/10/10
f 85/13/13 74/14/14 67/15/15
f 83/16/16 81/17/17 67/15/15
f 81/17/17 79/1/1 77/3/3
f 77/3/3 41/18/18 56/19/19
f 77/3/3 52/2/2 41/18/18
f 53/7/7 61/20/20 42/21/21
f 53/7/7 78/9/9 61/20/20
f 78/9/9 6/22/22 61/20/20
f 78/9/9 76/10/10 6/22/22
f 76/10/10 47/23/23 6/22/22
f 76/10/10 67/15/15 47/23/23
f 67/15/15 56/19/19 47/23/23
f 67/15/15 77/3/3 56/19/19
f 55/24/24 69/25/25 40/26/26
f 40/26/26 69/25/25 60/27/27
f 60/27/27 69/25/25 5/28/28
f 69/25/25 5/28/28 48/29/29
f 69/25/25 48/29/29 55/24/24
f 53/7/7 72/30/30 87/31/31
f 84/12/12 80/11/11 90/32/32
f 83/16/16 67/15/15 88/33/33
f 53/7/7 75/6/6 78/9/9
f 76/10/10 85/13/13 67/15/15
f 67/15/15 81/17/17 77/3/3
f 87/31/31 65/34/34 82/5/5
f 64/35/35 89/36/36 84/12/12
f 51/37/37 91/38/38 83/16/16
f 53/7/7 87/31/31 82/5/5
f 76/10/10 80/11/11 84/12/12
f 67/15/15 74/14/14 88/33/33
f 82/5/5 86/39/39 75/6/6
f 84/12/12 89/36/36 85/13/13
f 83/16/16 91/38/38 81/17/17
f 88/33/33 51/37/37 83/16/16
f 90/32/32 64/35/35 84/12/12
f 65/34/34 86/39/39 82/5/5
# 43 triangles in group

g material 2
usemtl material 2
f 24/40/40 18/41/41 17/42/41
f 20/43/24 17/42/41 18/41/41
f 18/41/41 23/44/24 20/43/24
f 17/42/41 19/45/24 22/40/24
f 22/40/24 18/41/41 17/42/41
f 15/43/40 17/42/41 18/41/41
f 18/41/41 16/44/40 15/43/40
f 17/42/41 21/45/40 24/40/40
# 8 triangles in group

g None
usemtl None
f 14/46/42 13/47/43 7/48/42
f 7/48/42 71/49/44 14/46/42
f 32/46/45 31/47/46 62/48/45
f 62/48/45 71/49/44 32/46/45
f 37/46/47 38/47/48 71/49/44
f 43/48/49 71/49/44 38/47/48
f 27/46/50 28/47/51 50/49/51
f 70/48/52 50/49/51 28/47/51
f 12/46/53 11/47/54 70/48/52
f 70/48/52 58/49/55 12/46/53
f 10/50/56 1/51/57 44/52/56
f 44/52/56 63/53/58 10/50/56
f 34/54/59 33/55/59 3/56/59
f 3/56/59 45/39/59 34/54/59
f 25/57/60 26/58/61 57/59/61
f 49/60/62 57/59/61 26/58/61
f 29/61/63 30/62/64 39/63/64
f 54/64/65 39/63/64 30/62/64
f 35/65/66 36/66/66 2/67/66
f 59/47/66 2/67/66 36/66/66
# 20 triangles in group

# 71 triangles total

