# Blender v2.77 (sub 0) OBJ File: ''
# www.blender.org
mtllib School Chair.mtl
o chair_school
v -0.149181 2.083732 -0.307423
v -0.124511 2.081045 -0.322406
v -0.125355 2.076411 -0.351007
v -0.150869 2.074465 -0.364627
v -0.174694 2.081785 -0.321044
v -0.175538 2.077151 -0.349646
v 0.132611 2.019591 -0.363046
v 0.159863 2.029057 -0.319641
v 0.158986 2.024247 -0.349333
v 0.134364 2.029211 -0.303666
v 0.107113 2.019746 -0.347073
v 0.107989 2.024556 -0.317381
v -0.306670 -0.000000 0.444101
v -0.274487 0.727442 0.375984
v -0.249075 0.727442 0.360268
v -0.313207 -0.000000 0.448143
v -0.273623 0.727442 0.406051
v -0.312984 -0.000000 0.455878
v -0.306226 -0.000000 0.459569
v -0.247349 0.727442 0.420403
v -0.299690 -0.000000 0.455526
v -0.221938 0.727442 0.404685
v -0.299912 -0.000000 0.447792
v -0.222801 0.727442 0.374619
v 0.207271 -0.000000 0.404856
v 0.216103 0.727442 0.325297
v 0.241714 0.727442 0.309519
v 0.201899 -0.000000 0.408166
v 0.216966 0.727442 0.355363
v 0.202080 -0.000000 0.414472
v 0.207633 -0.000000 0.417469
v 0.243441 0.727442 0.369653
v 0.213005 -0.000000 0.414160
v 0.269052 0.727442 0.353874
v 0.212824 -0.000000 0.407853
v 0.268189 0.727442 0.323807
v -0.212443 -0.000000 -0.094138
v -0.205937 -0.000000 -0.106190
v -0.205710 -0.000000 -0.098284
v -0.212897 -0.000000 -0.109946
v -0.219630 -0.000000 -0.105797
v -0.219403 -0.000000 -0.097893
v 0.274991 -0.000000 -0.109922
v 0.269416 -0.000000 -0.119519
v 0.274799 -0.000000 -0.116609
v 0.269323 -0.000000 -0.106402
v 0.263462 -0.000000 -0.109570
v 0.263271 -0.000000 -0.116257
v 0.268939 -0.000000 -0.119776
v 0.212772 0.776831 -0.107786
v 0.228408 0.777679 -0.117494
v 0.227878 0.777470 -0.135938
v 0.211713 0.776413 -0.144675
v 0.196077 0.775564 -0.134969
v 0.196606 0.775773 -0.116525
v -0.190952 0.766713 -0.097521
v -0.208014 0.766671 -0.106728
v -0.208571 0.766474 -0.126105
v -0.192064 0.766320 -0.136275
v -0.175002 0.766362 -0.127067
v -0.174446 0.766559 -0.107687
v -0.157604 1.885123 -0.202268
v -0.168376 1.890740 -0.195036
v -0.172035 1.884524 -0.199975
v -0.180011 1.896777 -0.200336
v -0.160044 1.891085 -0.196360
v -0.151148 1.897975 -0.204921
v -0.172981 1.897814 -0.195244
v -0.173556 1.909629 -0.202989
v -0.164309 1.898447 -0.194350
v -0.169254 1.905234 -0.196776
v -0.159124 1.910228 -0.205282
v -0.156317 1.898506 -0.197892
v -0.160922 1.905580 -0.198100
v -0.157006 1.566388 -0.155639
v -0.172179 1.574299 -0.145454
v -0.177331 1.565544 -0.152409
v -0.188565 1.582801 -0.152917
v -0.160444 1.574785 -0.147318
v -0.147915 1.584489 -0.159375
v -0.178664 1.584261 -0.145747
v -0.179473 1.600901 -0.156654
v -0.166450 1.585153 -0.144487
v -0.173415 1.594712 -0.147904
v -0.159148 1.601745 -0.159883
v -0.155195 1.585235 -0.149475
v -0.161681 1.595199 -0.149768
v 0.135705 1.912630 -0.208867
v 0.147023 1.917624 -0.215714
v 0.132411 1.917025 -0.215668
v 0.125624 1.904173 -0.214039
v 0.144142 1.912976 -0.208894
v 0.154849 1.905371 -0.214131
v 0.131787 1.905210 -0.207927
v 0.148660 1.905902 -0.207980
v 0.140219 1.905843 -0.205709
v 0.144742 1.898481 -0.207040
v 0.148062 1.892519 -0.212502
v 0.136305 1.898136 -0.207013
v 0.133450 1.891920 -0.212456
v 0.144258 1.593917 -0.157183
v 0.130908 1.585698 -0.165420
v 0.149115 1.586448 -0.163548
v 0.157783 1.602546 -0.164681
v 0.133746 1.593485 -0.158263
v 0.121369 1.601047 -0.168424
v 0.149263 1.603212 -0.157837
v 0.148244 1.617895 -0.167686
v 0.138449 1.603137 -0.156123
v 0.128239 1.602345 -0.159998
v 0.133244 1.611639 -0.160652
v 0.130037 1.617144 -0.169557
v 0.143755 1.612072 -0.159572
v -0.335261 0.717415 0.480183
v -0.295183 0.772853 -0.093730
v -0.295544 0.706889 -0.092511
v -0.334838 0.813381 0.478966
v 0.351762 0.713966 0.467500
v 0.292732 0.769405 -0.109723
v 0.352186 0.809932 0.466283
v 0.292372 0.703441 -0.108504
v -0.306987 1.929833 -0.263426
v -0.275981 1.486555 -0.121411
v -0.310903 1.942548 -0.181451
v -0.272236 1.473894 -0.201914
v 0.235137 1.439962 -0.127293
v 0.317495 1.942475 -0.285971
v 0.330899 1.954809 -0.205203
v 0.221775 1.427349 -0.207854
v -0.163381 0.795330 0.507108
v -0.099211 0.754802 -0.099061
v 0.007668 0.794755 0.521497
v -0.001225 0.754227 -0.101727
v 0.096761 0.753653 -0.104392
v 0.178716 0.794180 0.506657
v 0.096400 0.704590 -0.103173
v -0.001586 0.705165 -0.100508
v -0.099572 0.705740 -0.097842
v 0.155283 1.988567 -0.224808
v 0.149337 1.977054 -0.297737
v 0.000763 2.001391 -0.225937
v -0.000843 1.989924 -0.299488
v -0.149071 1.975090 -0.291064
v -0.149194 1.986923 -0.216879
v -0.151252 1.474132 -0.140474
v -0.149675 1.462078 -0.215885
v -0.030086 1.463013 -0.144612
v -0.031646 1.450957 -0.219358
v 0.090733 1.438451 -0.220411
v 0.099651 1.450506 -0.144429
v -0.163994 0.716266 0.508319
v 0.007055 0.715691 0.522708
v 0.178103 0.715116 0.507868
vt 0.8730 0.0977
vt 0.9346 0.1333
vt 0.9346 0.2046
vt 0.8730 0.2402
vt 0.8110 0.1333
vt 0.8110 0.2046
vt 0.7197 0.2178
vt 0.7837 0.1069
vt 0.7837 0.1812
vt 0.7197 0.0703
vt 0.6558 0.1812
vt 0.6558 0.1069
vt -0.0083 0.2090
vt 0.7407 0.2236
vt 0.7432 0.2544
vt -0.0091 0.1958
vt 0.7393 0.1929
vt -0.0098 0.1826
vt -0.0094 0.1699
vt 0.7402 0.1621
vt -0.0087 0.1567
vt 0.7432 0.1318
vt -0.0085 0.1436
vt 0.7441 0.1011
vt 0.7412 0.0703
vt -0.0098 0.1304
vt 0.4207 0.1235
vt 0.4177 0.1289
vt 0.4177 0.1255
vt 0.4207 0.1309
vt 0.4236 0.1255
vt 0.4236 0.1289
vt 0.0963 0.1460
vt 0.8320 0.1685
vt 0.8330 0.1987
vt 0.0959 0.1328
vt 0.8301 0.1382
vt 0.0952 0.1201
vt 0.0952 0.1074
vt 0.8301 0.1079
vt 0.0958 0.0947
vt 0.8325 0.0776
vt 0.0961 0.0815
vt 0.8345 0.0474
vt 0.8330 0.0171
vt 0.0955 0.0688
vt 0.4590 0.1602
vt 0.4590 0.1650
vt 0.4575 0.1626
vt 0.4619 0.1650
vt 0.4619 0.1602
vt 0.4634 0.1626
vt 0.4812 0.1333
vt 0.4783 0.1387
vt 0.4783 0.1353
vt 0.4812 0.1406
vt 0.4844 0.1387
vt 0.4844 0.1353
vt 0.5317 0.1455
vt 0.5361 0.1479
vt 0.5332 0.1479
vt 0.5332 0.1426
vt 0.5361 0.1426
vt 0.5376 0.1455
vt 0.5361 0.1479
vt 0.2537 0.1406
vt 1.4766 0.1519
vt 1.4746 0.1812
vt 0.2549 0.1196
vt -0.6445 0.1201
vt -0.6450 0.1045
vt -0.6445 0.0889
vt 0.2571 0.0981
vt 1.4775 0.1235
vt -0.6431 0.0732
vt 1.4766 0.0952
vt -0.6421 0.0581
vt 0.2585 0.0771
vt -0.6406 0.0425
vt 0.2581 0.0557
vt 1.4766 0.0669
vt 1.4766 0.0386
vt 0.2566 0.0342
vt -0.6411 0.0269
vt 0.2556 0.0132
vt 1.4775 0.0093
vt -0.6421 0.0112
vt 1.5850 0.0400
vt 0.2754 0.0273
vt 1.5850 0.0112
vt 0.2761 0.0503
vt -0.6260 0.0488
vt -0.6260 0.0645
vt -0.6255 0.0806
vt 0.2781 0.0732
vt 1.5850 0.0684
vt -0.6250 0.0962
vt 1.5859 0.0962
vt 0.2798 0.0962
vt -0.6245 0.1118
vt 0.2793 0.1191
vt 1.5859 0.1240
vt 1.5859 0.1523
vt 0.2773 0.1416
vt -0.6250 0.1274
vt 0.2754 0.1646
vt 1.5850 0.1807
vt -0.6260 0.1431
vt 0.6216 0.4653
vt 0.5659 0.5718
vt 0.5005 0.5337
vt 0.5005 0.6736
vt 0.6240 0.5422
vt 0.7432 0.5383
vt 0.5684 0.6353
vt 0.6221 0.7466
vt 0.6216 0.6060
vt 0.6196 0.6697
vt 0.7432 0.6782
vt 0.6753 0.5767
vt 0.6777 0.6401
vt 0.4893 0.2451
vt 0.3196 0.2544
vt 0.3196 0.1479
vt 0.1499 0.2446
vt 0.3979 0.3037
vt 0.4893 0.4448
vt 0.2412 0.3032
vt 0.1494 0.4443
vt 0.3193 0.3472
vt 0.2451 0.3906
vt 0.3191 0.5459
vt 0.3938 0.3906
vt 0.3193 0.4390
vt 0.2173 0.7295
vt 0.2700 0.8398
vt 0.1494 0.7677
vt 0.1498 0.6260
vt 0.2700 0.7639
vt 0.3906 0.7681
vt 0.2146 0.6677
vt 0.3228 0.7295
vt 0.2700 0.6985
vt 0.3257 0.6677
vt 0.3906 0.6262
vt 0.2703 0.6328
vt 0.2703 0.5571
vt 0.7168 0.2344
vt 0.5879 0.1479
vt 0.7612 0.1489
vt 0.8501 0.3003
vt 0.6348 0.2300
vt 0.5005 0.2983
vt 0.7539 0.3057
vt 0.7632 0.4541
vt 0.6743 0.3018
vt 0.5977 0.2993
vt 0.6313 0.3687
vt 0.5859 0.4541
vt 0.7104 0.3726
vt 0.5718 0.8665
vt 0.9731 0.8203
vt 0.9731 0.8665
vt 0.5713 0.7993
vt -0.0682 -0.0088
vt 0.3333 0.0581
vt -0.0720 0.0581
vt 0.3357 0.0122
vt 0.2065 0.1660
vt 0.0013 0.1289
vt 0.2075 0.1289
vt 0.0003 0.1655
vt 0.3137 0.5198
vt 0.6816 0.4624
vt 0.6836 0.5198
vt 0.3118 0.4624
vt 0.4207 0.6487
vt 0.3816 0.2485
vt 0.5015 0.2266
vt 0.5581 0.6494
vt 0.6206 0.2134
vt 0.6265 0.6494
vt 0.6948 0.6494
vt 0.7402 0.2202
vt 0.8628 0.2441
vt 0.8325 0.6487
vt 1.1943 0.0615
vt 1.0576 0.0273
vt 1.1943 0.0156
vt 1.0576 0.0615
vt 0.9893 0.0273
vt 0.9888 0.0615
vt 0.9204 0.0273
vt 0.9204 0.0615
vt 0.7837 0.0615
vt 0.7837 0.0156
vt 0.7627 0.5149
vt 0.8877 0.5012
vt 0.8799 0.5586
vt 0.7603 0.5667
vt 0.6543 0.5181
vt 0.6548 0.5701
vt 0.5508 0.5693
vt 0.5488 0.5168
vt 0.4348 0.5588
vt 0.4302 0.5012
vt 0.2913 0.6807
vt 0.2036 0.6929
vt 0.2076 0.6360
vt 0.2937 0.6272
vt 0.3762 0.6787
vt 0.3765 0.6257
vt 0.4624 0.6260
vt 0.4673 0.6797
vt 0.5542 0.6357
vt 0.5620 0.6929
vt 0.4138 -0.3066
vt 0.2947 0.0186
vt 0.3254 -0.3018
vt 0.4087 0.0552
vt 0.4988 -0.3125
vt 0.5132 0.0679
vt 0.6216 0.0610
vt 0.5894 -0.3193
vt 0.6851 -0.3271
vt 0.7451 0.0376
vt 0.9023 0.5652
vt 0.4805 0.6455
vt 0.5034 0.5266
vt 0.9023 0.7021
vt 0.4673 0.7648
vt 0.9023 0.7706
vt 0.9023 0.8391
vt 0.4744 0.8845
vt 0.4993 1.0064
vt 0.9023 0.9760
vt 0.2097 0.2910
vt 0.3340 0.2358
vt 0.3340 0.3032
vt 0.2096 0.2358
vt 0.0898 0.2905
vt 0.0897 0.2354
vt -0.0301 0.2905
vt -0.0302 0.2354
vt -0.1515 0.2358
vt -0.1515 0.3032
vt 0.2297 0.5308
vt 0.3152 0.8662
vt 0.2297 0.8529
vt 0.3433 0.5051
vt 0.3970 0.8798
vt 0.4475 0.5020
vt 0.5513 0.5190
vt 0.4814 0.8948
vt 0.5723 0.9108
vt 0.6665 0.5530
vn 0.0102 0.9870 -0.1602
vn -0.0922 0.9834 -0.1566
vn -0.0921 0.9834 -0.1566
vn -0.0291 -0.1122 -0.9933
vn -0.8630 -0.0042 -0.5053
vn -0.8629 -0.0042 -0.5053
vn -0.8967 0.0038 -0.4426
vn -0.8549 0.0814 0.5123
vn -0.8450 0.0819 0.5285
vn 0.0014 0.0537 0.9986
vn -0.4724 0.0855 0.8772
vn 0.8646 -0.0575 0.4992
vn -0.4724 0.0856 0.8772
vn 0.5260 0.0032 0.8505
vn 0.8943 -0.0647 0.4427
vn 0.8493 -0.1412 -0.5087
vn 0.8394 -0.1418 -0.5248
vn 0.8393 -0.1418 -0.5248
vn 0.0000 -1.0000 0.0000
vn -0.0300 -0.1285 -0.9913
vn -0.8626 -0.0406 -0.5043
vn -0.8957 -0.0330 -0.4434
vn -0.8597 0.0588 0.5074
vn -0.8402 0.0610 0.5389
vn 0.0128 0.0650 0.9978
vn -0.8401 0.0610 0.5389
vn -0.4692 0.0809 0.8794
vn 0.8660 -0.0253 0.4994
vn 0.5243 0.0301 0.8510
vn 0.8953 -0.0322 0.4444
vn 0.8952 -0.0322 0.4444
vn 0.8549 -0.1233 -0.5040
vn 0.8354 -0.1254 -0.5351
vn 0.8548 -0.1233 -0.5040
vn 0.0254 0.0785 0.9966
vn 0.8820 0.1218 0.4552
vn 0.0294 0.1563 0.9873
vn 0.8664 0.0927 0.4907
vn 0.0299 0.0039 0.9995
vn 0.8822 0.0574 0.4673
vn 0.8593 0.0392 -0.5099
vn 0.8621 0.0011 -0.5067
vn 0.8519 -0.0423 -0.5219
vn 0.4755 0.0068 -0.8797
vn -0.0155 -0.1739 -0.9846
vn -0.0065 -0.0325 -0.9994
vn -0.0065 -0.0325 -0.9995
vn 0.1672 -0.0702 -0.9834
vn -0.8743 -0.0872 -0.4774
vn -0.5117 -0.1801 -0.8401
vn -0.8847 -0.1129 -0.4522
vn -0.8747 -0.1416 -0.4636
vn -0.8474 0.0250 0.5304
vn -0.8415 -0.0194 0.5399
vn -0.8474 0.0251 0.5304
vn -0.8404 -0.0676 0.5378
vn -0.8496 0.1057 0.5167
vn 0.0293 0.0787 0.9965
vn 0.0291 0.1564 0.9873
vn -0.8401 0.0640 0.5387
vn 0.0287 0.0036 0.9996
vn -0.8508 0.0187 0.5252
vn -0.8845 0.0004 -0.4665
vn -0.8899 -0.0256 -0.4555
vn -0.8779 -0.0589 -0.4752
vn -0.0378 -0.0333 -0.9987
vn -0.0226 -0.1711 -0.9850
vn -0.0308 -0.1045 -0.9940
vn 0.8506 -0.0486 -0.5235
vn 0.8594 -0.0832 -0.5045
vn 0.8507 -0.0486 -0.5235
vn 0.8516 -0.1195 -0.5104
vn 0.8818 0.0432 0.4697
vn 0.8702 0.0106 0.4926
vn 0.8749 -0.0298 0.4834
vn 0.4921 -0.5028 0.7107
vn -0.1217 -0.3856 0.9146
vn -0.2057 -0.5317 0.8216
vn -0.5914 0.0607 0.8041
vn 0.4921 -0.5027 0.7107
vn 0.4295 -0.3628 0.8270
vn 0.8042 0.1186 0.5824
vn -0.5913 0.0607 0.8041
vn -0.4263 0.0823 0.9008
vn -0.2792 0.6821 0.6759
vn 0.1505 0.1268 0.9804
vn -0.1798 0.5731 0.7995
vn 0.4185 0.7111 0.5650
vn 0.6760 0.1281 0.7257
vn 0.3714 0.5960 0.7119
vn -0.1217 -0.3857 0.9146
vn 0.4271 -0.4380 0.7910
vn 0.7672 -0.2648 0.5842
vn -0.5913 0.0607 0.8042
vn 0.0956 0.1550 0.9833
vn 0.4052 -0.0149 0.9141
vn 0.7881 0.2546 0.5604
vn -0.3006 0.5731 0.7623
vn 0.3267 0.7111 0.6226
vn -0.3799 0.6821 0.6249
vn -0.7080 0.0607 0.7036
vn 0.3266 0.7110 0.6227
vn -0.3007 0.5731 0.7623
vn 0.2575 0.5960 0.7606
vn 0.7050 0.1186 0.6992
vn -0.3006 0.5732 0.7623
vn -0.5598 0.0823 0.8245
vn 0.5563 0.1281 0.8210
vn -0.0021 0.1268 0.9919
vn 0.5564 0.1281 0.8210
vn 0.5563 0.1281 0.8211
vn 0.2971 -0.3628 0.8832
vn 0.3769 -0.5028 0.7779
vn -0.2609 -0.3857 0.8850
vn -0.2609 -0.3856 0.8850
vn -0.3296 -0.5317 0.7801
vn -0.3296 -0.5317 0.7802
vn 0.2024 -0.3628 0.9096
vn -0.4100 -0.5317 0.7411
vn 0.2928 -0.5028 0.8133
vn 0.6274 0.1186 0.7696
vn -0.3527 -0.3856 0.8526
vn -0.7782 0.0607 0.6251
vn 0.4667 0.1281 0.8751
vn 0.2592 0.7111 0.6536
vn -0.1066 0.1268 0.9862
vn -0.6436 0.0823 0.7610
vn -0.3793 0.5731 0.7264
vn -0.6435 0.0823 0.7610
vn -0.4436 0.6821 0.5814
vn 0.1759 0.5960 0.7835
vn -0.9976 0.0035 -0.0693
vn -0.9976 0.0042 -0.0693
vn -0.9976 0.0039 -0.0693
vn 0.9947 -0.0057 -0.1023
vn 0.9947 -0.0072 -0.1024
vn 0.9947 -0.0070 -0.1024
vn 0.9947 -0.0058 -0.1023
vn 0.9947 -0.0073 -0.1024
vn -0.9961 -0.0809 -0.0347
vn -0.9962 -0.0805 -0.0337
vn -0.9961 -0.0809 -0.0350
vn -0.9961 -0.0809 -0.0349
vn 0.9711 -0.2002 -0.1299
vn 0.9710 -0.2004 -0.1305
vn 0.9711 -0.2002 -0.1302
vn 0.9711 -0.2001 -0.1297
vn 0.0942 0.9939 -0.0579
vn 0.1146 0.9915 -0.0622
vn 0.0588 0.9962 -0.0635
vn 0.0438 0.9972 -0.0614
vn 0.0033 0.9978 -0.0657
vn 0.0041 0.9979 -0.0649
vn -0.0383 0.9973 -0.0627
vn 0.0032 0.9978 -0.0657
vn -0.0517 0.9969 -0.0592
vn -0.0985 0.9937 -0.0539
vn -0.0816 0.9948 -0.0616
vn -0.0260 -0.0193 -0.9995
vn -0.0272 -0.0240 -0.9993
vn -0.0257 -0.0183 -0.9995
vn -0.0273 -0.0246 -0.9993
vn -0.0272 -0.0241 -0.9993
vn -0.0274 -0.0243 -0.9993
vn -0.0286 -0.0193 -0.9994
vn -0.0275 -0.0240 -0.9993
vn -0.0286 -0.0192 -0.9994
vn -0.0289 -0.0183 -0.9994
vn 0.1505 0.9742 -0.1679
vn 0.2051 0.9619 -0.1809
vn 0.2062 0.9622 -0.1781
vn 0.1505 0.9743 -0.1679
vn 0.1432 0.9759 -0.1647
vn -0.0107 0.9878 -0.1556
vn -0.0105 0.9880 -0.1538
vn -0.1966 0.9683 -0.1539
vn -0.2072 0.9658 -0.1558
vn -0.2945 0.9425 -0.1578
vn -0.2937 0.9424 -0.1602
vn -0.0804 -0.9847 0.1549
vn -0.0750 -0.9856 0.1515
vn -0.0757 -0.9853 0.1529
vn -0.0757 -0.9853 0.1530
vn -0.0819 -0.9843 0.1566
vn -0.0921 -0.9827 0.1607
vn -0.0935 -0.9826 0.1604
vn -0.0975 -0.9813 0.1659
vn -0.0970 -0.9811 0.1675
vn -0.0982 -0.9807 0.1689
vn -0.0976 -0.9813 0.1660
vn -0.0970 -0.9811 0.1676
vn -0.0982 -0.9807 0.1691
vn -0.0978 -0.9806 0.1698
vn 0.1038 0.1448 0.9840
vn 0.1723 0.1440 0.9745
vn 0.1633 0.1411 0.9764
vn 0.1724 0.1440 0.9744
vn 0.1013 0.1460 0.9841
vn 0.0288 0.1470 0.9887
vn 0.0244 0.1479 0.9887
vn -0.0376 0.1556 0.9871
vn -0.0494 0.1526 0.9871
vn -0.1052 0.1592 0.9816
vn -0.0784 0.1634 0.9834
vn -0.0061 -0.9998 0.0169
vn -0.0067 -0.9998 0.0172
vn -0.0096 -0.9998 0.0177
vn -0.0066 -0.9998 0.0172
vn -0.0060 -0.9998 0.0169
vn -0.0054 -0.9998 0.0168
vn -0.0055 -0.9998 0.0169
vn -0.0035 -0.9998 0.0171
vn -0.0054 -0.9998 0.0170
vn -0.0048 -0.9998 0.0177
vn -0.0048 -0.9998 0.0178
vn -0.0018 -0.9998 0.0175
vn -0.0034 -0.9998 0.0171
vn -0.0032 -0.9998 0.0179
vn -0.0022 -0.9998 0.0175
vn -0.0031 -0.9998 0.0178
vn -0.0053 -0.9998 0.0188
vn 0.1590 0.0136 0.9872
vn 0.2258 0.0117 0.9741
vn 0.2257 0.0114 0.9741
vn 0.2259 0.0118 0.9741
vn 0.1566 0.0139 0.9876
vn 0.0016 0.0153 0.9999
vn 0.0011 0.0153 0.9999
vn -0.1239 0.0156 0.9922
vn -0.1230 0.0162 0.9923
vn -0.1610 0.0141 0.9869
vn -0.1606 0.0132 0.9869
vn -0.1298 -0.1434 -0.9811
vn -0.0826 -0.1438 -0.9862
vn -0.1256 -0.1420 -0.9819
vn -0.0802 -0.1443 -0.9863
vn -0.0306 -0.1428 -0.9893
vn -0.0205 -0.1459 -0.9891
vn 0.0193 -0.1507 -0.9884
vn 0.0292 -0.1452 -0.9890
vn 0.0733 -0.1515 -0.9857
vn 0.0369 -0.1565 -0.9870
usemtl metal_2_Inst
s 1
f 1/1/1 2/2/1 3/3/1
f 1/1/1 3/3/1 4/4/1
f 1/1/1 4/4/1 5/5/1
f 5/5/1 4/4/1 6/6/1
f 7/7/2 8/8/2 9/9/2
f 8/8/2 7/7/2 10/10/2
f 11/11/3 10/10/3 7/7/3
f 10/10/3 11/11/3 12/12/3
f 13/13/4 14/14/5 15/15/4
f 14/14/6 13/13/4 16/16/7
f 16/16/7 17/17/8 14/14/6
f 17/17/8 16/16/7 18/18/9
f 19/19/10 17/17/8 18/18/9
f 17/17/8 19/19/10 20/20/11
f 21/21/12 20/20/13 19/19/10
f 20/20/14 21/21/14 22/22/15
f 22/22/15 21/21/12 23/23/16
f 22/22/15 23/23/16 24/24/17
f 23/23/16 15/25/4 24/24/18
f 15/25/4 23/23/16 13/26/4
f 19/27/19 23/28/19 21/29/19
f 23/28/19 19/27/19 13/30/19
f 18/31/19 13/30/19 19/27/19
f 13/30/19 18/31/19 16/32/19
f 25/33/20 26/34/21 27/35/20
f 26/34/21 25/33/20 28/36/22
f 28/36/22 29/37/23 26/34/21
f 29/37/23 28/36/22 30/38/24
f 31/39/25 29/37/23 30/38/26
f 29/37/23 31/39/25 32/40/27
f 33/41/28 32/40/27 31/39/25
f 32/40/29 33/41/29 34/42/30
f 34/42/31 33/41/28 35/43/32
f 34/42/30 35/43/32 36/44/33
f 35/43/34 27/45/20 36/44/33
f 27/45/20 35/43/34 25/46/20
f 31/47/19 35/48/19 33/49/19
f 35/48/19 31/47/19 25/50/19
f 30/51/19 25/50/19 31/47/19
f 25/50/19 30/51/19 28/52/19
f 37/53/19 38/54/19 39/55/19
f 38/54/19 37/53/19 40/56/19
f 37/53/19 41/57/19 40/56/19
f 37/53/19 42/58/19 41/57/19
f 43/59/19 44/60/19 45/61/19
f 46/62/19 44/60/19 43/59/19
f 47/63/19 44/60/19 46/62/19
f 48/64/19 44/60/19 47/63/19
f 44/60/19 48/64/19 49/65/19
f 50/66/35 8/67/36 10/68/37
f 8/67/36 50/66/35 51/69/38
f 46/70/39 51/69/38 50/66/35
f 51/69/38 46/70/39 43/71/40
f 51/69/38 43/71/40 45/72/41
f 8/67/36 51/69/38 52/73/42
f 51/69/38 45/72/41 52/73/42
f 8/67/36 52/73/42 9/74/43
f 52/73/42 45/72/41 44/75/44
f 52/73/42 7/76/45 9/74/43
f 49/77/46 52/73/42 44/75/44
f 49/77/47 53/78/48 52/73/42
f 7/76/45 52/73/42 53/78/48
f 53/78/48 49/77/47 48/79/49
f 7/76/50 53/78/50 54/80/51
f 48/79/49 54/80/51 53/78/48
f 54/80/51 11/81/52 7/76/45
f 54/80/51 12/82/53 11/81/52
f 48/79/49 55/83/54 54/80/51
f 12/82/55 54/80/51 55/83/54
f 55/83/54 48/79/49 47/84/56
f 50/85/35 12/82/55 55/83/54
f 47/84/56 50/85/35 55/83/54
f 12/82/55 50/85/35 10/86/37
f 50/85/35 47/84/56 46/87/39
f 5/88/57 56/89/58 1/90/59
f 56/89/58 5/88/57 57/91/60
f 57/91/60 37/92/61 56/89/58
f 37/92/61 57/91/60 42/93/62
f 57/91/60 41/94/63 42/93/62
f 5/88/57 58/95/64 57/91/60
f 41/94/63 57/91/60 58/95/64
f 58/95/64 5/88/57 6/96/65
f 58/95/64 40/97/66 41/94/63
f 58/95/64 6/96/65 4/98/67
f 40/97/66 58/95/64 59/99/68
f 4/98/67 59/99/68 58/95/64
f 59/99/68 38/100/69 40/97/66
f 4/98/67 60/101/70 59/99/68
f 38/100/71 59/99/68 60/101/70
f 60/101/70 4/98/67 3/102/72
f 2/103/73 60/101/70 3/102/72
f 61/104/74 38/100/69 60/101/70
f 2/103/73 61/104/74 60/101/70
f 61/104/74 39/105/75 38/100/69
f 2/103/73 56/106/58 61/104/74
f 56/106/58 39/105/75 61/104/74
f 56/106/58 2/103/73 1/107/59
f 39/105/75 56/106/58 37/108/61
f 62/109/76 63/110/77 64/111/78
f 63/110/77 65/112/79 64/111/78
f 63/110/77 62/109/80 66/113/81
f 67/114/82 66/113/81 62/109/76
f 65/112/83 63/110/77 68/115/84
f 68/115/84 69/116/85 65/112/83
f 66/113/81 70/117/86 63/110/77
f 63/110/77 70/117/86 68/115/84
f 69/116/85 68/115/84 71/118/87
f 68/115/84 70/117/86 71/118/87
f 71/118/87 72/119/88 69/116/85
f 73/120/89 70/117/86 66/113/81
f 66/113/81 67/114/82 73/120/89
f 71/118/87 70/117/86 74/121/90
f 74/121/90 70/117/86 73/120/89
f 72/119/88 71/118/87 74/121/90
f 67/114/82 74/121/90 73/120/89
f 74/121/90 67/114/82 72/119/88
f 75/122/76 76/123/91 77/124/78
f 76/123/91 78/125/83 77/124/78
f 76/123/91 75/122/76 79/126/92
f 80/127/93 79/126/92 75/122/76
f 78/125/94 76/123/91 81/128/84
f 81/128/84 82/129/85 78/125/83
f 79/126/92 83/130/95 76/123/91
f 76/123/91 83/130/95 81/128/84
f 82/129/85 81/128/84 84/131/87
f 81/128/84 83/130/95 84/131/87
f 84/131/87 85/132/88 82/129/85
f 86/133/89 83/130/96 79/126/96
f 79/126/92 80/127/97 86/133/89
f 84/131/87 83/130/95 87/134/90
f 87/134/90 83/130/95 86/133/89
f 85/132/88 84/131/87 87/134/90
f 80/127/97 87/134/90 86/133/89
f 87/134/90 80/127/97 85/132/88
f 88/135/98 89/136/99 90/137/100
f 91/138/101 88/135/98 90/137/100
f 89/136/102 88/135/103 92/139/104
f 92/139/104 93/140/105 89/136/99
f 88/135/106 91/138/101 94/141/107
f 93/140/105 92/139/104 95/142/108
f 88/135/98 96/143/109 92/139/104
f 92/139/104 96/143/109 95/142/110
f 94/141/107 96/143/109 88/135/98
f 95/142/111 97/144/112 93/140/105
f 95/142/108 96/143/109 97/144/112
f 98/145/113 93/140/105 97/144/112
f 99/146/114 96/143/109 94/141/107
f 97/144/112 96/143/109 99/146/114
f 91/138/101 99/146/114 94/141/107
f 99/146/115 98/145/113 97/144/112
f 99/146/114 91/138/101 100/147/116
f 98/145/113 99/146/114 100/147/117
f 101/148/118 102/149/119 103/150/120
f 103/150/120 104/151/121 101/148/118
f 102/149/119 101/148/118 105/152/122
f 105/152/122 106/153/123 102/149/119
f 104/151/121 107/154/124 101/148/118
f 108/155/125 107/154/124 104/151/121
f 101/148/118 109/156/126 105/152/122
f 107/154/124 109/156/126 101/148/118
f 106/153/123 105/152/122 110/157/127
f 105/152/122 109/156/126 110/157/127
f 111/158/128 106/153/123 110/157/127
f 110/157/129 109/156/126 111/158/128
f 106/153/123 111/158/128 112/159/130
f 111/158/128 108/155/125 112/159/130
f 113/160/131 109/156/126 107/154/124
f 111/158/128 109/156/126 113/160/131
f 107/154/124 108/155/125 113/160/131
f 108/155/125 111/158/128 113/160/131
usemtl wood_green_old_Inst
f 114/161/132 115/162/133 116/163/133
f 115/162/134 114/161/132 117/164/132
f 118/165/135 119/166/136 120/167/135
f 119/166/137 118/165/138 121/168/139
f 122/169/140 123/170/141 124/171/142
f 123/170/141 122/169/143 125/172/141
f 126/173/144 127/174/145 128/175/145
f 127/174/146 126/173/147 129/176/147
f 115/177/148 117/178/149 130/179/150
f 130/179/150 131/180/151 115/177/148
f 131/180/151 130/179/150 132/181/152
f 132/181/152 133/182/153 131/180/151
f 132/181/152 134/183/154 133/182/153
f 134/183/154 132/181/155 135/184/156
f 134/183/154 135/184/156 120/185/157
f 120/185/157 119/186/158 134/183/154
f 121/187/159 134/188/160 119/189/161
f 121/187/159 136/190/162 134/188/163
f 136/190/162 133/191/162 134/188/163
f 136/190/162 137/192/162 133/191/162
f 137/192/162 131/193/164 133/191/162
f 137/192/162 138/194/162 131/193/164
f 116/195/165 131/193/164 138/194/162
f 131/193/166 116/195/167 115/196/168
f 139/197/169 128/198/170 127/199/171
f 139/197/172 127/199/171 140/200/173
f 141/201/174 139/197/172 140/200/173
f 141/201/174 140/200/173 142/202/175
f 143/203/176 141/201/174 142/202/175
f 141/201/174 143/203/176 144/204/177
f 122/205/178 144/204/177 143/203/176
f 144/204/177 122/205/178 124/206/179
f 145/207/180 123/208/181 125/209/182
f 145/207/180 125/209/183 146/210/184
f 145/207/180 146/210/184 147/211/185
f 147/211/185 146/210/184 148/212/186
f 149/213/187 147/211/185 148/212/186
f 147/211/185 149/213/187 150/214/188
f 129/215/189 150/214/188 149/213/190
f 150/214/191 129/215/192 126/216/193
f 145/217/194 124/218/195 123/219/196
f 124/218/197 145/217/194 144/220/198
f 147/221/199 144/220/198 145/217/194
f 144/220/198 147/221/199 141/222/200
f 147/221/199 139/223/201 141/222/200
f 139/223/201 147/221/199 150/224/202
f 126/225/203 139/223/201 150/224/202
f 139/223/201 126/225/203 128/226/204
f 116/227/205 151/228/206 114/229/207
f 151/228/208 116/227/209 138/230/210
f 138/230/211 152/231/212 151/228/206
f 152/231/212 138/230/213 137/232/213
f 152/231/212 137/232/213 136/233/214
f 136/233/215 153/234/216 152/231/217
f 136/233/215 118/235/218 153/234/219
f 118/235/220 136/233/215 121/236/221
f 135/237/222 118/238/223 120/239/224
f 118/238/225 135/237/222 153/240/226
f 132/241/227 153/240/226 135/237/222
f 153/240/226 132/241/227 152/242/228
f 130/243/229 152/242/228 132/241/227
f 152/242/228 130/243/229 151/244/230
f 130/243/229 114/245/231 151/244/230
f 130/243/229 117/246/232 114/245/231
f 122/247/233 146/248/234 125/249/235
f 146/248/234 122/247/233 143/250/236
f 143/250/236 148/251/237 146/248/234
f 148/251/237 143/250/236 142/252/238
f 148/251/237 142/252/238 140/253/239
f 140/253/239 149/254/240 148/251/237
f 140/253/239 129/255/241 149/254/240
f 129/255/241 140/253/239 127/256/242
