# 3ds Max Wavefront OBJ Exporter v0.97b - (c)2007 guruware
# File Created: 17.02.2018 10:53:27

mtllib Pillar_03_tile.mtl

#
# object Pillar_03_tile
#

v  -20.0000 256.0000 -55.6362
v  -27.6806 256.0000 -55.6362
v  -27.6806 256.0000 -47.7264
v  -11.5215 256.0020 -67.6485
v  -20.0000 256.0020 -67.6485
v  0.0000 256.0040 -79.9997
v  -11.5215 256.0040 -79.9997
v  0.0000 256.0000 0.0363
v  -28.0059 256.0000 -7.3802
v  -40.0000 256.0020 -40.0119
v  -40.0000 256.0020 -47.7264
v  -28.0059 256.0000 0.0363
v  -52.0000 256.0020 -40.0119
v  -52.0000 256.0020 -26.4436
v  -40.0000 256.0020 -15.2381
v  -40.0000 256.0020 -7.3802
v  -52.0000 256.0020 -15.2381
v  11.5215 256.0020 -67.6485
v  11.5215 256.0040 -79.9997
v  20.0000 256.0000 -55.6362
v  27.6806 256.0000 -47.7264
v  27.6806 256.0000 -55.6362
v  20.0000 256.0020 -67.6485
v  40.0000 256.0020 -40.0119
v  40.0000 256.0020 -47.7264
v  28.0059 256.0000 0.0363
v  28.0059 256.0000 -7.3802
v  40.0000 256.0020 -15.2381
v  52.0000 256.0020 -26.4436
v  52.0000 256.0020 -40.0119
v  52.0000 256.0020 -15.2381
v  40.0000 256.0020 -7.3802
v  -40.0000 -0.0040 -15.2381
v  -52.0000 0.0000 -15.2381
v  -52.0000 0.0000 -26.4436
v  -28.0059 0.0000 -7.3802
v  -40.0000 -0.0040 -7.3802
v  0.0000 0.0000 0.0363
v  -28.0059 0.0000 0.0363
v  -27.6806 0.0000 -47.7264
v  -40.0000 -0.0040 -40.0119
v  -52.0000 0.0000 -40.0119
v  -40.0000 -0.0040 -47.7264
v  -11.5215 -0.0040 -67.6485
v  -11.5215 -0.0079 -79.9997
v  0.0000 -0.0079 -79.9997
v  -20.0000 0.0000 -55.6362
v  -27.6806 0.0000 -55.6362
v  -20.0000 -0.0040 -67.6485
v  11.5215 -0.0079 -79.9997
v  11.5215 -0.0040 -67.6485
v  28.0059 0.0000 -7.3802
v  28.0059 0.0000 0.0363
v  20.0000 0.0000 -55.6362
v  20.0000 -0.0040 -67.6485
v  40.0000 -0.0040 -15.2381
v  40.0000 -0.0040 -7.3802
v  52.0000 0.0000 -26.4436
v  52.0000 0.0000 -15.2381
v  40.0000 -0.0040 -40.0119
v  27.6806 0.0000 -47.7264
v  27.6806 0.0000 -55.6362
v  52.0000 0.0000 -40.0119
v  40.0000 -0.0040 -47.7264
v  -40.0000 192.0000 -15.2381
v  -52.0000 192.0079 -15.2381
v  -40.0000 73.2256 -15.2381
v  -52.0000 73.2335 -15.2381
v  -28.0059 192.0000 -7.3802
v  -40.0000 192.0000 -7.3802
v  -28.0059 73.2256 -7.3802
v  -40.0000 73.2256 -7.3802
v  -52.0000 192.0079 -26.4436
v  -52.0000 73.2335 -26.4436
v  -52.0000 73.2335 -40.0119
v  -52.0000 192.0079 -40.0119
v  -40.0000 73.2256 -40.0119
v  -40.0000 192.0000 -40.0119
v  -40.0000 192.0000 -47.7264
v  -40.0000 73.2256 -47.7264
v  -28.0059 192.0000 0.0363
v  -28.0059 73.2256 0.0363
v  -27.6806 192.0000 -47.7264
v  -27.6806 192.0000 -55.6362
v  -27.6806 73.2256 -47.7264
v  -27.6806 73.2256 -55.6362
v  -11.5215 191.9999 -67.6485
v  -11.5215 191.9999 -79.9997
v  -11.5215 73.2256 -67.6485
v  -11.5215 73.2256 -79.9997
v  -20.0000 191.9999 -55.6362
v  -20.0000 191.9999 -67.6485
v  -20.0000 73.2256 -55.6362
v  -20.0000 73.2256 -67.6485
v  11.5215 191.9999 -79.9997
v  0.0000 191.9999 -79.9997
v  11.5215 73.2256 -79.9997
v  0.0000 73.2256 -79.9997
v  0.0000 192.0000 0.0363
v  0.0000 73.2256 0.0363
v  28.0059 73.2256 0.0363
v  28.0059 192.0000 0.0363
v  11.5215 73.2256 -67.6485
v  11.5215 191.9999 -67.6485
v  20.0000 73.2256 -67.6485
v  20.0000 73.2256 -55.6362
v  20.0000 191.9999 -67.6485
v  20.0000 191.9999 -55.6362
v  27.6806 73.2256 -55.6362
v  27.6806 192.0000 -55.6362
v  52.0000 73.2335 -15.2381
v  40.0000 73.2256 -15.2381
v  52.0000 192.0079 -15.2381
v  40.0000 192.0000 -15.2381
v  40.0000 73.2256 -7.3802
v  28.0059 73.2256 -7.3802
v  40.0000 192.0000 -7.3802
v  28.0059 192.0000 -7.3802
v  52.0000 192.0079 -26.4436
v  52.0000 73.2335 -26.4436
v  52.0000 73.2335 -40.0119
v  52.0000 192.0079 -40.0119
v  40.0000 73.2256 -47.7264
v  40.0000 73.2256 -40.0119
v  40.0000 192.0000 -47.7264
v  40.0000 192.0000 -40.0119
v  27.6806 73.2256 -47.7264
v  27.6806 192.0000 -47.7264
# 128 vertices

vn -0.0001 1.0000 -0.0000
vn 0.0000 1.0000 -0.0000
vn 0.0000 1.0000 0.0001
vn 0.0000 1.0000 0.0002
vn 0.0001 1.0000 0.0001
vn 0.0002 1.0000 -0.0000
vn 0.0001 1.0000 -0.0000
vn -0.0002 1.0000 -0.0000
vn 0.0001 -1.0000 -0.0000
vn -0.0003 -1.0000 -0.0000
vn 0.0003 -1.0000 -0.0000
vn 0.0000 -1.0000 -0.0000
vn -0.0002 -1.0000 0.0002
vn 0.0000 -1.0000 0.0003
vn 0.0000 -1.0000 0.0002
vn -0.0001 -1.0000 0.0001
vn 0.0002 -1.0000 0.0002
vn -0.0001 -1.0000 -0.0000
vn 0.0001 -1.0000 0.0001
vn 0.0000 0.0000 1.0000
vn -1.0000 0.0000 -0.0000
vn 0.0000 0.0000 -1.0000
vn 1.0000 0.0000 -0.0000
# 23 vertex normals

vt 0.8363 0.6491 0.6491
vt 0.8363 0.6599 0.6599
vt 0.8252 0.6599 0.6599
vt 0.8531 0.6373 0.6373
vt 0.8531 0.6491 0.6491
vt 0.8704 0.6211 0.6211
vt 0.8704 0.6373 0.6373
vt 0.7583 0.6211 0.6211
vt 0.7687 0.6603 0.6603
vt 0.8144 0.6771 0.6771
vt 0.8252 0.6771 0.6771
vt 0.7583 0.6603 0.6603
vt 0.8144 0.6939 0.6939
vt 0.7954 0.6939 0.6939
vt 0.7797 0.6771 0.6771
vt 0.7687 0.6771 0.6771
vt 0.7797 0.6939 0.6939
vt 0.8531 0.6050 0.6050
vt 0.8704 0.6050 0.6050
vt 0.8363 0.5931 0.5931
vt 0.8252 0.5824 0.5824
vt 0.8363 0.5824 0.5824
vt 0.8531 0.5931 0.5931
vt 0.8144 0.5651 0.5651
vt 0.8252 0.5651 0.5651
vt 0.7583 0.5819 0.5819
vt 0.7687 0.5819 0.5819
vt 0.7797 0.5651 0.5651
vt 0.7954 0.5483 0.5483
vt 0.8144 0.5483 0.5483
vt 0.7797 0.5483 0.5483
vt 0.7687 0.5651 0.5651
vt 0.4857 0.4503 0.4503
vt 0.4857 0.5845 0.5845
vt 0.4606 0.5845 0.5845
vt 0.4606 0.4504 0.4504
vt 0.4857 0.2014 0.2014
vt 0.4606 0.2014 0.2014
vt 0.4857 0.0479 0.0479
vt 0.4606 0.0479 0.0479
vt 0.0127 0.4255 0.4255
vt 0.0128 0.2914 0.2914
vt 0.0379 0.2914 0.2914
vt 0.0378 0.4255 0.4255
vt 0.0126 0.6745 0.6745
vt 0.0378 0.6745 0.6745
vt 0.0126 0.8280 0.8280
vt 0.0378 0.8280 0.8280
vt 0.0544 0.2914 0.2914
vt 0.0543 0.4255 0.4255
vt 0.0543 0.6745 0.6745
vt 0.0543 0.8280 0.8280
vt 0.4370 0.4504 0.4504
vt 0.4370 0.2014 0.2014
vt 0.4370 0.0479 0.0479
vt 0.4086 0.0479 0.0479
vt 0.4086 0.2014 0.2014
vt 0.4086 0.4504 0.4504
vt 0.4370 0.5845 0.5845
vt 0.4086 0.5845 0.5845
vt 0.3835 0.2014 0.2014
vt 0.3835 0.0479 0.0479
vt 0.3835 0.4503 0.4503
vt 0.3835 0.5845 0.5845
vt 0.1062 0.4255 0.4255
vt 0.1063 0.2914 0.2914
vt 0.1224 0.2914 0.2914
vt 0.1224 0.4255 0.4255
vt 0.1062 0.6745 0.6745
vt 0.1224 0.6745 0.6745
vt 0.1062 0.8280 0.8280
vt 0.1224 0.8280 0.8280
vt 0.0764 0.5855 0.5855
vt 0.0764 0.7197 0.7197
vt 0.0920 0.7197 0.7197
vt 0.0919 0.5855 0.5855
vt 0.0765 0.3366 0.3366
vt 0.0919 0.3366 0.3366
vt 0.0765 0.1831 0.1831
vt 0.0919 0.1831 0.1831
vt 0.1774 0.5854 0.5854
vt 0.1772 0.7196 0.7196
vt 0.1936 0.7197 0.7197
vt 0.1937 0.5855 0.5855
vt 0.1780 0.3365 0.3365
vt 0.1940 0.3366 0.3366
vt 0.1784 0.1830 0.1830
vt 0.1942 0.1831 0.1831
vt 0.4957 0.4502 0.4502
vt 0.4958 0.5844 0.5844
vt 0.5216 0.5844 0.5844
vt 0.5216 0.4502 0.4502
vt 0.4956 0.2013 0.2013
vt 0.5216 0.2013 0.2013
vt 0.4955 0.0478 0.0478
vt 0.5216 0.0478 0.0478
vt 0.3674 0.4256 0.4256
vt 0.3673 0.2914 0.2914
vt 0.3421 0.2914 0.2914
vt 0.3422 0.4256 0.4256
vt 0.3674 0.6745 0.6745
vt 0.3422 0.6745 0.6745
vt 0.3675 0.8280 0.8280
vt 0.3423 0.8280 0.8280
vt 0.3244 0.2914 0.2914
vt 0.3244 0.4256 0.4256
vt 0.3244 0.6745 0.6745
vt 0.3244 0.8280 0.8280
vt 0.5458 0.5844 0.5844
vt 0.5699 0.5844 0.5844
vt 0.5699 0.4502 0.4502
vt 0.5458 0.4502 0.4502
vt 0.5699 0.2013 0.2013
vt 0.5458 0.2013 0.2013
vt 0.5699 0.0478 0.0478
vt 0.5458 0.0478 0.0478
vt 0.1483 0.6745 0.6745
vt 0.1483 0.8280 0.8280
vt 0.1483 0.4255 0.4255
vt 0.1483 0.2914 0.2914
vt 0.6751 0.5907 0.5907
vt 0.7339 0.5907 0.5907
vt 0.7338 0.4565 0.4565
vt 0.6751 0.4565 0.4565
vt 0.7337 0.2076 0.2076
vt 0.6751 0.2076 0.2076
vt 0.7337 0.0541 0.0541
vt 0.6751 0.0541 0.0541
vt 0.6166 0.0541 0.0541
vt 0.6165 0.2076 0.2076
vt 0.6164 0.4565 0.4565
vt 0.6164 0.5907 0.5907
vt 0.5960 0.0478 0.0478
vt 0.5959 0.2013 0.2013
vt 0.5959 0.4502 0.4502
vt 0.5958 0.5844 0.5844
vt 0.2330 0.8280 0.8280
vt 0.2582 0.8280 0.8280
vt 0.2583 0.6745 0.6745
vt 0.2330 0.6745 0.6745
vt 0.2583 0.4256 0.4256
vt 0.2331 0.4256 0.4256
vt 0.2584 0.2914 0.2914
vt 0.2332 0.2914 0.2914
vt 0.2761 0.8280 0.8280
vt 0.2761 0.6745 0.6745
vt 0.2761 0.4256 0.4256
vt 0.2761 0.2914 0.2914
vt 0.2095 0.1831 0.1831
vt 0.2095 0.3366 0.3366
vt 0.2095 0.5856 0.5856
vt 0.2095 0.7197 0.7197
vt 0.3096 0.5855 0.5855
vt 0.3095 0.7197 0.7197
vt 0.2934 0.7197 0.7197
vt 0.2934 0.5856 0.5856
vt 0.3096 0.3366 0.3366
vt 0.2934 0.3366 0.3366
vt 0.3096 0.1831 0.1831
vt 0.2934 0.1831 0.1831
# 160 texture coords

g Pillar_03_tile
usemtl _Pillar_03_tilePillar_03_Diffuse_shader
s 1
f 1/1/1 2/2/2 3/3/2 
s 2
f 4/4/3 5/5/4 1/1/4 
s 3
f 6/6/5 7/7/4 4/4/3 
s 4
f 4/4/1 8/8/2 6/6/1 
s 5
f 8/8/2 4/4/3 1/1/1 
s 6
f 9/9/2 8/8/2 1/1/1 
s 7
f 1/1/1 3/3/2 9/9/2 
s 8
f 9/9/6 3/3/6 10/10/7 
s 9
f 3/3/2 11/11/6 10/10/7 
s 10
f 9/9/2 12/12/2 8/8/2 
s 11
f 10/10/7 13/13/2 14/14/2 
s 12
f 14/14/2 15/15/7 10/10/7 
s 13
f 10/10/7 15/15/7 9/9/2 
s 14
f 15/15/7 16/16/6 9/9/2 
s 15
f 14/14/2 17/17/2 15/15/7 
s 16
f 18/18/5 19/19/4 6/6/4 
s 17
f 18/18/5 6/6/5 8/8/2 
s 18
f 20/20/7 18/18/5 8/8/2 
s 19
f 21/21/1 20/20/7 8/8/2 
s 20
f 21/21/1 22/22/2 20/20/7 
s 21
f 20/20/7 23/23/4 18/18/5 
s 22
f 24/24/1 25/25/8 21/21/1 
s 23
f 8/8/2 26/26/2 27/27/1 
s 24
f 8/8/2 27/27/1 21/21/1 
s 25
f 21/21/1 27/27/1 28/28/1 
s 26
f 28/28/1 24/24/1 21/21/1 
s 27
f 28/28/1 29/29/2 24/24/1 
s 28
f 29/29/2 30/30/2 24/24/1 
s 29
f 28/28/1 31/31/2 29/29/2 
s 30
f 27/27/1 32/32/8 28/28/1 
s 31
f 33/28/9 34/31/10 35/29/10 
s 32
f 36/27/9 37/32/11 33/28/11 
s 33
f 38/8/12 39/26/12 36/27/9 
s 34
f 38/8/12 36/27/9 40/21/9 
s 35
f 40/21/9 36/27/9 33/28/9 
s 36
f 33/28/9 41/24/9 40/21/9 
s 37
f 33/28/9 35/29/10 41/24/9 
s 38
f 35/29/10 42/30/10 41/24/9 
s 39
f 41/24/9 43/25/11 40/21/9 
s 40
f 44/18/13 45/19/14 46/6/15 
s 41
f 44/18/13 46/6/15 38/8/12 
s 42
f 47/20/16 44/18/13 38/8/12 
s 43
f 40/21/9 47/20/16 38/8/12 
s 44
f 40/21/9 48/22/12 47/20/16 
s 45
f 47/20/16 49/23/14 44/18/13 
s 46
f 46/6/15 50/7/14 51/4/17 
s 47
f 51/4/17 38/8/12 46/6/15 
s 48
f 52/9/18 53/12/12 38/8/12 
s 49
f 52/9/18 38/8/12 54/1/19 
s 50
f 38/8/12 51/4/17 54/1/19 
s 51
f 51/4/17 55/5/14 54/1/19 
s 52
f 56/15/18 57/16/10 52/9/18 
s 53
f 58/14/11 59/17/11 56/15/18 
s 54
f 58/14/11 56/15/18 60/10/18 
s 55
f 60/10/18 56/15/18 52/9/18 
s 56
f 52/9/18 61/3/18 60/10/18 
s 57
f 54/1/19 61/3/18 52/9/18 
s 58
f 54/1/19 62/2/12 61/3/18 
s 59
f 60/10/18 63/13/11 58/14/11 
s 60
f 61/3/18 64/11/10 60/10/18 
s 61
f 65/33/20 15/34/20 17/35/20 
s 62
f 17/35/20 66/36/20 65/33/20 
s 63
f 67/37/20 65/33/20 66/36/20 
s 64
f 66/36/20 68/38/20 67/37/20 
s 65
f 33/39/20 67/37/20 68/38/20 
s 66
f 68/38/20 34/40/20 33/39/20 
s 67
f 69/41/20 9/42/20 16/43/20 
s 68
f 16/43/20 70/44/20 69/41/20 
s 69
f 71/45/20 69/41/20 70/44/20 
s 70
f 70/44/20 72/46/20 71/45/20 
s 71
f 36/47/20 71/45/20 72/46/20 
s 72
f 72/46/20 37/48/20 36/47/20 
s 73
f 70/44/21 16/43/21 15/49/21 
s 74
f 15/49/21 65/50/21 70/44/21 
s 75
f 72/46/21 70/44/21 65/50/21 
s 76
f 65/50/21 67/51/21 72/46/21 
s 77
f 37/48/21 72/46/21 67/51/21 
s 78
f 67/51/21 33/52/21 37/48/21 
s 79
f 68/38/21 66/36/21 73/53/21 
s 80
f 73/53/21 74/54/21 68/38/21 
s 81
f 34/40/21 68/38/21 74/54/21 
s 82
f 74/54/21 35/55/21 34/40/21 
s 83
f 42/56/21 35/55/21 74/54/21 
s 84
f 74/54/21 75/57/21 42/56/21 
s 85
f 75/57/21 74/54/21 73/53/21 
s 86
f 73/53/21 76/58/21 75/57/21 
s 87
f 76/58/21 73/53/21 14/59/21 
s 88
f 14/59/21 13/60/21 76/58/21 
s 89
f 66/36/21 17/35/21 14/59/21 
s 90
f 14/59/21 73/53/21 66/36/21 
s 91
f 77/61/22 41/62/22 42/56/22 
s 92
f 42/56/22 75/57/22 77/61/22 
s 93
f 78/63/22 77/61/22 75/57/22 
s 94
f 75/57/22 76/58/22 78/63/22 
s 95
f 10/64/22 78/63/22 76/58/22 
s 96
f 76/58/22 13/60/22 10/64/22 
s 97
f 78/65/21 10/66/21 11/67/21 
s 98
f 11/67/21 79/68/21 78/65/21 
s 99
f 77/69/21 78/65/21 79/68/21 
s 100
f 79/68/21 80/70/21 77/69/21 
s 101
f 41/71/21 77/69/21 80/70/21 
s 102
f 80/70/21 43/72/21 41/71/21 
s 103
f 81/73/21 12/74/21 9/75/21 
s 104
f 9/75/21 69/76/21 81/73/21 
s 105
f 82/77/21 81/73/21 69/76/21 
s 106
f 69/76/21 71/78/21 82/77/21 
s 107
f 39/79/21 82/77/21 71/78/21 
s 108
f 71/78/21 36/80/21 39/79/21 
s 109
f 83/81/21 3/82/21 2/83/21 
s 110
f 2/83/21 84/84/21 83/81/21 
s 111
f 85/85/21 83/81/21 84/84/21 
s 112
f 84/84/21 86/86/21 85/85/21 
s 113
f 40/87/21 85/85/21 86/86/21 
s 114
f 86/86/21 48/88/21 40/87/21 
s 115
f 87/89/21 4/90/21 7/91/21 
s 116
f 7/91/21 88/92/21 87/89/21 
s 117
f 89/93/21 87/89/21 88/92/21 
s 118
f 88/92/21 90/94/21 89/93/21 
s 119
f 44/95/21 89/93/21 90/94/21 
s 120
f 90/94/21 45/96/21 44/95/21 
s 121
f 91/97/21 1/98/21 5/99/21 
s 122
f 5/99/21 92/100/21 91/97/21 
s 123
f 93/101/21 91/97/21 92/100/21 
s 124
f 92/100/21 94/102/21 93/101/21 
s 125
f 47/103/21 93/101/21 94/102/21 
s 126
f 94/102/21 49/104/21 47/103/21 
s 127
f 92/100/22 5/99/22 4/105/22 
s 128
f 4/105/22 87/106/22 92/100/22 
s 129
f 94/102/22 92/100/22 87/106/22 
s 130
f 87/106/22 89/107/22 94/102/22 
s 131
f 49/104/22 94/102/22 89/107/22 
s 132
f 89/107/22 44/108/22 49/104/22 
s 133
f 6/109/22 19/110/22 95/111/22 
s 134
f 95/111/22 96/112/22 6/109/22 
s 135
f 96/112/22 95/111/22 97/113/22 
s 136
f 97/113/22 98/114/22 96/112/22 
s 137
f 98/114/22 97/113/22 50/115/22 
s 138
f 50/115/22 46/116/22 98/114/22 
s 139
f 98/114/22 46/116/22 45/96/22 
s 140
f 45/96/22 90/94/22 98/114/22 
s 141
f 96/112/22 98/114/22 90/94/22 
s 142
f 90/94/22 88/92/22 96/112/22 
s 143
f 6/109/22 96/112/22 88/92/22 
s 144
f 88/92/22 7/91/22 6/109/22 
s 145
f 85/117/22 40/118/22 43/72/22 
s 146
f 43/72/22 80/70/22 85/117/22 
s 147
f 83/119/22 85/117/22 80/70/22 
s 148
f 80/70/22 79/68/22 83/119/22 
s 149
f 3/120/22 83/119/22 79/68/22 
s 150
f 79/68/22 11/67/22 3/120/22 
s 151
f 8/121/20 12/122/20 81/123/20 
s 152
f 81/123/20 99/124/20 8/121/20 
s 153
f 99/124/20 81/123/20 82/125/20 
s 154
f 82/125/20 100/126/20 99/124/20 
s 155
f 100/126/20 82/125/20 39/127/20 
s 156
f 39/127/20 38/128/20 100/126/20 
s 157
f 100/126/20 38/128/20 53/129/20 
s 158
f 53/129/20 101/130/20 100/126/20 
s 159
f 99/124/20 100/126/20 101/130/20 
s 160
f 101/130/20 102/131/20 99/124/20 
s 161
f 8/121/20 99/124/20 102/131/20 
s 162
f 102/131/20 26/132/20 8/121/20 
s 163
f 51/133/23 50/115/23 97/113/23 
s 164
f 97/113/23 103/134/23 51/133/23 
s 165
f 103/134/23 97/113/23 95/111/23 
s 166
f 95/111/23 104/135/23 103/134/23 
s 167
f 104/135/23 95/111/23 19/110/23 
s 168
f 19/110/23 18/136/23 104/135/23 
s 169
f 54/137/23 55/138/23 105/139/23 
s 170
f 105/139/23 106/140/23 54/137/23 
s 171
f 106/140/23 105/139/23 107/141/23 
s 172
f 107/141/23 108/142/23 106/140/23 
s 173
f 108/142/23 107/141/23 23/143/23 
s 174
f 23/143/23 20/144/23 108/142/23 
s 175
f 55/138/22 51/145/22 103/146/22 
s 176
f 103/146/22 105/139/22 55/138/22 
s 177
f 105/139/22 103/146/22 104/147/22 
s 178
f 104/147/22 107/141/22 105/139/22 
s 179
f 107/141/22 104/147/22 18/148/22 
s 180
f 18/148/22 23/143/22 107/141/22 
s 181
f 62/88/22 54/149/22 106/150/22 
s 182
f 106/150/22 109/86/22 62/88/22 
s 183
f 109/86/22 106/150/22 108/151/22 
s 184
f 108/151/22 110/84/22 109/86/22 
s 185
f 110/84/22 108/151/22 20/152/22 
s 186
f 20/152/22 22/83/22 110/84/22 
s 187
f 56/39/20 59/40/20 111/38/20 
s 188
f 111/38/20 112/37/20 56/39/20 
s 189
f 112/37/20 111/38/20 113/36/20 
s 190
f 113/36/20 114/33/20 112/37/20 
s 191
f 114/33/20 113/36/20 31/35/20 
s 192
f 31/35/20 28/34/20 114/33/20 
s 193
f 52/47/20 57/48/20 115/46/20 
s 194
f 115/46/20 116/45/20 52/47/20 
s 195
f 116/45/20 115/46/20 117/44/20 
s 196
f 117/44/20 118/41/20 116/45/20 
s 197
f 118/41/20 117/44/20 32/43/20 
s 198
f 32/43/20 27/42/20 118/41/20 
s 199
f 57/48/23 56/52/23 112/51/23 
s 200
f 112/51/23 115/46/23 57/48/23 
s 201
f 115/46/23 112/51/23 114/50/23 
s 202
f 114/50/23 117/44/23 115/46/23 
s 203
f 117/44/23 114/50/23 28/49/23 
s 204
f 28/49/23 32/43/23 117/44/23 
s 205
f 29/59/23 31/35/23 113/36/23 
s 206
f 113/36/23 119/53/23 29/59/23 
s 207
f 119/53/23 113/36/23 111/38/23 
s 208
f 111/38/23 120/54/23 119/53/23 
s 209
f 120/54/23 111/38/23 59/40/23 
s 210
f 59/40/23 58/55/23 120/54/23 
s 211
f 120/54/23 58/55/23 63/56/23 
s 212
f 63/56/23 121/57/23 120/54/23 
s 213
f 119/53/23 120/54/23 121/57/23 
s 214
f 121/57/23 122/58/23 119/53/23 
s 215
f 29/59/23 119/53/23 122/58/23 
s 216
f 122/58/23 30/60/23 29/59/23 
s 217
f 84/153/22 2/154/22 1/155/22 
s 218
f 1/155/22 91/156/22 84/153/22 
s 219
f 86/157/22 84/153/22 91/156/22 
s 220
f 91/156/22 93/158/22 86/157/22 
s 221
f 48/159/22 86/157/22 93/158/22 
s 222
f 93/158/22 47/160/22 48/159/22 
s 223
f 60/71/23 64/72/23 123/70/23 
s 224
f 123/70/23 124/69/23 60/71/23 
s 225
f 124/69/23 123/70/23 125/68/23 
s 226
f 125/68/23 126/65/23 124/69/23 
s 227
f 126/65/23 125/68/23 25/67/23 
s 228
f 25/67/23 24/66/23 126/65/23 
s 229
f 53/79/23 52/80/23 116/78/23 
s 230
f 116/78/23 101/77/23 53/79/23 
s 231
f 101/77/23 116/78/23 118/76/23 
s 232
f 118/76/23 102/73/23 101/77/23 
s 233
f 102/73/23 118/76/23 27/75/23 
s 234
f 27/75/23 26/74/23 102/73/23 
s 235
f 61/87/23 62/88/23 109/86/23 
s 236
f 109/86/23 127/85/23 61/87/23 
s 237
f 127/85/23 109/86/23 110/84/23 
s 238
f 110/84/23 128/81/23 127/85/23 
s 239
f 128/81/23 110/84/23 22/83/23 
s 240
f 22/83/23 21/82/23 128/81/23 
s 241
f 24/64/22 30/60/22 122/58/22 
s 242
f 122/58/22 126/63/22 24/64/22 
s 243
f 126/63/22 122/58/22 121/57/22 
s 244
f 121/57/22 124/61/22 126/63/22 
s 245
f 124/61/22 121/57/22 63/56/22 
s 246
f 63/56/22 60/62/22 124/61/22 
s 247
f 21/120/22 25/67/22 125/68/22 
s 248
f 125/68/22 128/119/22 21/120/22 
s 249
f 128/119/22 125/68/22 123/70/22 
s 250
f 123/70/22 127/117/22 128/119/22 
s 251
f 127/117/22 123/70/22 64/72/22 
s 252
f 64/72/22 61/118/22 127/117/22 
# 252 faces

