{
  "accessors": [
    {
      "bufferView": 0,
      "byteOffset": 0,
      "componentType": 5126,
      "normalized": false,
      "count": 16,
      "type": "VEC3",
      "max": [
        5.184014797210693,
        8.3622407913208,
        0.8853949904441833
      ],
      "min": [
        -5.116644382476807,
        -8.394489288330078,
        -0.5482232570648193
      ],
      "name": "part0_vertices"
    },
    {
      "bufferView": 1,
      "byteOffset": 0,
      "componentType": 5126,
      "normalized": false,
      "count": 16,
      "type": "VEC3",
      "max": [
        0.94287109375,
        0.826904296875,
        0.562255859375
      ],
      "min": [
        -0.910400390625,
        -0.843994140625,
        0.3330078125
      ],
      "name": "part0_normals"
    },
    {
      "bufferView": 2,
      "byteOffset": 0,
      "componentType": 5126,
      "normalized": false,
      "count": 16,
      "type": "VEC2",
      "max": [
        0.0703125,
        0.03900146484375
      ],
      "min": [
        0.0625,
        0.03125
      ],
      "name": "part0_uvs"
    },
    {
      "bufferView": 3,
      "byteOffset": 0,
      "componentType": 5123,
      "normalized": false,
      "count": 16,
      "type": "VEC4",
      "max": [
        1,
        0,
        0,
        0
      ],
      "min": [
        1,
        0,
        0,
        0
      ],
      "name": "part0_joints"
    },
    {
      "bufferView": 4,
      "byteOffset": 0,
      "componentType": 5126,
      "normalized": false,
      "count": 16,
      "type": "VEC4",
      "max": [
        1.0,
        0.0,
        0.0,
        0.0
      ],
      "min": [
        1.0,
        0.0,
        0.0,
        0.0
      ],
      "name": "part0_weights"
    },
    {
      "bufferView": 5,
      "byteOffset": 0,
      "componentType": 5123,
      "normalized": false,
      "count": 24,
      "type": "SCALAR",
      "max": [
        15
      ],
      "min": [
        0
      ],
      "name": "part0_indices"
    },
    {
      "bufferView": 0,
      "byteOffset": 192,
      "componentType": 5126,
      "normalized": false,
      "count": 4,
      "type": "VEC3",
      "max": [
        4.561396598815918,
        7.489617824554443,
        -0.48628076910972595
      ],
      "min": [
        -4.631959915161133,
        -7.465671062469482,
        -0.5482232570648193
      ],
      "name": "part1_vertices"
    },
    {
      "bufferView": 1,
      "byteOffset": 192,
      "componentType": 5126,
      "normalized": false,
      "count": 4,
      "type": "VEC3",
      "max": [
        0.0,
        -0.00390625,
        0.999755859375
      ],
      "min": [
        0.0,
        -0.00390625,
        0.999755859375
      ],
      "name": "part1_normals"
    },
    {
      "bufferView": 2,
      "byteOffset": 128,
      "componentType": 5126,
      "normalized": false,
      "count": 4,
      "type": "VEC2",
      "max": [
        0.0625,
        0.06243896484375
      ],
      "min": [
        0.0,
        0.0
      ],
      "name": "part1_uvs"
    },
    {
      "bufferView": 3,
      "byteOffset": 128,
      "componentType": 5123,
      "normalized": false,
      "count": 4,
      "type": "VEC4",
      "max": [
        1,
        0,
        0,
        0
      ],
      "min": [
        1,
        0,
        0,
        0
      ],
      "name": "part1_joints"
    },
    {
      "bufferView": 4,
      "byteOffset": 256,
      "componentType": 5126,
      "normalized": false,
      "count": 4,
      "type": "VEC4",
      "max": [
        1.0,
        0.0,
        0.0,
        0.0
      ],
      "min": [
        1.0,
        0.0,
        0.0,
        0.0
      ],
      "name": "part1_weights"
    },
    {
      "bufferView": 5,
      "byteOffset": 48,
      "componentType": 5123,
      "normalized": false,
      "count": 6,
      "type": "SCALAR",
      "max": [
        3
      ],
      "min": [
        0
      ],
      "name": "part1_indices"
    },
    {
      "bufferView": 0,
      "byteOffset": 240,
      "componentType": 5126,
      "normalized": false,
      "count": 36,
      "type": "VEC3",
      "max": [
        6.444896221160889,
        10.46190071105957,
        1.2394890785217285
      ],
      "min": [
        -6.443299770355225,
        -10.45775032043457,
        -1.572829246520996
      ],
      "name": "part2_vertices"
    },
    {
      "bufferView": 1,
      "byteOffset": 240,
      "componentType": 5126,
      "normalized": false,
      "count": 36,
      "type": "VEC3",
      "max": [
        0.999755859375,
        0.999755859375,
        0.98779296875
      ],
      "min": [
        -0.999755859375,
        -0.999755859375,
        -0.999755859375
      ],
      "name": "part2_normals"
    },
    {
      "bufferView": 2,
      "byteOffset": 160,
      "componentType": 5126,
      "normalized": false,
      "count": 36,
      "type": "VEC2",
      "max": [
        0.12274169921875,
        0.03125
      ],
      "min": [
        0.070556640625,
        0.0
      ],
      "name": "part2_uvs"
    },
    {
      "bufferView": 3,
      "byteOffset": 160,
      "componentType": 5123,
      "normalized": false,
      "count": 36,
      "type": "VEC4",
      "max": [
        1,
        0,
        0,
        0
      ],
      "min": [
        1,
        0,
        0,
        0
      ],
      "name": "part2_joints"
    },
    {
      "bufferView": 4,
      "byteOffset": 320,
      "componentType": 5126,
      "normalized": false,
      "count": 36,
      "type": "VEC4",
      "max": [
        1.0,
        0.0,
        0.0,
        0.0
      ],
      "min": [
        1.0,
        0.0,
        0.0,
        0.0
      ],
      "name": "part2_weights"
    },
    {
      "bufferView": 5,
      "byteOffset": 60,
      "componentType": 5123,
      "normalized": false,
      "count": 54,
      "type": "SCALAR",
      "max": [
        35
      ],
      "min": [
        0
      ],
      "name": "part2_indices"
    },
    {
      "bufferView": 6,
      "byteOffset": 0,
      "componentType": 5126,
      "normalized": false,
      "count": 2,
      "type": "MAT4",
      "max": [
        1.0,
        0.0,
        0.0,
        0.0,
        0.0,
        1.0,
        0.0,
        0.0,
        0.0,
        0.0,
        1.0,
        0.0,
        0.0,
        0.0,
        0.0,
        1.0
      ],
      "min": [
        1.0,
        0.0,
        0.0,
        0.0,
        0.0,
        1.0,
        0.0,
        0.0,
        0.0,
        0.0,
        1.0,
        0.0,
        0.0,
        0.0,
        0.0,
        1.0
      ],
      "name": "inverse_matrix"
    },
    {
      "bufferView": 7,
      "byteOffset": 0,
      "componentType": 5126,
      "normalized": false,
      "count": 1,
      "type": "SCALAR",
      "max": [
        0.0
      ],
      "min": [
        0.0
      ],
      "name": "anim_ig_000_root_trans_keyframes"
    },
    {
      "bufferView": 8,
      "byteOffset": 0,
      "componentType": 5126,
      "normalized": false,
      "count": 1,
      "type": "VEC3",
      "max": [
        0.0,
        -0.0,
        -0.0
      ],
      "min": [
        0.0,
        -0.0,
        -0.0
      ],
      "name": "anim_ig_000_root_trans"
    },
    {
      "bufferView": 7,
      "byteOffset": 4,
      "componentType": 5126,
      "normalized": false,
      "count": 1,
      "type": "SCALAR",
      "max": [
        0.0
      ],
      "min": [
        0.0
      ],
      "name": "anim_ig_000_joint0_trans_keyframes"
    },
    {
      "bufferView": 8,
      "byteOffset": 12,
      "componentType": 5126,
      "normalized": false,
      "count": 1,
      "type": "VEC3",
      "max": [
        0.0,
        0.0,
        0.0
      ],
      "min": [
        0.0,
        0.0,
        0.0
      ],
      "name": "anim_ig_000_joint0_trans"
    },
    {
      "bufferView": 9,
      "byteOffset": 0,
      "componentType": 5126,
      "normalized": false,
      "count": 2,
      "type": "SCALAR",
      "max": [
        0.01666666753590107
      ],
      "min": [
        0.0
      ],
      "name": "anim_ig_000_joint0_rot_keyframes"
    },
    {
      "bufferView": 10,
      "byteOffset": 0,
      "componentType": 5126,
      "normalized": false,
      "count": 2,
      "type": "VEC4",
      "max": [
        0.0,
        0.0,
        0.0,
        1.0
      ],
      "min": [
        0.0,
        0.0,
        0.0,
        1.0
      ],
      "name": "anim_ig_000_joint0_rot"
    },
    {
      "bufferView": 7,
      "byteOffset": 8,
      "componentType": 5126,
      "normalized": false,
      "count": 1,
      "type": "SCALAR",
      "max": [
        0.0
      ],
      "min": [
        0.0
      ],
      "name": "anim_ig_001_root_trans_keyframes"
    },
    {
      "bufferView": 8,
      "byteOffset": 24,
      "componentType": 5126,
      "normalized": false,
      "count": 1,
      "type": "VEC3",
      "max": [
        0.0,
        -0.0,
        -0.0
      ],
      "min": [
        0.0,
        -0.0,
        -0.0
      ],
      "name": "anim_ig_001_root_trans"
    },
    {
      "bufferView": 7,
      "byteOffset": 12,
      "componentType": 5126,
      "normalized": false,
      "count": 180,
      "type": "SCALAR",
      "max": [
        2.9833333492279053
      ],
      "min": [
        0.0
      ],
      "name": "anim_ig_001_joint0_trans_keyframes"
    },
    {
      "bufferView": 8,
      "byteOffset": 36,
      "componentType": 5126,
      "normalized": false,
      "count": 180,
      "type": "VEC3",
      "max": [
        0.0,
        9.600000381469727,
        0.0
      ],
      "min": [
        0.0,
        0.0,
        0.0
      ],
      "name": "anim_ig_001_joint0_trans"
    },
    {
      "bufferView": 9,
      "byteOffset": 8,
      "componentType": 5126,
      "normalized": false,
      "count": 25,
      "type": "SCALAR",
      "max": [
        2.9833333492279053
      ],
      "min": [
        0.0
      ],
      "name": "anim_ig_001_joint0_rot_keyframes"
    },
    {
      "bufferView": 10,
      "byteOffset": 32,
      "componentType": 5126,
      "normalized": false,
      "count": 25,
      "type": "VEC4",
      "max": [
        0.7065037488937378,
        0.17739301919937134,
        0.35633665323257446,
        1.0
      ],
      "min": [
        0.0,
        -0.1737525910139084,
        -0.35953161120414734,
        0.7075035572052002
      ],
      "name": "anim_ig_001_joint0_rot"
    }
  ],
  "animations": [
    {
      "name": "0_ig_000",
      "channels": [
        {
          "sampler": 0,
          "target": {
            "node": 3,
            "path": "translation"
          }
        },
        {
          "sampler": 1,
          "target": {
            "node": 4,
            "path": "translation"
          }
        },
        {
          "sampler": 2,
          "target": {
            "node": 4,
            "path": "rotation"
          }
        }
      ],
      "samplers": [
        {
          "input": 19,
          "interpolation": "LINEAR",
          "output": 20
        },
        {
          "input": 21,
          "interpolation": "LINEAR",
          "output": 22
        },
        {
          "input": 23,
          "interpolation": "LINEAR",
          "output": 24
        }
      ]
    },
    {
      "name": "1_ig_001",
      "channels": [
        {
          "sampler": 0,
          "target": {
            "node": 3,
            "path": "translation"
          }
        },
        {
          "sampler": 1,
          "target": {
            "node": 4,
            "path": "translation"
          }
        },
        {
          "sampler": 2,
          "target": {
            "node": 4,
            "path": "rotation"
          }
        }
      ],
      "samplers": [
        {
          "input": 25,
          "interpolation": "LINEAR",
          "output": 26
        },
        {
          "input": 27,
          "interpolation": "LINEAR",
          "output": 28
        },
        {
          "input": 29,
          "interpolation": "LINEAR",
          "output": 30
        }
      ]
    }
  ],
  "asset": {
    "generator": "klonoa2-tools (https://github.com/evilarceus/klonoa2-tools)",
    "copyright": "Models by Namco, extracted by t4ils",
    "version": "2.0"
  },
  "bufferViews": [
    {
      "buffer": 0,
      "byteOffset": 0,
      "byteLength": 672,
      "byteStride": 12,
      "target": 34962,
      "name": "vertices"
    },
    {
      "buffer": 0,
      "byteOffset": 672,
      "byteLength": 672,
      "byteStride": 12,
      "target": 34962,
      "name": "normals"
    },
    {
      "buffer": 0,
      "byteOffset": 1344,
      "byteLength": 448,
      "byteStride": 8,
      "target": 34962,
      "name": "uvs"
    },
    {
      "buffer": 0,
      "byteOffset": 1792,
      "byteLength": 448,
      "byteStride": 8,
      "name": "joints"
    },
    {
      "buffer": 0,
      "byteOffset": 2240,
      "byteLength": 896,
      "byteStride": 16,
      "target": 34962,
      "name": "weights"
    },
    {
      "buffer": 0,
      "byteOffset": 3136,
      "byteLength": 168,
      "target": 34963,
      "name": "indices"
    },
    {
      "buffer": 0,
      "byteOffset": 3304,
      "byteLength": 128,
      "name": "inverse_matrix"
    },
    {
      "buffer": 0,
      "byteOffset": 3432,
      "byteLength": 732,
      "name": "anim_translations_keyframes"
    },
    {
      "buffer": 0,
      "byteOffset": 4164,
      "byteLength": 2196,
      "name": "anim_translations"
    },
    {
      "buffer": 0,
      "byteOffset": 6360,
      "byteLength": 108,
      "name": "anim_rotations_keyframes"
    },
    {
      "buffer": 0,
      "byteOffset": 6468,
      "byteLength": 432,
      "name": "anim_rotations"
    }
  ],
  "buffers": [
    {
      "uri": "data:application/gltf-buffer;base64,",
      "byteLength": 6900
    }
  ],
  "images": [
    {
      "uri": "Maze of Memories Painting 3.png",
      "name": "Maze of Memories Painting 3.png"
    }
  ],
  "materials": [
    {
      "pbrMetallicRoughness": {
        "baseColorFactor": [
          1,
          1,
          1,
          1
        ],
        "metallicFactor": 0,
        "roughnessFactor": 1,
        "baseColorTexture": {
          "index": 0,
          "texCoord": 0
        }
      },
      "emissiveFactor": [
        0,
        0,
        0
      ],
      "alphaMode": "OPAQUE",
      "doubleSided": true,
      "name": "mtl0"
    }
  ],
  "meshes": [
    {
      "primitives": [
        {
          "attributes": {
            "POSITION": 0,
            "NORMAL": 1,
            "TEXCOORD_0": 2,
            "JOINTS_0": 3,
            "WEIGHTS_0": 4
          },
          "indices": 5,
          "mode": 4,
          "material": 0
        }
      ],
      "name": "part0"
    },
    {
      "primitives": [
        {
          "attributes": {
            "POSITION": 6,
            "NORMAL": 7,
            "TEXCOORD_0": 8,
            "JOINTS_0": 9,
            "WEIGHTS_0": 10
          },
          "indices": 11,
          "mode": 4,
          "material": 0
        }
      ],
      "name": "part1"
    },
    {
      "primitives": [
        {
          "attributes": {
            "POSITION": 12,
            "NORMAL": 13,
            "TEXCOORD_0": 14,
            "JOINTS_0": 15,
            "WEIGHTS_0": 16
          },
          "indices": 17,
          "mode": 4,
          "material": 0
        }
      ],
      "name": "part2"
    }
  ],
  "nodes": [
    {
      "mesh": 0,
      "skin": 0,
      "name": "part0"
    },
    {
      "mesh": 1,
      "skin": 0,
      "name": "part1"
    },
    {
      "mesh": 2,
      "skin": 0,
      "name": "part2"
    },
    {
      "children": [
        4
      ],
      "name": "root_joint"
    },
    {
      "translation": [
        0.0,
        0.0,
        0.0
      ],
      "name": "joint0"
    }
  ],
  "samplers": [
    {
      "magFilter": 9728,
      "minFilter": 9728,
      "wrapS": 10497,
      "wrapT": 10497
    }
  ],
  "scene": 0,
  "scenes": [
    {
      "nodes": [
        0,
        1,
        2,
        3
      ]
    }
  ],
  "skins": [
    {
      "inverseBindMatrices": 18,
      "skeleton": 3,
      "joints": [
        3,
        4
      ]
    }
  ],
  "textures": [
    {
      "sampler": 0,
      "source": 0,
      "name": "Maze of Memories Painting 3.png"
    }
  ]
}