# Blender v2.79 (sub 0) OBJ File: ''
# www.blender.org
mtllib pj_dj's_turntable.mtl
o turntable1
v -2.140000 5.000004 -10.649998
v -0.860000 4.400004 -10.649998
v -0.860000 5.000004 -10.649998
v -2.140000 5.000004 -10.649998
v -2.140000 4.400004 -10.649998
v -0.860000 4.400004 -10.649998
v -9.980000 3.600002 -7.649999
v -10.219999 4.000002 -7.649999
v -10.099999 2.880002 -7.649999
v -11.255000 4.400003 -7.649998
v -12.325000 4.400003 -7.649998
v -10.860000 2.120002 -7.649999
v -10.620000 4.280003 -7.649999
v -10.860000 2.120002 -7.649999
v -10.300000 2.600002 -7.649999
v -10.620000 4.280003 -7.649999
v -11.255000 4.400003 -7.649998
v -10.860000 2.120002 -7.649999
v -10.219999 4.000002 -7.649999
v -10.300000 2.600002 -7.649999
v -10.099999 2.880002 -7.649999
v -10.219999 4.000002 -7.649999
v -10.620000 4.280003 -7.649999
v -10.300000 2.600002 -7.649999
v -0.590000 4.400004 -13.449998
v -0.590000 4.400004 -12.049998
v -0.655000 3.650004 -13.449998
v -0.590000 4.400003 -7.649998
v -0.655000 3.650002 -7.649999
v -0.590000 4.400003 -8.249998
v -0.590000 4.400004 -12.049998
v -0.590000 4.400004 -10.649998
v -0.655000 3.650004 -13.449998
v -0.590000 4.400003 -8.249998
v -0.655000 3.650002 -7.649999
v -0.590000 4.400003 -9.449998
v -0.655000 3.650002 -7.649999
v -1.150000 3.570004 -13.449998
v -0.655000 3.650004 -13.449998
v -0.655000 3.650002 -7.649999
v -1.150000 3.570002 -7.649999
v -1.150000 3.570004 -13.449998
v -1.150000 3.570002 -7.649999
v -1.395000 1.805004 -13.450000
v -1.150000 3.570004 -13.449998
v -1.150000 3.570002 -7.649999
v -1.395000 1.805002 -7.649999
v -1.395000 1.805004 -13.450000
v -0.590000 4.400004 -10.649998
v -0.655000 3.650002 -7.649999
v -0.655000 3.650004 -13.449998
v -0.590000 4.400004 -10.649998
v -0.590000 4.400003 -9.449998
v -0.655000 3.650002 -7.649999
v -11.230000 0.000002 -7.650000
v -12.325000 4.400004 -11.849998
v -11.230000 0.000004 -11.849999
v -11.230000 0.000002 -7.650000
v -12.325000 4.400003 -7.649998
v -12.325000 4.400004 -11.849998
v -1.735000 0.840004 -13.450000
v -1.395000 1.805002 -7.649999
v -1.735000 0.840002 -7.650000
v -1.735000 0.840004 -13.450000
v -1.395000 1.805004 -13.450000
v -1.395000 1.805002 -7.649999
v -1.735000 0.840002 -7.650000
v -2.190000 0.180004 -13.450000
v -1.735000 0.840004 -13.450000
v -1.735000 0.840002 -7.650000
v -2.190000 0.180002 -7.650000
v -2.190000 0.180004 -13.450000
v -2.835000 0.010004 -13.450000
v -2.190000 0.180002 -7.650000
v -2.835000 0.010002 -7.650000
v -2.835000 0.010004 -13.450000
v -2.190000 0.180004 -13.450000
v -2.190000 0.180002 -7.650000
vt 0.750000 0.125000
vt 0.996090 0.015630
vt 0.996090 0.125000
vt 0.750000 0.125000
vt 0.750000 0.015630
vt 0.996090 0.015630
vt 0.496090 0.164060
vt 0.468750 0.210940
vt 0.480470 0.085940
vt 0.363280 0.250000
vt 0.250000 0.250000
vt 0.402340 0.003910
vt 0.429690 0.238280
vt 0.402340 0.003910
vt 0.460940 0.058590
vt 0.429690 0.238280
vt 0.363280 0.250000
vt 0.402340 0.003910
vt 0.468750 0.210940
vt 0.460940 0.058590
vt 0.480470 0.085940
vt 0.468750 0.210940
vt 0.429690 0.238280
vt 0.460940 0.058590
vt 0.746090 0.250000
vt 0.687500 0.250000
vt 0.746090 0.207030
vt 0.500000 0.250000
vt 0.500000 0.207030
vt 0.523440 0.250000
vt 0.687500 0.250000
vt 0.625000 0.250000
vt 0.746090 0.207030
vt 0.523440 0.250000
vt 0.500000 0.207030
vt 0.574220 0.250000
vt 0.500000 0.207030
vt 0.746090 0.203130
vt 0.746090 0.207030
vt 0.500000 0.207030
vt 0.500000 0.203130
vt 0.746090 0.203130
vt 0.500000 0.203130
vt 0.746090 0.105470
vt 0.746090 0.203130
vt 0.500000 0.203130
vt 0.500000 0.105470
vt 0.746090 0.105470
vt 0.625000 0.250000
vt 0.500000 0.207030
vt 0.746090 0.207030
vt 0.625000 0.250000
vt 0.574220 0.250000
vt 0.500000 0.207030
vt 0.500000 0.003910
vt 0.679690 0.250000
vt 0.679690 0.003910
vt 0.500000 0.003910
vt 0.500000 0.250000
vt 0.679690 0.250000
vt 0.746090 0.050780
vt 0.500000 0.105470
vt 0.500000 0.050780
vt 0.746090 0.050780
vt 0.746090 0.105470
vt 0.500000 0.105470
vt 0.500000 0.050780
vt 0.746090 0.015630
vt 0.746090 0.050780
vt 0.500000 0.050780
vt 0.500000 0.015630
vt 0.746090 0.015630
vt 0.746090 0.003910
vt 0.500000 0.015630
vt 0.500000 0.003910
vt 0.746090 0.003910
vt 0.746090 0.015630
vt 0.500000 0.015630
vn 0.0000 0.0000 1.0000
vn 0.9963 -0.0863 -0.0000
vn 0.1595 -0.9872 -0.0000
vn 0.9905 -0.1375 -0.0000
vn -0.9704 -0.2415 -0.0000
vn 0.9432 -0.3323 -0.0000
vn 0.8233 -0.5676 -0.0000
vn 0.2549 -0.9670 -0.0000
usemtl material1
s 1
f 1/1/1 2/2/1 3/3/1
f 4/4/1 5/5/1 6/6/1
f 7/7/1 8/8/1 9/9/1
f 10/10/1 11/11/1 12/12/1
f 13/13/1 14/14/1 15/15/1
f 16/16/1 17/17/1 18/18/1
f 19/19/1 20/20/1 21/21/1
f 22/22/1 23/23/1 24/24/1
f 25/25/2 26/26/2 27/27/2
f 28/28/2 29/29/2 30/30/2
f 31/31/2 32/32/2 33/33/2
f 34/34/2 35/35/2 36/36/2
f 37/37/3 38/38/3 39/39/3
f 40/40/3 41/41/3 42/42/3
f 43/43/4 44/44/4 45/45/4
f 46/46/4 47/47/4 48/48/4
f 49/49/2 50/50/2 51/51/2
f 52/52/2 53/53/2 54/54/2
f 55/55/5 56/56/5 57/57/5
f 58/58/5 59/59/5 60/60/5
f 61/61/6 62/62/6 63/63/6
f 64/64/6 65/65/6 66/66/6
f 67/67/7 68/68/7 69/69/7
f 70/70/7 71/71/7 72/72/7
f 73/73/8 74/74/8 75/75/8
f 76/76/8 77/77/8 78/78/8
o turntable_colors
v -2.780000 1.720004 -11.050000
v -3.500000 1.440004 -13.450000
v -3.500000 1.440004 -11.050000
v -2.780000 1.720004 -11.050000
v -2.780000 1.720004 -13.450000
v -3.500000 1.440004 -13.450000
v -2.740000 1.040002 -7.650000
v -3.500000 1.440002 -7.650000
v -3.420000 0.800002 -7.650000
v -2.740000 1.040002 -7.650000
v -2.780000 1.720002 -7.649999
v -3.500000 1.440002 -7.650000
v -3.420000 0.800004 -11.050000
v -3.500000 1.440004 -13.450000
v -3.215000 0.265004 -13.450000
v -3.420000 0.800004 -11.050000
v -3.500000 1.440004 -11.050000
v -3.500000 1.440004 -13.450000
v -2.500000 0.880004 -11.050000
v -2.260000 1.160004 -13.450000
v -2.500000 0.880004 -13.450000
v -2.500000 0.880004 -11.050000
v -2.260000 1.160004 -11.050000
v -2.260000 1.160004 -13.450000
v -2.260000 1.160004 -11.050000
v -1.940000 3.600004 -13.449998
v -2.260000 1.160004 -13.450000
v -2.260000 1.160004 -11.050000
v -1.940000 3.600004 -11.049998
v -1.940000 3.600004 -13.449998
v -2.540000 4.400003 -8.249998
v -0.590000 4.400003 -7.649998
v -0.590000 4.400003 -8.249998
v -2.540000 4.400003 -8.249998
v -2.540000 4.400003 -7.649998
v -0.590000 4.400003 -7.649998
v -2.540000 4.400004 -12.049998
v -0.590000 4.400004 -10.649998
v -0.590000 4.400004 -12.049998
v -2.540000 4.400004 -12.049998
v -2.540000 4.400004 -10.649998
v -0.590000 4.400004 -10.649998
v -2.835000 0.010002 -7.650000
v -3.215000 0.265004 -13.450000
v -2.835000 0.010004 -13.450000
v -2.835000 0.010002 -7.650000
v -3.215000 0.265002 -7.650000
v -3.215000 0.265004 -13.450000
v -3.215000 0.265004 -13.450000
v -3.420000 0.800002 -7.650000
v -3.420000 0.800004 -11.050000
v -3.215000 0.265004 -13.450000
v -3.215000 0.265002 -7.650000
v -3.420000 0.800002 -7.650000
v -2.500000 0.880002 -7.650000
v -3.420000 0.800002 -7.650000
v -3.215000 0.265002 -7.650000
v -2.500000 0.880002 -7.650000
v -2.740000 1.040002 -7.650000
v -3.420000 0.800002 -7.650000
v -2.500000 0.880002 -7.650000
v -2.835000 0.010002 -7.650000
v -2.190000 0.180002 -7.650000
v -2.500000 0.880002 -7.650000
v -3.215000 0.265002 -7.650000
v -2.835000 0.010002 -7.650000
v -2.260000 1.160002 -7.650000
v -2.190000 0.180002 -7.650000
v -1.735000 0.840002 -7.650000
v -2.260000 1.160002 -7.650000
v -2.500000 0.880002 -7.650000
v -2.190000 0.180002 -7.650000
v -2.060000 2.120002 -7.649999
v -1.735000 0.840002 -7.650000
v -1.395000 1.805002 -7.649999
v -2.060000 2.120002 -7.649999
v -2.260000 1.160002 -7.650000
v -1.735000 0.840002 -7.650000
v -1.940000 3.600002 -7.649999
v -1.395000 1.805002 -7.649999
v -1.150000 3.570002 -7.649999
v -1.940000 3.600002 -7.649999
v -2.060000 2.120002 -7.649999
v -1.395000 1.805002 -7.649999
v -0.590000 4.400003 -7.649998
v -1.940000 3.600002 -7.649999
v -1.150000 3.570002 -7.649999
v -0.590000 4.400003 -7.649998
v -2.540000 4.400003 -7.649998
v -1.940000 3.600002 -7.649999
v -0.590000 4.400003 -9.449998
v -2.540000 4.400004 -10.649998
v -2.540000 4.400003 -9.449998
v -0.590000 4.400003 -9.449998
v -0.590000 4.400004 -10.649998
v -2.540000 4.400004 -10.649998
v -2.540000 4.400003 -9.449998
v -0.590000 4.400003 -8.249998
v -0.590000 4.400003 -9.449998
v -2.540000 4.400003 -9.449998
v -2.540000 4.400003 -8.249998
v -0.590000 4.400003 -8.249998
v -0.590000 4.400004 -12.049998
v -2.540000 4.400004 -13.449998
v -2.540000 4.400004 -12.049998
v -0.590000 4.400004 -12.049998
v -0.590000 4.400004 -13.449998
v -2.540000 4.400004 -13.449998
v -2.500000 3.600004 -11.049998
v -2.540000 4.400003 -8.249998
v -2.540000 4.400003 -9.449998
v -2.500000 3.600004 -11.049998
v -2.500000 3.600002 -7.649999
v -2.540000 4.400003 -8.249998
v -2.540000 4.400004 -12.049998
v -2.500000 3.600004 -13.449998
v -2.500000 3.600004 -11.049998
v -2.540000 4.400004 -12.049998
v -2.540000 4.400004 -13.449998
v -2.500000 3.600004 -13.449998
v -12.325000 4.400003 -7.649998
v -10.660000 0.800002 -7.650000
v -10.860000 2.120002 -7.649999
v -12.325000 4.400003 -7.649998
v -11.230000 0.000002 -7.650000
v -10.660000 0.800002 -7.650000
v -10.500000 0.000004 -11.050000
v -10.860000 2.120004 -11.849999
v -10.860000 2.120004 -11.050000
v -10.500000 0.000004 -11.050000
v -10.500000 0.000004 -11.849999
v -10.860000 2.120004 -11.849999
v -10.860000 2.120004 -11.050000
v -10.099999 2.880004 -11.849999
v -10.099999 2.880004 -11.050000
v -10.860000 2.120004 -11.050000
v -10.860000 2.120004 -11.849999
v -10.099999 2.880004 -11.849999
v -10.660000 0.800002 -7.650000
v -10.500000 0.000004 -11.050000
v -10.860000 2.120004 -11.050000
v -10.660000 0.800002 -7.650000
v -10.500000 0.000002 -7.650000
v -10.500000 0.000004 -11.050000
v -2.540000 4.400003 -7.649998
v -2.540000 4.400003 -8.249998
v -2.500000 3.600002 -7.649999
v -2.540000 4.400004 -10.649998
v -2.540000 4.400004 -12.049998
v -2.500000 3.600004 -11.049998
v -2.500000 3.600002 -7.649999
v -1.940000 3.600002 -7.649999
v -2.540000 4.400003 -7.649998
v -0.655000 3.650002 -7.649999
v -0.590000 4.400003 -7.649998
v -1.150000 3.570002 -7.649999
v -2.540000 4.400004 -10.649998
v -2.500000 3.600004 -11.049998
v -2.540000 4.400003 -9.449998
v -10.500000 0.000002 -7.650000
v -10.660000 0.800002 -7.650000
v -11.230000 0.000002 -7.650000
v -9.980000 3.600004 -11.849998
v -10.219999 4.000004 -11.849998
v -9.980000 3.600004 -11.049998
v -10.219999 4.000002 -7.649999
v -9.980000 3.600004 -11.049998
v -10.219999 4.000004 -11.849998
v -9.980000 3.600002 -7.649999
v -9.980000 3.600004 -11.049998
v -10.219999 4.000002 -7.649999
v -10.099999 2.880004 -11.050000
v -9.980000 3.600004 -11.849998
v -9.980000 3.600004 -11.049998
v -10.099999 2.880004 -11.050000
v -10.099999 2.880004 -11.849999
v -9.980000 3.600004 -11.849998
v -11.255000 4.400004 -11.849998
v -12.325000 4.400003 -7.649998
v -11.255000 4.400003 -7.649998
v -11.255000 4.400004 -11.849998
v -12.325000 4.400004 -11.849998
v -12.325000 4.400003 -7.649998
v -10.219999 4.000004 -11.849998
v -10.620000 4.280003 -7.649999
v -10.219999 4.000002 -7.649999
v -10.219999 4.000004 -11.849998
v -10.620000 4.280004 -11.849998
v -10.620000 4.280003 -7.649999
v -10.620000 4.280004 -11.849998
v -11.255000 4.400003 -7.649998
v -10.620000 4.280003 -7.649999
v -10.620000 4.280004 -11.849998
v -11.255000 4.400004 -11.849998
v -11.255000 4.400003 -7.649998
vt 0.847714 0.204076
vt 0.913181 0.000692
vt 0.913181 0.204076
vt 0.815409 0.796764
vt 0.753091 0.603163
vt 0.815409 0.583104
vt 0.375293 0.980008
vt 0.302513 0.980008
vt 0.333772 0.935171
vt 0.216484 0.935171
vt 0.186646 0.984586
vt 0.143704 0.935171
vt 0.430998 0.209790
vt 0.331292 0.024289
vt 0.430998 0.000692
vt 0.682443 0.853288
vt 0.627786 0.853288
vt 0.627786 0.649905
vt 0.940203 0.903264
vt 0.908952 0.699880
vt 0.940203 0.699880
vt 0.940203 0.698496
vt 0.908952 0.698496
vt 0.908952 0.495113
vt 0.329908 0.000692
vt 0.329908 0.291991
vt 0.184304 0.142693
vt 0.184304 0.438980
vt 0.333602 0.293376
vt 0.475603 0.438980
vt 0.000692 0.881984
vt 0.165941 0.831138
vt 0.165941 0.881984
vt 0.627786 0.905518
vt 0.627786 0.854673
vt 0.793035 0.854673
vt 0.350937 0.623635
vt 0.516186 0.504995
vt 0.516186 0.623635
vt 0.184304 0.623635
vt 0.184304 0.504995
vt 0.349553 0.504995
vt 0.683828 0.493728
vt 0.683828 0.000692
vt 0.722488 0.003743
vt 0.762654 0.492202
vt 0.723873 0.492202
vt 0.723873 0.000692
vt 0.907567 0.495113
vt 0.907567 0.989015
vt 0.879244 0.702284
vt 0.569930 0.440364
vt 0.618247 0.929493
vt 0.569930 0.934265
vt 0.552108 0.917298
vt 0.488580 0.962999
vt 0.472186 0.917298
vt 0.636673 0.357997
vt 0.617586 0.373267
vt 0.558415 0.357997
vt 0.970376 0.065569
vt 0.914565 0.009653
vt 0.970376 0.000692
vt 0.994487 0.143685
vt 0.914565 0.143685
vt 0.924887 0.106303
vt 0.301128 0.977616
vt 0.217869 0.977616
vt 0.270910 0.935171
vt 0.877679 0.883541
vt 0.855460 0.905518
vt 0.794419 0.883541
vt 0.795740 0.853288
vt 0.683828 0.853288
vt 0.755999 0.805237
vt 0.142320 0.935171
vt 0.067639 0.971619
vt 0.030407 0.935171
vt 0.635958 0.438980
vt 0.476987 0.438980
vt 0.614075 0.375659
vt 0.786756 0.906903
vt 0.669701 0.953071
vt 0.627786 0.906903
vt 0.966283 0.492202
vt 0.833301 0.492202
vt 0.889599 0.455885
vt 0.165941 0.829754
vt 0.000692 0.829754
vt 0.051538 0.761960
vt 0.877860 0.581719
vt 0.683828 0.581719
vt 0.737124 0.495113
vt 0.544969 0.745044
vt 0.544969 0.846735
vt 0.379720 0.846735
vt 0.184304 0.745044
vt 0.378336 0.745044
vt 0.325039 0.831650
vt 0.000692 0.760575
vt 0.000692 0.658884
vt 0.165941 0.658884
vt 0.516186 0.625019
vt 0.350937 0.743659
vt 0.350937 0.625019
vt 0.349553 0.625019
vt 0.349553 0.743659
vt 0.184304 0.743659
vt 0.935985 0.205460
vt 0.935985 0.452259
vt 0.908016 0.354489
vt 0.682443 0.000692
vt 0.682443 0.288819
vt 0.614564 0.237973
vt 0.683828 0.701744
vt 0.751707 0.583104
vt 0.751707 0.786487
vt 0.906632 0.342146
vt 0.847714 0.239169
vt 0.906632 0.205460
vt 0.366531 0.933787
vt 0.030407 0.933787
vt 0.139049 0.902213
vt 0.568546 0.503610
vt 0.184304 0.503610
vt 0.238426 0.440364
vt 0.379720 0.915914
vt 0.561947 0.848120
vt 0.561947 0.915914
vt 0.184304 0.900829
vt 0.184304 0.833035
vt 0.366531 0.833035
vt 0.331292 0.278969
vt 0.422374 0.211175
vt 0.422374 0.278969
vt 0.379720 0.985093
vt 0.379720 0.917298
vt 0.470802 0.917298
vt 0.069800 0.288826
vt 0.000692 0.000692
vt 0.182919 0.000692
vt 0.501519 0.288819
vt 0.432382 0.288819
vt 0.432382 0.000692
vt 0.682113 0.954455
vt 0.712597 0.995150
vt 0.627786 0.995150
vt 0.764038 0.492202
vt 0.764038 0.373562
vt 0.831917 0.458305
vt 0.943039 0.104918
vt 0.914565 0.066953
vt 0.999308 0.066953
vt 0.501268 0.964383
vt 0.557035 0.995365
vt 0.472186 0.995365
vt 0.517570 0.565692
vt 0.563094 0.504995
vt 0.563094 0.656625
vt 0.893962 0.373562
vt 0.893962 0.442699
vt 0.833301 0.385694
vt 0.517570 0.658010
vt 0.557101 0.658010
vt 0.517570 0.725804
vt 0.846330 0.356613
vt 0.806799 0.068487
vt 0.846330 0.000692
vt 0.816793 0.868556
vt 0.855956 0.583104
vt 0.855957 0.873929
vt 0.788140 0.974697
vt 0.849997 0.906903
vt 0.849997 0.974697
vt 0.908952 0.972443
vt 0.908952 0.904648
vt 0.970808 0.904648
vt 0.089945 0.290210
vt 0.180620 0.646131
vt 0.089945 0.646131
vt 0.000692 0.290210
vt 0.088561 0.312596
vt 0.000692 0.657499
vt 0.764038 0.000692
vt 0.805415 0.356612
vt 0.764038 0.356612
vt 0.641343 0.290203
vt 0.682443 0.294981
vt 0.641343 0.648521
vt 0.558415 0.000692
vt 0.613180 0.356613
vt 0.558415 0.356613
vt 0.502904 0.000692
vt 0.557031 0.009021
vt 0.502904 0.360801
vn -0.3624 0.9320 0.0000
vn 0.0000 0.0000 1.0000
vn -0.9714 -0.2356 -0.0305
vn -0.9923 -0.1240 -0.0000
vn -0.7593 0.6508 0.0000
vn -0.9915 0.1300 0.0000
vn 0.0000 1.0000 0.0000
vn -0.5572 -0.8304 -0.0000
vn -0.9338 -0.3578 -0.0000
vn -0.9988 -0.0499 0.0000
vn 0.9859 0.1674 0.0000
vn 0.7071 -0.7071 0.0000
vn 0.9859 0.1674 0.0070
vn 0.9806 0.1961 0.0000
vn 0.8575 0.5145 0.0000
vn 0.9864 -0.1644 0.0000
vn 0.5735 0.8192 0.0000
vn 0.1857 0.9826 0.0000
usemtl material0
s 1
f 79/79/9 80/80/9 81/81/9
f 82/82/9 83/83/9 84/84/9
f 85/85/10 86/86/10 87/87/10
f 88/88/10 89/89/10 90/90/10
f 91/91/11 92/92/11 93/93/11
f 94/94/12 95/95/12 96/96/12
f 97/97/13 98/98/13 99/99/13
f 100/100/13 101/101/13 102/102/13
f 103/103/14 104/104/14 105/105/14
f 106/106/14 107/107/14 108/108/14
f 109/109/15 110/110/15 111/111/15
f 112/112/15 113/113/15 114/114/15
f 115/115/15 116/116/15 117/117/15
f 118/118/15 119/119/15 120/120/15
f 121/121/16 122/122/16 123/123/16
f 124/124/16 125/125/16 126/126/16
f 127/127/17 128/128/17 129/129/17
f 130/130/17 131/131/17 132/132/17
f 133/133/10 134/134/10 135/135/10
f 136/136/10 137/137/10 138/138/10
f 139/139/10 140/140/10 141/141/10
f 142/142/10 143/143/10 144/144/10
f 145/145/10 146/146/10 147/147/10
f 148/148/10 149/149/10 150/150/10
f 151/151/10 152/152/10 153/153/10
f 154/154/10 155/155/10 156/156/10
f 157/157/10 158/158/10 159/159/10
f 160/160/10 161/161/10 162/162/10
f 163/163/10 164/164/10 165/165/10
f 166/166/10 167/167/10 168/168/10
f 169/169/15 170/170/15 171/171/15
f 172/172/15 173/173/15 174/174/15
f 175/175/15 176/176/15 177/177/15
f 178/178/15 179/179/15 180/180/15
f 181/181/15 182/182/15 183/183/15
f 184/184/15 185/185/15 186/186/15
f 187/187/18 188/188/18 189/189/18
f 190/190/18 191/191/18 192/192/18
f 193/193/18 194/194/18 195/195/18
f 196/196/18 197/197/18 198/198/18
f 199/199/10 200/200/10 201/201/10
f 202/202/10 203/203/10 204/204/10
f 205/205/19 206/206/19 207/207/19
f 208/208/19 209/209/19 210/210/19
f 211/211/20 212/212/20 213/213/20
f 214/214/20 215/215/20 216/216/20
f 217/217/21 218/218/21 219/219/21
f 220/220/22 221/221/22 222/222/22
f 223/223/18 224/224/18 225/225/18
f 226/226/18 227/227/18 228/228/18
f 229/229/10 230/230/10 231/231/10
f 232/232/10 233/233/10 234/234/10
f 235/235/18 236/236/18 237/237/18
f 238/238/10 239/239/10 240/240/10
f 241/241/23 242/242/23 243/243/23
f 244/244/23 245/245/23 246/246/23
f 247/247/23 248/248/23 249/249/23
f 250/250/24 251/251/24 252/252/24
f 253/253/24 254/254/24 255/255/24
f 256/256/15 257/257/15 258/258/15
f 259/259/15 260/260/15 261/261/15
f 262/262/25 263/263/25 264/264/25
f 265/265/25 266/266/25 267/267/25
f 268/268/26 269/269/26 270/270/26
f 271/271/26 272/272/26 273/273/26
o turntable3
v -6.500000 3.600004 -11.049998
v -4.500000 3.600003 -9.349998
v -2.500000 3.600004 -11.049998
v -6.500000 3.600002 -7.649999
v -8.240000 3.600003 -9.349998
v -9.980000 3.600002 -7.649999
v -2.500000 3.600002 -7.649999
v -4.500000 3.600003 -9.349998
v -6.500000 3.600002 -7.649999
v -9.980000 3.600004 -11.049998
v -8.240000 3.600003 -9.349998
v -6.500000 3.600004 -11.049998
v -6.500000 3.600002 -7.649999
v -6.500000 3.600004 -11.049998
v -8.240000 3.600003 -9.349998
v -9.980000 3.600004 -11.049998
v -9.980000 3.600002 -7.649999
v -8.240000 3.600003 -9.349998
v -2.500000 3.600002 -7.649999
v -2.500000 3.600004 -11.049998
v -4.500000 3.600003 -9.349998
v -6.500000 3.600004 -11.049998
v -6.500000 3.600002 -7.649999
v -4.500000 3.600003 -9.349998
vt 0.460940 1.000000
vt 0.726560 0.773440
vt 0.992190 1.000000
vt 0.460940 0.550780
vt 0.226560 0.773440
vt 0.000000 0.550780
vt 0.992190 0.550780
vt 0.726560 0.773440
vt 0.460940 0.550780
vt 0.000000 1.000000
vt 0.226560 0.773440
vt 0.460940 1.000000
vt 0.460940 0.550780
vt 0.460940 1.000000
vt 0.226560 0.773440
vt 0.000000 1.000000
vt 0.000000 0.550780
vt 0.226560 0.773440
vt 0.992190 0.550780
vt 0.992190 1.000000
vt 0.726560 0.773440
vt 0.460940 1.000000
vt 0.460940 0.550780
vt 0.726560 0.773440
vn 0.0000 1.0000 0.0000
usemtl material2
s 1
f 274/274/27 275/275/27 276/276/27
f 277/277/27 278/278/27 279/279/27
f 280/280/27 281/281/27 282/282/27
f 283/283/27 284/284/27 285/285/27
f 286/286/27 287/287/27 288/288/27
f 289/289/27 290/290/27 291/291/27
f 292/292/27 293/293/27 294/294/27
f 295/295/27 296/296/27 297/297/27
o turntable2
v -10.860000 2.120002 -7.649999
v -10.660000 0.800002 -7.650000
v -10.300000 2.600002 -7.649999
v -2.260000 1.160002 -7.650000
v -2.060000 2.120002 -7.649999
v -2.780000 1.720002 -7.649999
v -6.500000 4.400003 -7.649998
v -10.620000 4.280003 -7.649999
v -10.219999 4.000002 -7.649999
v -6.500000 4.400003 -7.649998
v -11.259999 4.400003 -7.649998
v -10.620000 4.280003 -7.649999
v -2.780000 1.720002 -7.649999
v -2.500000 0.880002 -7.650000
v -2.260000 1.160002 -7.650000
v -2.780000 1.720002 -7.649999
v -2.740000 1.040002 -7.650000
v -2.500000 0.880002 -7.650000
v -6.500000 3.600002 -7.649999
v -2.540000 4.400003 -7.649998
v -6.500000 4.400003 -7.649998
v -6.500000 3.600002 -7.649999
v -2.500000 3.600002 -7.649999
v -2.540000 4.400003 -7.649998
v -10.219999 4.000002 -7.649999
v -6.500000 3.600002 -7.649999
v -6.500000 4.400003 -7.649998
v -10.219999 4.000002 -7.649999
v -9.980000 3.600002 -7.649999
v -6.500000 3.600002 -7.649999
v -6.500000 0.800002 -7.650000
v -9.980000 3.600002 -7.649999
v -10.099999 2.880002 -7.649999
v -6.500000 0.800002 -7.650000
v -6.500000 3.600002 -7.649999
v -9.980000 3.600002 -7.649999
v -10.660000 0.800002 -7.650000
v -10.099999 2.880002 -7.649999
v -10.300000 2.600002 -7.649999
v -10.660000 0.800002 -7.650000
v -6.500000 0.800002 -7.650000
v -10.099999 2.880002 -7.649999
v -6.500000 3.600002 -7.649999
v -3.420000 0.800002 -7.650000
v -3.500000 1.440002 -7.650000
v -6.500000 3.600002 -7.649999
v -6.500000 0.800002 -7.650000
v -3.420000 0.800002 -7.650000
v -2.780000 1.720002 -7.649999
v -1.940000 3.600002 -7.649999
v -2.500000 3.600002 -7.649999
v -2.780000 1.720002 -7.649999
v -2.060000 2.120002 -7.649999
v -1.940000 3.600002 -7.649999
v -3.500000 1.440002 -7.650000
v -2.500000 3.600002 -7.649999
v -6.500000 3.600002 -7.649999
v -3.500000 1.440002 -7.650000
v -2.780000 1.720002 -7.649999
v -2.500000 3.600002 -7.649999
v -1.820000 5.180002 -8.249998
v -1.180000 4.400003 -8.249998
v -1.180000 5.180002 -8.249998
v -1.820000 5.180002 -8.249998
v -1.820000 4.400003 -8.249998
v -1.180000 4.400003 -8.249998
v -2.140000 5.120002 -9.449998
v -0.860000 4.400003 -9.449998
v -0.860000 5.120002 -9.449998
v -2.140000 5.120002 -9.449998
v -2.140000 4.400003 -9.449998
v -0.860000 4.400003 -9.449998
v -2.140000 5.160004 -12.049998
v -0.860000 4.400004 -12.049998
v -0.860000 5.160004 -12.049998
v -2.140000 5.160004 -12.049998
v -2.140000 4.400004 -12.049998
v -0.860000 4.400004 -12.049998
vt 0.039060 0.144530
vt 0.062500 0.003910
vt 0.101560 0.195310
vt 0.960940 0.042970
vt 0.984380 0.144530
vt 0.906250 0.101560
vt 0.507810 0.386720
vt 0.066410 0.375000
vt 0.109380 0.343750
vt 0.507810 0.386720
vt 0.000000 0.386720
vt 0.066410 0.375000
vt 0.906250 0.101560
vt 0.937500 0.011720
vt 0.960940 0.042970
vt 0.906250 0.101560
vt 0.910160 0.027340
vt 0.937500 0.011720
vt 0.507810 0.300780
vt 0.933590 0.386720
vt 0.507810 0.386720
vt 0.507810 0.300780
vt 0.937500 0.300780
vt 0.933590 0.386720
vt 0.109380 0.343750
vt 0.507810 0.300780
vt 0.507810 0.386720
vt 0.109380 0.343750
vt 0.136720 0.300780
vt 0.507810 0.300780
vt 0.507810 0.003910
vt 0.136720 0.300780
vt 0.121090 0.222660
vt 0.507810 0.003910
vt 0.507810 0.300780
vt 0.136720 0.300780
vt 0.062500 0.003910
vt 0.121090 0.222660
vt 0.101560 0.195310
vt 0.062500 0.003910
vt 0.507810 0.003910
vt 0.121090 0.222660
vt 0.507810 0.300780
vt 0.835940 0.003910
vt 0.828130 0.070310
vt 0.507810 0.300780
vt 0.507810 0.003910
vt 0.835940 0.003910
vt 0.906250 0.101560
vt 0.996090 0.300780
vt 0.937500 0.300780
vt 0.906250 0.101560
vt 0.984380 0.144530
vt 0.996090 0.300780
vt 0.828130 0.070310
vt 0.937500 0.300780
vt 0.507810 0.300780
vt 0.828130 0.070310
vt 0.906250 0.101560
vt 0.937500 0.300780
vt 0.250000 0.625000
vt 0.371090 0.480470
vt 0.371090 0.625000
vt 0.250000 0.625000
vt 0.250000 0.480470
vt 0.371090 0.480470
vt 0.375000 0.621090
vt 0.621090 0.488280
vt 0.621090 0.621090
vt 0.375000 0.621090
vt 0.375000 0.488280
vt 0.621090 0.488280
vt 0.000000 0.625000
vt 0.246090 0.480470
vt 0.246090 0.625000
vt 0.000000 0.625000
vt 0.000000 0.480470
vt 0.246090 0.480470
vn 0.0000 -0.0000 1.0000
usemtl material3
s 1
f 298/298/28 299/299/28 300/300/28
f 301/301/28 302/302/28 303/303/28
f 304/304/28 305/305/28 306/306/28
f 307/307/28 308/308/28 309/309/28
f 310/310/28 311/311/28 312/312/28
f 313/313/28 314/314/28 315/315/28
f 316/316/28 317/317/28 318/318/28
f 319/319/28 320/320/28 321/321/28
f 322/322/28 323/323/28 324/324/28
f 325/325/28 326/326/28 327/327/28
f 328/328/28 329/329/28 330/330/28
f 331/331/28 332/332/28 333/333/28
f 334/334/28 335/335/28 336/336/28
f 337/337/28 338/338/28 339/339/28
f 340/340/28 341/341/28 342/342/28
f 343/343/28 344/344/28 345/345/28
f 346/346/28 347/347/28 348/348/28
f 349/349/28 350/350/28 351/351/28
f 352/352/28 353/353/28 354/354/28
f 355/355/28 356/356/28 357/357/28
f 358/358/28 359/359/28 360/360/28
f 361/361/28 362/362/28 363/363/28
f 364/364/28 365/365/28 366/366/28
f 367/367/28 368/368/28 369/369/28
f 370/370/28 371/371/28 372/372/28
f 373/373/28 374/374/28 375/375/28
