{
  "accessors": [
    {
      "bufferView": 0,
      "byteOffset": 0,
      "componentType": 5126,
      "normalized": false,
      "count": 4,
      "type": "VEC3",
      "max": [
        3.9429380893707275,
        4.695997714996338,
        -0.15656158328056335
      ],
      "min": [
        -3.943108081817627,
        -4.720816135406494,
        -0.25957605242729187
      ],
      "name": "part0_vertices"
    },
    {
      "bufferView": 1,
      "byteOffset": 0,
      "componentType": 5126,
      "normalized": false,
      "count": 4,
      "type": "VEC3",
      "max": [
        0.000244140625,
        -0.010498046875,
        0.999755859375
      ],
      "min": [
        0.000244140625,
        -0.010498046875,
        0.999755859375
      ],
      "name": "part0_normals"
    },
    {
      "bufferView": 2,
      "byteOffset": 0,
      "componentType": 5126,
      "normalized": false,
      "count": 4,
      "type": "VEC2",
      "max": [
        0.0625,
        0.06243896484375
      ],
      "min": [
        0.0,
        0.0
      ],
      "name": "part0_uvs"
    },
    {
      "bufferView": 3,
      "byteOffset": 0,
      "componentType": 5123,
      "normalized": false,
      "count": 4,
      "type": "VEC4",
      "max": [
        1,
        0,
        0,
        0
      ],
      "min": [
        1,
        0,
        0,
        0
      ],
      "name": "part0_joints"
    },
    {
      "bufferView": 4,
      "byteOffset": 0,
      "componentType": 5126,
      "normalized": false,
      "count": 4,
      "type": "VEC4",
      "max": [
        1.0,
        0.0,
        0.0,
        0.0
      ],
      "min": [
        1.0,
        0.0,
        0.0,
        0.0
      ],
      "name": "part0_weights"
    },
    {
      "bufferView": 5,
      "byteOffset": 0,
      "componentType": 5123,
      "normalized": false,
      "count": 6,
      "type": "SCALAR",
      "max": [
        3
      ],
      "min": [
        0
      ],
      "name": "part0_indices"
    },
    {
      "bufferView": 0,
      "byteOffset": 48,
      "componentType": 5126,
      "normalized": false,
      "count": 68,
      "type": "VEC3",
      "max": [
        5.502264022827148,
        5.565160751342773,
        0.7275608777999878
      ],
      "min": [
        -5.502434253692627,
        -5.569920539855957,
        -0.9266201853752136
      ],
      "name": "part1_vertices"
    },
    {
      "bufferView": 1,
      "byteOffset": 48,
      "componentType": 5126,
      "normalized": false,
      "count": 68,
      "type": "VEC3",
      "max": [
        0.999755859375,
        0.998779296875,
        0.925048828125
      ],
      "min": [
        -0.999755859375,
        -0.998779296875,
        -1.0
      ],
      "name": "part1_normals"
    },
    {
      "bufferView": 2,
      "byteOffset": 32,
      "componentType": 5126,
      "normalized": false,
      "count": 68,
      "type": "VEC2",
      "max": [
        0.12274169921875,
        0.03125
      ],
      "min": [
        0.070556640625,
        0.0
      ],
      "name": "part1_uvs"
    },
    {
      "bufferView": 3,
      "byteOffset": 32,
      "componentType": 5123,
      "normalized": false,
      "count": 68,
      "type": "VEC4",
      "max": [
        1,
        0,
        0,
        0
      ],
      "min": [
        1,
        0,
        0,
        0
      ],
      "name": "part1_joints"
    },
    {
      "bufferView": 4,
      "byteOffset": 64,
      "componentType": 5126,
      "normalized": false,
      "count": 68,
      "type": "VEC4",
      "max": [
        1.0,
        0.0,
        0.0,
        0.0
      ],
      "min": [
        1.0,
        0.0,
        0.0,
        0.0
      ],
      "name": "part1_weights"
    },
    {
      "bufferView": 5,
      "byteOffset": 12,
      "componentType": 5123,
      "normalized": false,
      "count": 102,
      "type": "SCALAR",
      "max": [
        67
      ],
      "min": [
        0
      ],
      "name": "part1_indices"
    },
    {
      "bufferView": 0,
      "byteOffset": 864,
      "componentType": 5126,
      "normalized": false,
      "count": 16,
      "type": "VEC3",
      "max": [
        4.41721248626709,
        4.960163116455078,
        0.12613321840763092
      ],
      "min": [
        -4.4170427322387695,
        -4.955233573913574,
        0.023118756711483
      ],
      "name": "part2_vertices"
    },
    {
      "bufferView": 1,
      "byteOffset": 864,
      "componentType": 5126,
      "normalized": false,
      "count": 16,
      "type": "VEC3",
      "max": [
        0.000244140625,
        0.02734375,
        0.99951171875
      ],
      "min": [
        0.000244140625,
        0.02734375,
        0.99951171875
      ],
      "name": "part2_normals"
    },
    {
      "bufferView": 2,
      "byteOffset": 576,
      "componentType": 5126,
      "normalized": false,
      "count": 16,
      "type": "VEC2",
      "max": [
        0.0703125,
        0.03900146484375
      ],
      "min": [
        0.0625,
        0.03125
      ],
      "name": "part2_uvs"
    },
    {
      "bufferView": 3,
      "byteOffset": 576,
      "componentType": 5123,
      "normalized": false,
      "count": 16,
      "type": "VEC4",
      "max": [
        1,
        0,
        0,
        0
      ],
      "min": [
        1,
        0,
        0,
        0
      ],
      "name": "part2_joints"
    },
    {
      "bufferView": 4,
      "byteOffset": 1152,
      "componentType": 5126,
      "normalized": false,
      "count": 16,
      "type": "VEC4",
      "max": [
        1.0,
        0.0,
        0.0,
        0.0
      ],
      "min": [
        1.0,
        0.0,
        0.0,
        0.0
      ],
      "name": "part2_weights"
    },
    {
      "bufferView": 5,
      "byteOffset": 216,
      "componentType": 5123,
      "normalized": false,
      "count": 24,
      "type": "SCALAR",
      "max": [
        15
      ],
      "min": [
        0
      ],
      "name": "part2_indices"
    },
    {
      "bufferView": 6,
      "byteOffset": 0,
      "componentType": 5126,
      "normalized": false,
      "count": 2,
      "type": "MAT4",
      "max": [
        1.0,
        0.0,
        0.0,
        0.0,
        0.0,
        1.0,
        0.0,
        0.0,
        0.0,
        0.0,
        1.0,
        0.0,
        0.0,
        0.0,
        0.0,
        1.0
      ],
      "min": [
        1.0,
        0.0,
        0.0,
        0.0,
        0.0,
        1.0,
        0.0,
        0.0,
        0.0,
        0.0,
        1.0,
        0.0,
        0.0,
        0.0,
        0.0,
        1.0
      ],
      "name": "inverse_matrix"
    }
  ],
  "asset": {
    "generator": "klonoa2-tools (https://github.com/evilarceus/klonoa2-tools)",
    "copyright": "Models by Namco, extracted by t4ils",
    "version": "2.0"
  },
  "bufferViews": [
    {
      "buffer": 0,
      "byteOffset": 0,
      "byteLength": 1056,
      "byteStride": 12,
      "target": 34962,
      "name": "vertices"
    },
    {
      "buffer": 0,
      "byteOffset": 1056,
      "byteLength": 1056,
      "byteStride": 12,
      "target": 34962,
      "name": "normals"
    },
    {
      "buffer": 0,
      "byteOffset": 2112,
      "byteLength": 704,
      "byteStride": 8,
      "target": 34962,
      "name": "uvs"
    },
    {
      "buffer": 0,
      "byteOffset": 2816,
      "byteLength": 704,
      "byteStride": 8,
      "name": "joints"
    },
    {
      "buffer": 0,
      "byteOffset": 3520,
      "byteLength": 1408,
      "byteStride": 16,
      "target": 34962,
      "name": "weights"
    },
    {
      "buffer": 0,
      "byteOffset": 4928,
      "byteLength": 264,
      "target": 34963,
      "name": "indices"
    },
    {
      "buffer": 0,
      "byteOffset": 5192,
      "byteLength": 128,
      "name": "inverse_matrix"
    }
  ],
  "buffers": [
    {
      "uri": "data:application/gltf-buffer;base64,",
      "byteLength": 5320
    }
  ],
  "images": [
    {
      "uri": "Maze of Memories Painting 1.png",
      "name": "Maze of Memories Painting 1.png"
    }
  ],
  "materials": [
    {
      "pbrMetallicRoughness": {
        "baseColorFactor": [
          1,
          1,
          1,
          1
        ],
        "metallicFactor": 0,
        "roughnessFactor": 1,
        "baseColorTexture": {
          "index": 0,
          "texCoord": 0
        }
      },
      "emissiveFactor": [
        0,
        0,
        0
      ],
      "alphaMode": "OPAQUE",
      "doubleSided": true,
      "name": "mtl0"
    }
  ],
  "meshes": [
    {
      "primitives": [
        {
          "attributes": {
            "POSITION": 0,
            "NORMAL": 1,
            "TEXCOORD_0": 2,
            "JOINTS_0": 3,
            "WEIGHTS_0": 4
          },
          "indices": 5,
          "mode": 4,
          "material": 0
        }
      ],
      "name": "part0"
    },
    {
      "primitives": [
        {
          "attributes": {
            "POSITION": 6,
            "NORMAL": 7,
            "TEXCOORD_0": 8,
            "JOINTS_0": 9,
            "WEIGHTS_0": 10
          },
          "indices": 11,
          "mode": 4,
          "material": 0
        }
      ],
      "name": "part1"
    },
    {
      "primitives": [
        {
          "attributes": {
            "POSITION": 12,
            "NORMAL": 13,
            "TEXCOORD_0": 14,
            "JOINTS_0": 15,
            "WEIGHTS_0": 16
          },
          "indices": 17,
          "mode": 4,
          "material": 0
        }
      ],
      "name": "part2"
    }
  ],
  "nodes": [
    {
      "mesh": 0,
      "skin": 0,
      "name": "part0"
    },
    {
      "mesh": 1,
      "skin": 0,
      "name": "part1"
    },
    {
      "mesh": 2,
      "skin": 0,
      "name": "part2"
    },
    {
      "children": [
        4
      ],
      "name": "root_joint"
    },
    {
      "translation": [
        0.0,
        0.0,
        0.0
      ],
      "name": "joint0"
    }
  ],
  "samplers": [
    {
      "magFilter": 9728,
      "minFilter": 9728,
      "wrapS": 10497,
      "wrapT": 10497
    }
  ],
  "scene": 0,
  "scenes": [
    {
      "nodes": [
        0,
        1,
        2,
        3
      ]
    }
  ],
  "skins": [
    {
      "inverseBindMatrices": 18,
      "skeleton": 3,
      "joints": [
        3,
        4
      ]
    }
  ],
  "textures": [
    {
      "sampler": 0,
      "source": 0,
      "name": "Maze of Memories Painting 1.png"
    }
  ]
}