# Blender v2.76 (sub 0) OBJ File: 'AnimalCrossing.blend'
# www.blender.org
mtllib fobj_arch_flower.mtl
o vsn_mesh_1__mesh_1_
v -22.777939 53.707008 8.560322
v -17.571560 69.000771 8.560325
v -30.912920 60.214989 8.560323
v -13.015969 60.540390 8.560323
v -35.468510 49.802219 8.560322
v -18.547750 50.453011 0.099943
v -25.706539 46.222820 8.560321
v -19.849350 72.905556 0.099946
v 0.000000 71.278557 8.560325
v 0.000000 75.834145 0.099947
v -36.444710 33.857658 8.560319
v -40.024097 51.429207 0.099943
v -41.325699 33.857658 0.099940
v -10.738170 56.310200 0.099944
v -21.150949 44.595829 0.099942
v -34.166920 63.143589 0.099945
v 17.571560 69.000771 8.560325
v 0.000000 62.492790 8.560324
v 13.015969 60.540390 8.560323
v -36.444710 -0.309259 8.560313
v -26.682730 33.857658 8.560319
v -26.682730 -0.309259 8.560313
v 19.849350 72.905556 0.099946
v 10.738170 56.310200 0.099944
v 22.777939 53.707008 8.560322
v 18.547750 50.453011 0.099943
v 0.000000 57.937187 0.099944
v -41.325699 -0.309258 0.099935
v -21.801750 -0.309258 0.099935
v -21.801750 33.857658 0.099940
v 30.912920 60.214989 8.560323
v 34.166920 63.143589 0.099945
v 25.706539 46.222820 8.560321
v 21.150949 44.595829 0.099942
v 40.024097 51.429207 0.099943
v 35.468510 49.802219 8.560322
v 26.682730 33.857658 8.560319
v 21.801750 33.857658 0.099940
v 41.325699 33.857658 0.099940
v 36.444710 33.857658 8.560319
v 21.801750 -0.309258 0.099935
v 36.444710 -0.309259 8.560313
v 41.325699 -0.309258 0.099935
v 26.682730 -0.309259 8.560313
vt 0.667879 0.757551
vt 0.344818 0.884195
vt 0.344818 0.757551
vt 0.667879 0.884195
vt 0.344818 0.640394
vt 0.992017 0.757551
vt 0.667879 0.640394
vt 0.020680 0.884195
vt 0.344818 1.000000
vt 0.020680 1.000000
vt 0.344818 0.528234
vt 0.020680 0.640394
vt 0.020680 0.528234
vt 0.992017 0.884195
vt 0.992017 0.640394
vt 0.020680 0.757551
vt 0.667879 1.000000
vt 0.344818 0.210938
vt 0.667879 0.528234
vt 0.667879 0.210938
vt 0.992017 1.000000
vt 0.020680 0.210938
vt 0.992017 0.210938
vt 0.992017 0.528234
vn 0.320900 -0.251900 0.913000
vn -0.194000 0.531200 0.824700
vn -0.437100 0.374800 0.817600
vn 0.169800 -0.407500 0.897200
vn -0.526200 0.126200 0.840900
vn 0.667900 -0.533200 0.519200
vn 0.449300 -0.109400 0.886700
vn -0.326200 0.824000 0.463200
vn 0.000000 0.542500 0.840100
vn 0.000000 0.884800 0.465900
vn -0.507200 0.015700 0.861700
vn -0.845500 0.224700 0.484300
vn -0.867400 0.028200 0.496800
vn 0.329500 -0.806200 0.491400
vn 0.842400 -0.205200 0.498200
vn -0.668300 0.584900 0.459500
vn 0.194000 0.531200 0.824700
vn 0.000000 -0.474900 0.880000
vn -0.169800 -0.407500 0.897200
vn -0.500100 0.000000 0.865900
vn 0.492200 -0.016800 0.870300
vn 0.500100 0.000000 0.865900
vn 0.326200 0.824000 0.463200
vn -0.329500 -0.806200 0.491400
vn -0.320900 -0.251900 0.913000
vn -0.667900 -0.533200 0.519200
vn 0.000000 -0.880500 0.474100
vn -0.866200 0.000000 0.499700
vn 0.866200 0.000000 0.499700
vn 0.865900 -0.026500 0.499500
vn 0.437100 0.374800 0.817600
vn 0.668300 0.584900 0.459500
vn -0.449300 -0.109400 0.886700
vn -0.842400 -0.205200 0.498200
vn 0.845500 0.224700 0.484300
vn 0.526200 0.126200 0.840900
vn -0.492200 -0.016800 0.870300
vn -0.865900 -0.026500 0.499500
vn 0.867400 0.028200 0.496800
vn 0.507200 0.015700 0.861700
usemtl m_0_default_mat
s 1
f 1/1/1 2/2/2 3/3/3
f 1/1/1 4/4/4 2/2/2
f 1/1/1 3/3/3 5/5/5
f 1/1/1 6/6/6 4/4/4
f 1/1/1 5/5/5 7/7/7
f 1/1/1 7/7/7 6/6/6
f 2/2/2 8/8/8 3/3/3
f 2/2/2 4/4/4 9/9/9
f 2/2/2 10/10/10 8/8/8
f 2/2/2 9/9/9 10/10/10
f 5/5/5 11/11/11 7/7/7
f 5/5/5 3/3/3 12/12/12
f 5/5/5 13/13/13 11/11/11
f 5/5/5 12/12/12 13/13/13
f 6/6/6 14/14/14 4/4/4
f 6/6/6 7/7/7 15/15/15
f 8/8/8 16/16/16 3/3/3
f 3/3/3 16/16/16 12/12/12
f 9/9/9 17/2/17 10/10/10
f 9/9/9 4/4/4 18/17/18
f 9/9/9 19/4/19 17/2/17
f 9/9/9 18/17/18 19/4/19
f 4/4/4 14/14/14 18/17/18
f 11/11/11 13/13/13 20/18/20
f 11/11/11 21/19/21 7/7/7
f 11/11/11 20/18/20 22/20/22
f 11/11/11 22/20/22 21/19/21
f 7/7/7 21/19/21 15/15/15
f 10/10/10 17/2/17 23/8/23
f 19/4/19 18/17/18 24/14/24
f 19/4/19 25/1/25 17/2/17
f 19/4/19 24/14/24 26/6/26
f 19/4/19 26/6/26 25/1/25
f 14/14/14 27/21/27 18/17/18
f 18/17/18 27/21/27 24/14/24
f 13/13/13 28/22/28 20/18/20
f 22/20/22 29/23/29 21/19/21
f 15/15/15 21/19/21 30/24/30
f 30/24/30 21/19/21 29/23/29
f 23/8/23 17/2/17 31/3/31
f 23/8/23 31/3/31 32/16/32
f 17/2/17 25/1/25 31/3/31
f 26/6/26 33/7/33 25/1/25
f 26/6/26 34/15/34 33/7/33
f 32/16/32 31/3/31 35/12/35
f 25/1/25 33/7/33 36/5/36
f 25/1/25 36/5/36 31/3/31
f 31/3/31 36/5/36 35/12/35
f 34/15/34 37/19/37 33/7/33
f 34/15/34 38/24/38 37/19/37
f 36/5/36 39/13/39 35/12/35
f 36/5/36 33/7/33 40/11/40
f 36/5/36 40/11/40 39/13/39
f 33/7/33 37/19/37 40/11/40
f 38/24/38 41/23/28 37/19/37
f 39/13/39 40/11/40 42/18/22
f 39/13/39 42/18/22 43/22/29
f 41/23/28 44/20/20 37/19/37
f 44/20/20 42/18/22 40/11/40
f 44/20/20 40/11/40 37/19/37
o vsn_mesh_0__mesh_0_.001
v -29.682690 27.533567 12.030635
v -25.947319 32.016010 9.042336
v -35.285740 30.895397 10.162945
v -24.826710 22.304047 9.415872
v -34.165131 21.556978 10.536484
v -15.114739 76.840446 6.427584
v -9.511688 77.587517 3.065752
v -18.476580 78.334587 0.824530
v -11.752910 71.610931 10.162951
v -20.717800 72.358009 8.295269
v -25.947319 14.459767 11.657091
v -23.706089 18.195137 6.801112
v -31.923910 17.074528 10.910023
v -21.464869 9.230253 9.042333
v -29.682690 8.109640 12.777700
v 30.083229 37.245525 12.777705
v 34.192139 41.354427 9.789412
v 24.853720 39.860291 9.415874
v 35.686291 32.016006 12.030635
v 26.347858 30.521858 12.030635
v 23.359570 48.078098 11.283557
v 29.336159 51.066399 10.536489
v 20.744810 52.934078 7.921729
v 27.468479 41.727970 10.536487
v 18.503590 43.595657 7.921727
v -21.838409 45.836880 10.162948
v -18.850109 49.945789 5.680506
v -26.320848 50.692860 10.910028
v -19.970720 40.233829 6.054042
v -27.441469 41.354427 11.283556
v 25.600790 14.833307 12.404162
v 30.830309 18.942217 10.536483
v 21.865419 18.195137 7.921723
v 30.830309 9.230253 12.777701
v 21.865419 8.856714 9.789407
v 37.927509 26.412958 12.404164
v 42.036419 29.401247 7.921725
v 33.445068 31.268938 10.910025
v 40.915810 20.062828 10.162943
v 32.324459 21.930508 13.151243
v 23.733099 69.369705 10.162951
v 28.962620 67.502029 6.427583
v 22.238960 73.478615 4.933436
v 22.986029 62.646046 12.404170
v 16.262369 68.622627 10.536491
v -17.729500 63.766644 12.404170
v -15.861819 68.622627 8.295269
v -24.079630 64.140198 9.415878
v -11.005839 60.404819 11.283559
v -19.223650 56.295914 12.777709
v 12.526990 62.646046 12.777710
v 16.635900 67.128487 9.789415
v 7.297476 65.634338 9.789415
v 18.130049 57.790066 12.404169
v 9.165161 56.295914 12.030640
v -0.920338 71.237396 12.777711
v 3.935643 74.225685 9.042343
v -5.402781 74.225685 9.042343
v 3.935643 65.260796 13.151250
v -5.402781 65.260796 13.151250
v 15.515289 76.466919 5.680511
v 21.118349 74.599228 1.945140
v 12.526990 77.587517 0.077455
v 17.756510 70.863861 10.162951
v 9.165161 73.478615 8.295270
v 36.433357 59.284210 10.910029
v 38.674580 63.393120 6.054046
v 30.456770 62.272507 9.789415
v 40.915810 54.054699 7.921729
v 32.324459 52.934074 12.030639
v -36.032810 60.778358 9.415877
v -29.309149 61.898968 10.162951
v -36.032810 65.260796 4.186360
v -34.538670 53.681160 10.910028
v -41.262341 57.416527 5.306971
v -35.285740 42.101505 12.404166
v -28.935610 42.475048 11.283556
v -36.406349 47.331028 8.668801
v -34.165131 34.630764 12.030636
v -41.635868 39.486748 9.415874
v -30.803299 25.292347 7.548187
v -40.888790 11.845008 13.151241
v -27.441469 14.459767 12.030632
v -44.250629 22.677588 8.668797
v -39.021111 9.603790 9.415870
v -43.130020 22.304049 -1.790238
v -45.744778 10.350870 -1.043166
v -36.032810 21.556978 8.668797
v -32.670979 43.222118 7.174653
v -36.779888 27.907097 13.524775
v -25.200239 33.883698 10.910026
v -44.250629 37.245529 10.162946
v -47.612457 21.183437 7.174649
v -35.659279 26.786489 -5.152071
v -47.986004 21.556980 -5.152071
v -35.285740 26.786488 6.801113
v -39.021111 41.727970 0.824524
v -43.130020 25.665880 5.306965
v -34.912209 34.257229 9.789411
v -46.865387 33.136620 -3.657922
v -35.285740 16.327457 6.427575
v -39.394650 1.012438 13.524770
v -28.562078 8.856714 14.271852
v -45.744778 8.483180 5.680500
v -37.526958 52.560547 10.910028
v -38.647579 59.284210 -4.778528
v -44.624168 49.945789 0.824525
v -31.550369 61.898968 5.306971
v -30.429760 62.646049 7.921730
v -29.309149 71.237396 -6.646212
v -37.900497 63.019577 -2.163769
v -21.838409 71.237396 3.439288
v -27.067930 67.502029 7.921731
v -13.247060 78.708138 2.692215
v -27.067930 77.587517 1.198067
v -13.247060 68.622627 9.415879
v -31.176828 16.327457 6.427575
v -20.717800 3.253660 12.777700
v -17.729500 13.712699 7.174648
v -34.165131 5.868418 12.030631
v -17.729500 35.377850 -2.910847
v -25.947319 28.654177 10.536485
v -16.608891 24.918810 2.692206
v -26.694389 39.113220 4.933430
v -22.959019 46.583950 4.186357
v -28.562078 33.136616 13.524776
v -19.597189 35.004311 4.559893
v -31.550369 45.089806 13.524777
v -21.464869 47.331028 -7.766826
v -19.970720 37.992599 6.427578
v -15.114739 37.245529 -4.778532
v -26.320848 48.451637 3.439284
v -26.694389 58.163597 6.801118
v -33.791599 44.716267 15.392467
v -21.464869 47.704567 10.910028
v -39.394650 55.175308 11.283558
v -37.153431 39.860291 9.042337
v -43.877090 46.210419 -5.525604
v -44.250629 35.377850 -0.296088
v -36.779888 50.692860 3.439284
v -34.538670 63.019577 9.415878
v -22.585480 72.358009 -0.296082
v -36.032810 70.490326 -0.296082
v -21.091339 65.260796 9.415878
v -16.982430 64.513725 10.910030
v -8.017541 50.692860 4.933432
v -3.908634 61.898968 7.921730
v -21.091339 53.307617 7.548192
v -17.729500 64.513725 7.548193
v -26.694389 50.319313 13.151248
v -13.620600 53.307617 10.162949
v -30.803299 61.898968 10.910030
v -18.103039 58.910679 1.198064
v -17.355970 42.101509 1.945135
v -13.994129 50.319317 -6.272678
v -21.838409 50.692860 9.415876
v -10.258759 70.116791 9.789416
v -18.476580 75.719841 -4.778525
v -23.332560 70.116791 4.933435
v -5.402781 75.719841 -0.296082
v -1.667412 79.455215 -6.646210
v -6.149856 71.984467 8.295269
v 5.803329 75.346306 2.692214
v -13.620600 76.093376 -1.043156
v -18.103039 14.086239 3.065741
v -25.947319 29.027718 6.427577
v -27.441469 17.821608 10.162943
v -16.235359 25.665880 -0.669627
v -22.211950 16.700989 1.945131
v -19.223650 -0.108170 3.439276
v -14.741210 8.483182 -4.031464
v -26.320848 7.736105 9.415869
v 32.697990 40.607361 6.427578
v 22.986029 27.160027 14.271854
v 36.433357 29.401247 10.536485
v 18.877119 38.366138 10.162947
v 37.553970 30.521858 7.174651
v 43.530560 15.580379 -0.669628
v 43.904110 27.533569 -3.657923
v 37.180439 18.195137 10.162943
v 32.697990 24.171728 8.295261
v 36.433357 7.736104 14.645391
v 44.277637 17.074528 9.042334
v 24.853720 15.206848 13.524773
v 24.480179 26.786489 1.571595
v 20.371269 9.977328 5.306962
v 26.721399 19.315748 11.657092
v 17.756510 17.448069 -4.404999
v 42.409958 12.218549 6.801111
v 28.962620 1.759512 14.645390
v 42.783489 0.638903 11.283549
v 28.589088 13.339158 10.162942
v 43.904110 53.307617 -7.393289
v 39.048119 46.210419 8.295265
v 46.145317 42.475048 -1.790235
v 36.433357 57.416527 2.692211
v 40.915810 24.918808 9.415872
v 41.662880 38.739677 -1.790236
v 35.686291 36.871990 9.415874
v 46.892399 26.412960 -1.790238
v 43.904110 42.848579 -5.152068
v 37.927509 35.377850 9.789411
v 45.398251 31.268940 0.077448
v 36.433357 46.583950 4.559895
v 44.651180 15.580379 -1.790239
v 37.927509 4.000734 10.536481
v 46.892399 3.253662 0.450980
v 35.686291 15.953918 8.295260
v 40.542271 55.922379 -0.669622
v 33.071529 49.572247 14.645397
v 44.651180 46.957489 7.548191
v 28.962620 58.537140 6.801118
v 27.094940 64.887268 7.548193
v 21.865419 76.093376 -5.152062
v 16.262369 73.105087 6.054047
v 32.697990 67.875557 -3.657916
v 5.803329 70.116791 8.668805
v 13.647610 79.081665 -5.152062
v 0.200273 77.587517 -0.669618
v 19.250660 71.610931 3.812825
v 23.733099 13.712700 -2.537314
v 18.877119 1.385977 9.415868
v 28.589088 10.724398 9.042333
v 14.021140 4.374276 -1.790241
v 24.106640 48.078098 1.945136
v 18.877119 30.895399 3.439281
v 26.347858 39.113220 10.536487
v 16.635900 39.860291 -5.152068
v 25.600790 36.124920 4.559893
v 17.009439 20.809900 0.450983
v 26.347858 24.545267 9.042335
v 16.262369 32.389549 -4.031460
v 36.059818 57.790070 8.668803
v 32.697990 67.502029 -5.899138
v 27.842009 67.875557 6.054046
v 40.915810 57.790070 -2.910844
v 22.238960 64.140198 6.801119
v 27.468479 49.572247 16.139538
v 34.565678 59.284210 11.283559
v 15.141749 54.428230 11.657098
v 30.456770 49.945789 7.921728
v 44.277637 37.245529 11.657095
v 44.651180 48.451637 6.054043
v 30.083229 38.366135 13.524776
v 24.106640 63.393120 10.536490
v 36.806900 70.863861 -1.416693
v 23.359570 72.731537 2.318677
v 37.927509 61.525440 7.174656
v 1.320884 66.007881 7.548194
v 10.285769 51.439930 0.824525
v 14.768220 61.525440 7.174656
v -3.161560 55.922379 1.198063
v 7.297476 60.031288 8.668803
v 16.262369 75.719841 10.536492
v 2.441495 71.984467 8.668805
v 20.744810 64.140198 10.536490
v 6.550403 58.910679 10.162950
v -7.644004 71.610931 9.415879
v -8.017541 59.284210 10.536489
v 6.550403 71.610931 9.042342
v 19.250660 59.657749 8.295267
v 16.262369 43.969200 -0.296087
v 26.721399 48.825180 7.174654
v 8.791624 54.801769 0.824526
v -4.655708 66.381416 9.415878
v 4.309180 82.069969 6.801122
v -9.138152 77.587517 5.306974
v 8.791624 70.863861 10.910031
vt 0.500000 0.500000
vt 0.000000 0.000000
vt 0.500000 0.000000
vt 0.000000 0.500000
vt 1.000000 0.500000
vt 1.000000 0.000000
vt 0.236078 0.750000
vt 0.000000 1.000000
vt 0.500000 1.000000
vt 0.750000 0.750000
vt 1.000000 1.000000
vt 0.250000 0.750000
vn 0.002500 0.383000 0.923700
vn -0.815100 0.212000 0.539100
vn -0.796700 0.234000 0.557300
vn 0.012700 0.380100 0.924900
vn 0.047400 0.371700 0.927100
vn -0.390200 0.919900 0.039700
vn -0.413400 0.910400 0.012900
vn -0.704400 0.352200 0.616300
vn -0.723800 0.350900 0.594100
vn -0.395700 0.471400 0.788100
vn -0.409600 0.471700 0.780800
vn -0.696500 0.640200 0.324100
vn -0.511500 0.756800 0.407000
vn -0.536800 0.744200 0.397600
vn -0.133700 0.549700 0.824600
vn 0.040800 0.462700 0.885600
vn 0.677800 0.402300 0.615400
vn 0.693800 0.377900 0.613000
vn 0.667400 0.216700 0.712500
vn 0.709900 0.177500 0.681500
vn 0.767000 0.570100 0.294400
vn 0.781800 0.555600 0.283200
vn 0.208400 0.446100 0.870400
vn 0.201300 0.449700 0.870200
vn -0.824600 0.268700 0.497700
vn -0.815700 0.287700 0.501900
vn -0.108300 0.779800 0.616500
vn -0.131800 0.790600 0.598000
vn 0.153400 -0.306700 0.939400
vn 0.122300 -0.326100 0.937400
vn 0.153300 0.277500 0.948400
vn 0.193400 0.252100 0.948200
vn 0.901800 0.059100 0.428000
vn 0.884800 0.059900 0.462100
vn -0.160400 0.887600 0.431900
vn -0.146000 0.893000 0.425800
vn -0.049000 0.899200 0.434900
vn 0.637900 0.165700 0.752100
vn 0.616600 0.149800 0.772800
vn 0.731400 0.188300 0.655400
vn 0.746500 0.189400 0.637900
vn 0.185000 0.392100 0.901100
vn 0.179200 0.395900 0.900600
vn 0.870000 0.093800 0.484100
vn 0.868600 0.091700 0.487000
vn 0.180700 0.389900 0.902900
vn 0.162200 0.387500 0.907500
vn -0.858500 0.302000 0.414500
vn -0.833700 0.306000 0.459800
vn 0.248000 0.356700 0.900700
vn 0.814700 0.390300 0.428800
vn 0.806000 0.404200 0.432400
vn 0.800900 0.350400 0.485600
vn 0.809000 0.343200 0.477200
vn 0.811100 0.324400 0.486700
vn 0.804600 0.335800 0.489800
vn 0.733000 0.248400 0.633200
vn 0.727200 0.255800 0.637000
vn 0.480600 0.702000 0.525500
vn 0.496200 0.689300 0.527900
vn 0.500400 0.741000 0.447800
vn 0.104500 0.806200 0.582300
vn 0.123700 0.799000 0.588500
vn -0.617400 0.659300 0.429100
vn -0.604900 0.664200 0.439200
vn -0.807400 0.290400 0.513600
vn -0.706400 0.215400 0.674200
vn 0.711400 0.649400 0.268700
vn 0.685700 0.668700 0.287600
vn -0.110600 0.507900 0.854300
vn 0.162400 0.436900 0.884700
vn 0.151000 0.426600 0.891700
vn 0.286300 0.645800 0.707800
vn 0.259700 0.670500 0.695000
vn -0.137100 -0.483400 0.864600
vn -0.120700 -0.049000 0.991500
vn -0.123100 -0.047700 0.991200
vn 0.027800 0.089700 0.995600
vn 0.026200 0.087900 0.995800
vn -0.417900 -0.373800 0.828000
vn -0.194300 0.268300 0.943600
vn 0.120200 0.101700 0.987500
vn 0.325900 0.321200 0.889200
vn -0.165200 0.254100 0.952900
vn 0.338400 -0.150200 0.928900
vn -0.077700 -0.186500 0.979300
vn -0.067300 0.800700 0.595300
vn 0.177300 0.856000 0.485700
vn -0.234000 0.895200 0.379100
vn 0.071300 0.609700 0.789400
vn -0.289400 0.653200 0.699600
vn 0.372900 0.339500 0.863500
vn 0.523600 0.541200 0.658000
vn 0.092500 0.463300 0.881300
vn 0.590100 0.105600 0.800300
vn 0.219600 0.042800 0.974600
vn -0.063000 0.292100 0.954300
vn 0.143900 0.483800 0.863200
vn -0.335000 0.416500 0.845100
vn 0.183600 0.056500 0.981400
vn -0.213100 0.009900 0.977000
vn -0.276900 0.102800 0.955400
vn 0.006400 0.230400 0.973100
vn -0.432600 0.344000 0.833400
vn -0.111400 -0.186900 0.976000
vn -0.497000 -0.107300 0.861000
vn 0.575600 -0.012000 0.817600
vn 0.744500 0.164300 0.647000
vn 0.379300 0.211600 0.900700
vn 0.686000 -0.267500 0.676600
vn 0.354900 -0.216300 0.909500
vn -0.304700 0.238100 0.922200
vn -0.038700 0.453900 0.890200
vn -0.525300 0.410200 0.745400
vn -0.087800 -0.015600 0.996000
vn -0.510400 -0.056400 0.858100
vn 0.356700 0.200600 0.912400
vn 0.571800 0.336200 0.748300
vn 0.161500 0.423400 0.891400
vn 0.502700 -0.067600 0.861800
vn 0.127500 0.005900 0.991800
vn 0.330300 0.556700 0.762200
vn 0.616300 0.485300 0.620200
vn 0.252100 0.794600 0.552300
vn 0.300600 0.271300 0.914300
vn -0.014600 0.560100 0.828300
vn -0.040900 0.386200 0.921500
vn 0.059800 0.631300 0.773200
vn -0.369300 0.406400 0.835700
vn 0.276200 0.242300 0.930100
vn -0.106700 0.070900 0.991700
vn -0.067500 0.266500 0.961500
vn 0.125000 0.468400 0.874600
vn -0.283900 0.382500 0.879200
vn 0.141400 0.087300 0.986100
vn -0.217000 0.000000 0.976200
vn -0.012900 0.453300 0.891200
vn 0.227000 0.594900 0.771100
vn -0.233400 0.603100 0.762700
vn 0.193800 0.217200 0.956700
vn -0.197900 0.208300 0.957800
vn 0.171900 0.879600 0.443500
vn 0.476800 0.825300 0.302500
vn 0.017000 0.982100 0.187300
vn 0.288700 0.665800 0.687900
vn -0.118400 0.784400 0.608800
vn 0.371500 0.310100 0.875100
vn 0.516700 0.521000 0.679300
vn 0.070700 0.471100 0.879200
vn 0.608600 0.070000 0.790400
vn 0.212700 0.034700 0.976500
vn -0.451200 0.419400 0.787700
vn -0.175200 0.477400 0.861000
vn -0.486600 0.663300 0.568500
vn -0.415000 0.102900 0.904000
vn -0.699100 0.286800 0.655000
vn -0.162400 0.262700 0.951100
vn 0.151500 0.273800 0.949700
vn -0.247600 0.527400 0.812700
vn -0.138300 -0.070100 0.987900
vn -0.467800 0.138700 0.872800
usemtl m_1_default_mat
s off
f 125/25/41 126/26/41 127/27/41
f 125/25/41 128/28/41 126/26/41
f 129/29/42 130/27/42 131/30/42
f 129/29/43 132/25/43 130/27/43
f 133/25/44 134/26/44 135/27/44
f 133/25/45 136/28/45 134/26/45
f 137/29/46 138/27/46 139/30/46
f 137/29/47 140/25/47 138/27/47
f 141/25/48 142/26/48 143/27/48
f 141/25/49 144/28/49 142/26/49
f 145/25/50 146/26/50 147/27/50
f 145/25/51 148/28/51 146/26/51
f 149/27/52 150/28/52 151/26/52
f 149/27/52 152/25/52 150/28/52
f 153/29/53 154/27/53 155/30/53
f 153/29/54 156/25/54 154/27/54
f 157/27/55 158/28/55 159/26/55
f 157/27/55 160/25/55 158/28/55
f 161/25/56 162/26/56 163/27/56
f 161/25/56 164/28/56 162/26/56
f 165/27/57 166/28/57 167/26/57
f 165/27/58 168/25/58 166/28/58
f 169/25/59 170/26/59 171/27/59
f 169/25/60 172/28/60 170/26/60
f 173/27/61 174/28/61 175/26/61
f 173/27/62 176/25/62 174/28/62
f 177/25/63 178/26/63 179/27/63
f 177/25/64 180/28/64 178/26/64
f 181/27/65 182/28/65 183/26/65
f 181/27/66 184/25/66 182/28/66
f 185/29/67 186/27/67 187/30/67
f 185/29/68 188/25/68 186/27/68
f 189/25/69 190/26/69 191/27/69
f 189/25/70 192/28/70 190/26/70
f 193/25/71 194/26/71 195/27/71
f 193/25/72 196/28/72 194/26/72
f 197/25/73 198/26/73 199/27/73
f 197/25/74 200/28/74 198/26/74
f 201/25/75 202/26/75 203/27/75
f 201/25/76 204/28/76 202/26/76
f 205/30/77 206/25/77 207/27/77
f 205/30/77 208/29/77 206/25/77
f 209/30/78 210/25/78 211/27/78
f 209/30/79 212/29/79 210/25/79
f 213/25/80 214/26/80 215/27/80
f 213/25/81 216/28/81 214/26/81
f 217/25/82 218/26/82 219/28/82
f 217/25/83 220/27/83 218/26/83
f 221/25/84 222/26/84 223/28/84
f 221/25/85 224/27/85 222/26/85
f 225/25/86 226/30/86 227/27/86
f 225/25/87 228/29/87 226/30/87
f 229/25/88 230/26/88 231/28/88
f 229/25/89 232/27/89 230/26/89
f 233/28/90 234/27/90 235/26/90
f 233/28/90 236/25/90 234/27/90
f 237/28/91 238/27/91 239/26/91
f 237/28/92 240/25/92 238/27/92
f 241/29/93 242/27/93 243/25/93
f 241/29/94 244/30/94 242/27/94
f 245/28/95 246/27/95 247/26/95
f 245/28/96 248/25/96 246/27/96
f 249/28/97 250/27/97 251/26/97
f 249/28/98 252/25/98 250/27/98
f 253/28/99 254/27/99 255/26/99
f 253/28/100 256/25/100 254/27/100
f 257/29/101 258/27/101 259/25/101
f 257/29/101 260/30/101 258/27/101
f 261/28/102 262/27/102 263/26/102
f 261/28/103 264/25/103 262/27/103
f 265/25/104 266/26/104 267/28/104
f 265/25/105 268/27/105 266/26/105
f 269/25/106 270/26/106 271/28/106
f 269/25/106 272/27/106 270/26/106
f 273/25/107 274/26/107 275/28/107
f 273/25/107 276/27/107 274/26/107
f 277/25/108 278/26/108 279/28/108
f 277/25/109 280/27/109 278/26/109
f 281/25/110 282/26/110 283/28/110
f 281/25/110 284/27/110 282/26/110
f 285/25/111 286/26/111 287/28/111
f 285/25/112 288/27/112 286/26/112
f 289/25/113 290/30/113 291/27/113
f 289/25/114 292/29/114 290/30/114
f 293/29/115 294/27/115 295/25/115
f 293/29/115 296/30/115 294/27/115
f 297/25/116 298/26/116 299/28/116
f 297/25/117 300/27/117 298/26/117
f 301/28/118 302/27/118 303/26/118
f 301/28/119 304/25/119 302/27/119
f 305/25/120 306/26/120 307/28/120
f 305/25/120 308/27/120 306/26/120
f 309/25/121 310/26/121 311/28/121
f 309/25/121 312/27/121 310/26/121
s 1
f 45/31/122 46/32/123 47/33/124
f 45/31/122 48/28/125 46/32/123
f 45/31/122 47/33/124 49/25/126
f 45/31/122 49/25/126 48/28/125
f 50/34/127 51/35/128 52/33/129
f 50/34/127 53/29/130 51/35/128
f 50/34/127 52/33/129 54/25/131
f 50/34/127 54/25/131 53/29/130
f 55/34/132 56/35/133 57/33/134
f 55/34/132 58/29/135 56/35/133
f 55/34/132 57/33/134 59/25/136
f 55/34/132 59/25/136 58/29/135
f 60/31/137 61/32/138 62/33/139
f 60/31/137 63/28/140 61/32/138
f 60/31/137 62/33/139 64/25/141
f 60/31/137 64/25/141 63/28/140
f 65/34/142 66/35/143 67/33/144
f 65/34/142 68/29/145 66/35/143
f 65/34/142 67/33/144 69/25/146
f 65/34/142 69/25/146 68/29/145
f 70/34/147 71/35/148 72/33/149
f 70/34/147 73/29/150 71/35/148
f 70/34/147 72/33/149 74/25/151
f 70/34/147 74/25/151 73/29/150
f 75/36/152 76/33/153 77/32/154
f 75/36/152 78/25/155 76/33/153
f 75/36/152 77/32/154 79/28/156
f 75/36/152 79/28/156 78/25/155
f 80/34/157 81/35/158 82/33/159
f 80/34/157 83/29/160 81/35/158
f 80/34/157 82/33/159 84/25/161
f 80/34/157 84/25/161 83/29/160
f 85/36/162 86/33/163 87/32/164
f 85/36/162 88/25/165 86/33/163
f 85/36/162 87/32/164 89/28/166
f 85/36/162 89/28/166 88/25/165
f 90/36/167 91/33/168 92/32/169
f 90/36/167 93/25/170 91/33/168
f 90/36/167 92/32/169 94/28/171
f 90/36/167 94/28/171 93/25/170
f 95/31/172 96/32/173 97/33/174
f 95/31/172 98/28/175 96/32/173
f 95/31/172 97/33/174 99/25/176
f 95/31/172 99/25/176 98/28/175
f 100/36/177 101/33/178 102/32/179
f 100/36/177 103/25/180 101/33/178
f 100/36/177 102/32/179 104/28/181
f 100/36/177 104/28/181 103/25/180
f 105/34/182 106/33/183 107/35/184
f 105/34/182 108/25/185 106/33/183
f 105/34/182 107/35/184 109/29/186
f 105/34/182 109/29/186 108/25/185
f 110/34/187 111/35/188 112/33/189
f 110/34/187 113/29/190 111/35/188
f 110/34/187 112/33/189 114/25/191
f 110/34/187 114/25/191 113/29/190
f 115/34/192 116/33/193 117/35/194
f 115/34/192 118/25/195 116/33/193
f 115/34/192 117/35/194 119/29/196
f 115/34/192 119/29/196 118/25/195
f 120/36/197 121/33/198 122/32/199
f 120/36/197 123/25/200 121/33/198
f 120/36/197 122/32/199 124/28/201
f 120/36/197 124/28/201 123/25/200
